<mxfile host="Electron" modified="2023-10-21T21:54:49.296Z" agent="Mozilla/5.0 (X11; Linux x86_64) AppleWebKit/537.36 (KHTML, like Gecko) draw.io/22.0.3 Chrome/114.0.5735.289 Electron/25.8.4 Safari/537.36" etag="Q0z93b6sMOsR51wC4rE6" version="22.0.3" type="device">
  <diagram name="Page-1" id="QJbeG1GyCK0qfvMYLgKJ">
    <mxGraphModel dx="2247" dy="907" grid="1" gridSize="10" guides="1" tooltips="1" connect="1" arrows="1" fold="1" page="1" pageScale="1" pageWidth="850" pageHeight="1100" math="0" shadow="0">
      <root>
        <mxCell id="0" />
        <mxCell id="1" parent="0" />
        <mxCell id="yoPPsw2FuR2WmIkUcgj8-1" value="" style="rounded=0;whiteSpace=wrap;html=1;fillColor=#FFFFFF;strokeColor=none;" vertex="1" parent="1">
          <mxGeometry x="-20" y="220" width="890" height="610" as="geometry" />
        </mxCell>
        <mxCell id="yoPPsw2FuR2WmIkUcgj8-11" value="" style="rounded=1;whiteSpace=wrap;html=1;arcSize=6;fillColor=#FAFAFA;strokeColor=#3C6FC7;strokeWidth=2;" vertex="1" parent="1">
          <mxGeometry y="240" width="270" height="130" as="geometry" />
        </mxCell>
        <mxCell id="yoPPsw2FuR2WmIkUcgj8-2" value="" style="rounded=1;whiteSpace=wrap;html=1;arcSize=6;fillColor=#FAFAFA;strokeColor=#168059;strokeWidth=2;" vertex="1" parent="1">
          <mxGeometry x="290" y="240" width="270" height="130" as="geometry" />
        </mxCell>
        <mxCell id="yoPPsw2FuR2WmIkUcgj8-4" value="" style="shape=image;verticalLabelPosition=bottom;labelBackgroundColor=default;verticalAlign=top;aspect=fixed;imageAspect=0;image=data:image/png,iVBORw0KGgoAAAANSUhEUgAAAZAAAAGQCAIAAAAP3aGbAAAABmJLR0QA/wD/AP+gvaeTAAAgAElEQVR4nO3de1xUdf4/8NcMw/0qkKJiKmKIpqaumZe1i5i5YWVGlmZrVrjtfpf221bj17Uf+92tbVx3S6v9FnYT0yzc7YK22eLamncbQRQFxCugiCD3O8x8fn8cHBFRgbmc+TCv54NHD/vMcM6bGl6e8zmfi0YIASIiGWjVLoCIqLMYWEQkDQYWEUmDgUVE0mBgEZE0GFhEJA0GFhFJg4FFRNJgYBGRNBhYRCQNBhYRSYOBRUTSYGARkTQYWEQkDQYWEUmDgUVE0mBgEZE0GFhEJA0GFhFJg4FFRNJgYBGRNBhYRCQNBhYRSYOBRUTSYGARkTQYWEQkDQYWEUmDgUVE0mBgEZE0GFhEJA0GFhFJg4FFRNJgYBGRNBhYRCQNBhYRSYOBRUTSYGARkTQYWEQkDQYWEUmDgUVE0mBgEZE0GFhEJA0GFhFJg4FFRNJgYBGRNBhYRCQNBhYRSYOBRUTSYGARkTQYWEQkDQYWEUmDgUVE0mBgEZE0GFhEJA0GFhFJg4FFRNJgYBGRNBhYRCQNBhYRSYOBRUTSYGARkTQYWEQkDQYWEUmDgUVE0mBgEZE0GFhEJA0GFhFJg4FFRNJgYBGRNBhYRCQNBhYRSYOBRUTSYGARkTQYWEQkDQYWEUmDgUVE0mBgEZE0GFhEJA0GFhFJg4FFRNJgYBGRNBhYRCQNBhYRSYOBRUTSYGARkTQYWEQkDQYWEUmDgUVE0mBgEZE0GFhEJA0GFhFJg4FFRNJgYBGRNBhYRCQNBhYRSYOBRUTSYGARkTQYWEQkDQYWEUmDgUVE0mBgEZE0GFhEJA0GFhFJg4FFRNJgYBGRNBhYRCQNBhYRSYOBRUTSYGARkTQYWEQkDQYWEUmDgUVE0mBgEZE0GFhEJA0GFhFJg4FFRNJgYBGRNBhYrqiqqmr//v1VVVVqF0LUNQwsVzR79uwJEybs3r1b7UKIuoaB5Yqio6MBZGdnq10IUdcwsFwRA4skxcByRQwskhQDyxUpgXX06FG1CyHqGo0QQu0aSAXBwcHl5eXFxcW9e/dWuxaizuIVlouKiooC7wpJNi4aWCdOnNi7d6/aVaiJ3VgkI1cMrG3btg0dOvS5555TuxA1MbBIRq4YWFOmTAkNDT148GB6errataiGgUUycsXA8vDwmDdvHoCPPvpI7VpUw8AiGbnoU8KsrKyRI0cGBgaeO3fOx8dH7XJUYDab/fz8GhoaKioqAgIC1C6HqFNc8QoLwK233jp+/PjKysqvvvpK7VrUodVqhw4dKoTIzc1VuxaiznLRwAKwaNEi8K6Qd4UkFdcNrMcff9zHx2fbtm0nTpxQuxZ1MLBIOq4bWIGBgXPmzBFCJCcnq12LOqKjowP8/ZtLStQuhKizXLTTXbF9+/a77rorPDz89OnTbm5uapfjaC1ZWbqRI3HLLWA3FknCpQNLCBEVFZWXl/ftt9/ed999apfjcI2N8PWFRoOaGnh6ql0N0Y257i0hAI1Gs3DhQrhs17unJwYPRksLjh9XuxSiTnHpwAKwaNEinU739ddfl7hmV050NACw350k4eqBFRYWNmPGjKampvXr16tdixoYWCQVVw8sAE8//TSADz/8UO1C1MDAIqkwsDBr1qywsLCsrKz9+/erXYvDMbBIKgws6HS6+fPnwzW73qOjodEgNxdms9qlEN2YSw9rsMjNzY2Ojvb39y8qKnK5udD9++PcOZw8icGD1S6F6AZ4hQUAUVFRd9xxR1VV1d///ne1a3E43hWSPBhYrVy3652BRfJgYLWaO3euv7//Dz/8kJOTo3YtjtWzAquqqmratGmDBw+OjY3lvO6eh4HVys/P75FHHgGwdu1atWtxrB4UWEVFRYMGDdq2bdvp06e/+eabkSNHTp8+fePGjc3NzWqXRrbBTvfLdu3aNWXKlLCwsIKCAp1Op3Y5jnL+PPr2RVAQysvVLsUq6enps2fPzs/P1+l0cXFxBw4cOH36dFNTE4A+ffo88cQTTz311IgRI9Quk6wjqA1liahNmzapXYhj9eolAHH+vNp1dN/69eu9vb0BTJkypaCgQGksKytLSkoaM2aM5dM+bty4lStXlpaWqlstdRsD6wrLly8HMHv2bLULcaxJk4S/v9i/X+06uqOlpUWv1yt5FB8f39TUdPV7srKy9Hp9aGio8jYvL6+4uLjU1NSWlhbHF0zWYGBd4fz58+7u7jqdrqioSO1aHKiiQu0KuunixYvTp08H4OHh8f7771//zQ0NDSkpKbGxsZa1z8LDw/V6/YkTJxxTLVmPgdXegw8+CGDFihVqF+IoNTXi3XfFggXiwQfFokVi3TrR0UWKE8rJyYmKigIQGhr6/fffd/4bCwsLDQZDRESEEltarXby5MlJSUm1tbV2K5Zsg4HVXmpqKoCoqCiz2ax2LfZ35IgYMED4+opHHhG/+pW4/36h04nbbhNOf4G5efPmwMBAALfddtvp06fbvlRcXDxv3rwLFy5c/wgmk2nHjh3x8fG+vr5KcgUGBsbHx+/YscOehZNVGFjtNTc39+vXD8CuXbvUrsXOmppEVJSIiBBtf+H37RMBAWLGDPXKugGz2WwwGLRaLYDHHnus3WVRenr6zTffDODxxx/v5AErKiqSk5NjYmIsffPR0dEGg6G4uNgO5ZNVGFgdWLJkCYCnn35a7ULsbONGAYivv27fvny5AERGhho13UB1dfWcOXMAuLm5GQyGdq9+9tlnylTQSZMmdaMX8ujRo3q9vk+fPkpseXh4xMbGpqSkdNiRT6pgYHUgNzdXo9H4+flVVVWpXYs9/fKXAhA1Ne3bMzMFIN58U42aric/P3/s2LEAAgICUlNT275kNpsTExM1Gg2AJ554or6+vttnaWlpSUtLi4uLc3d3V5Krb9++CQkJhw4dsvonIGsxsDr205/+FMCHH36odiH29OCDIjS0g/bKSgGIF190eEHXs3379t69ewO45ZZbjh492valqqoq5VGJTqe7+rKr24qKilauXDlq1Ki2w7iSkpJ6+F9jzo2B1bE1a9YodxZqF2JPDz0kQkI6aC8vF4B46SWHF3RNSUlJyvXOzJkzy8vL27507Nix4cOHAwgJCdm6das9zm40GhMSEoKDg9sO40pLS3OJxzJOhoHVsbq6uqCgIADt/jLvUZRbwquf5Su3hCtXCiHEP/4hrgwIB2toaFi0aBEAjUaj1+tNJlPbV7/99lvlf9OoUaNOnjxp10rq6+tTUlJiYmKUG08AQ4cOTUhI2LNnj13PS20xsK7p2WefBfCSM11o2NjnnwtAbN7cvv2NN1o73U+eFBqN8PQUcXEiNVU4fFz4uXPn7rjjDuWi5pNPPmn36sqVK5UhoHFxcTVX98TZTV5e3u9+97vw8HDLreLUqVPbJSnZCQPrmvbu3avcaPTY8YQNDSIiQgwbJto+v8/OFqGhYto0IYQ4eFBMny60WgEIQAwcKBITxalTjqnOMkAhPDz8xx9/bPtSfX39k08+ea3LLscwmUxpaWlDhgxRMuudd95xfA0uiIF1Pcrthl6vV7sQuzlwQNx0kwgJEYsXi9deEwsXCh8fERUl8vMvv6ewUBgMYsiQ1tjSasXkySIpqYPHi7bz6aefWiYzn79yVnZhYeH48eMB+Pn5ffHFF/aroZOUzOr8sC+yBgPreiZMmABg8uTJahdiT6Wl4tVXxX33ifHjxaxZ4q23OujVUhiNIj5e+Pq2JldgoFiwQKSl2bac609m3rlzZ1hYGIDIyMisrCzbnrp7XnzxRQDPPfec2oW4BAbWNR0/fly5wlq8eLHatTiTykqRnCxiYoRG05pcw4YJg8Emq9NYJjPrdLq33nqr3atJSUkeHh4A7r333rKyMutPZxObNm0CMH36dLULcQkMrI5VV1ePHDkSwIMPPshFSDp25Ih48UXRp09rbLm7b0tISE1NbW5u7t7xcnJyhg0b1uFk5ubm5raXXd0+hfUaGxvXrFnzpz/9ydJy/PhxpaNNrZJcCgOrA2az+dFHH1WmQFdIu/SKg7S0iLQ0ERcnvL1H9e4NICwsLCEhITMzs0uHuc5k5pKSkrvvvhuAp6fnxx9/bMviu665udnT01Or1VqeS5pMJm9vb41GU1lZqW5troCB1YE//OEPyvyPnjwIy9bqzp9fsWKFMoZTMWnSpPfff/+G48KvP5n54MGDgwYNAtCvX799+/bZ8yfoLOVnTE9Pt7Qoo+H3y7kColwYWO1t2bLFzc1Nq9VuvnqAEnVCl8aFt5vM3O49n3/+uTKZeeLEiefOnXPUT3ADSsHr16+3tMydOxdAcnKyilW5CAbWFXJycpQbExtOSXNNV48LHzBggF6vP9VmGFd+fv64ceOUi9mvr1w0ot1k5rq6Okf/ANe2bNkyAMuWLbO0/P73vwewZMkSFatyEQysy6qqqpSr/YcffpjTxGwlPz/fYDAMHjxYiS2tVhsTE5OcnPyvf/3LwZOZbWX9+vUA5syZY2n5/PPPleczKlblIhhYrUwmU2xsLIDRo0c7cp6HizCZTN99993cuXO9vLyU5FLGhcbGxrbrq87Ly7P3ZGYrpaenAxg+fLil5dChQ0ryqlhVpxQXi6ysK0YFy4aB1Wrp0qUAgoODuSWBXZWVlb399tsDBw709fWdPHmyipOZu622tlar1Xp4eFhGVzQ0NOh0Op1O19DQoG5t17R5sxg1qnUACiDCw4Wcc4kYWEII8cUXX2g0Gp1Ot23bNrVrcQmffvqpcuvdtvHdd99VJjM/8sgjTn6Rqzy4zMnJsbRERkYCcJLB9+19/rnQasXPfiZ27hTnzokDB0R8vACEhJ1uDCyRmZmpbEOwatUqtWtxFRkZGQCio6PbNh44cMDX11etycxdMnPmTABffvmlpWXWrFkANm7cqGJVHaurE6Gh4s472y+28ctfCq1WtMlcKWjh2i5exLJlgYDfz3/+84SEBLXLcRXDhg1zc3M7fvx4c3OzpXHs2LHHjh2zjMlyZsoO4dnZ2ddpcRZbt6K0FP/937i0G2Orl1+G2YzPPlOprG5y9k+GXbW04LHHsGnTwGnTct977z21y3EhXl5eN998c3Nz84kTJ9q2K/sVOT+ZAuvwYQAYNqx9+8CB8PNrfVUeLh1YL7+MrVvRpw/+9rdAy9Mrcgzn/Q3vBJkCq7oaAC5tBXSFPn1QWengcqzkuoG1bh3efBPu7khJQZvFI8lBnPc3vBOU4pVOd0uLRqPJzc01m82qlnYVPz8AuHChg5cuXEBAgIPLsZKLBlZGBhYvBoB33sHUqWpX45KkDqzg4ODevXvX1NQUFhYqLQEBAX379q2vrz9z5oy6tbWnzO7My2vffu4cqqsxYoTjK7KGKwZWcTEefBB1dXjuOcTHq12Nq5I6sCDRXeH06QgMxNVdtO++CwCPPOL4iqzhcoHV3Iy5c1FQgEmTsHKl2tW4MGU4e9u7KrlIE1h+fnj9dWzejGefxdmzAFBRAYMBr7+OxYvRZtdFKejULsDREhKwfTv69cPGjfDwULsaFxYUFNSnT5/i4uKCggJlswm5SBNYAJ57Dm5uWLoUH3wAHx/U1cHLCy+/jD/+Ue3Kusy1rrDWrMF778HLC199BUkeoPdkzvsb3gkSBFZTE559Flu3AkB8PIqKsHs31q/Hf/6DkhL86U/tR2bJwIUCa88e/OIXAPC3v2H8eLWrISf8De+KawXW0aNHVaupndRUfPABfvvb1n91d8fEiXjoIdx5Z+ujQwm5SmAVFeGRR9DYiBdewKJFaldDACQPrP79+wcEBJSUlJSWliotYWFhvXr1qqioKC4uVre2Vh9/DADPPHO55fvvsX496uvVqsh6LhFYDQ146CGcO4dp07B8udrV0CVSB5ZGo4mKigKQk5NjaVQ20XCKn+jsWXz3HTw88Pjjlxtffx1PPIG1a9Ury1ouEVhVVQAweDA+/xw6l3vM4Lyc7h6qi5y6Gys5GSYTHnoIoaGtLYWF2LYN3t6YO1fVyqziEr++vXtj+3acO4eQELVLoTb69+8fGBh48eLF0tLSUMvvlTycOrA++QQAnnrqcsuHH8JkwsMPIyhIraKs13OusDZsQHAw5s27onHjRgQH49QpeHkhIkKlyujalLsqp/gN7zrnDawdO5CTg/79MX16a4sQHUSYhHpOYDU2orwcGzZg06bLjU1NKC+Hs83uIgtn+Q3vFucNLKW7feHCywMXvv8eJ05g0CDcfbeKdVnPvreEZrN55cqVAwYM6Nu3r6+vb2BgYEBAgJ+fn/2WRpg+Hf/1X7jnHvj62ukMZEvO8hveLREREZ6envn5+TU1NX5+fgAGDRrk4+Nz9uzZyspKZfslFdTU4O9/h0aDhQsvN1oizOnXGrs++wbW+PHjlRX7259Vp/P39w8MDPS7JCgoSPmDr6/vzTc/KcRwPz/4+iIoCP7+8PWFnx8CA+Hvf4Ne89dew5134o9/hMFgrx+KbEjqwNLpdJGRkUeOHDl27NjYsWMBaLXaoUOHZmZm5ubm3n777eqUlZKC6mrceSciI1tbKivxxRfQaLBggTol2Y4dA+vw4cNKWk2cOFHZ2ru6urqioqKmpqapqam8vLy8vLzDb5wwYcK+fcM7fAmAlxf8/BAQgIAAKKEWEIAXXmh9ddAgvPRS69PbW2+1w09FNiV1YAGIjo4+cuRIdna2ElhKS2ZmZnZ2tmqBpVxMte2r2rABdXWIiekB/bh2DKwvv/wSQGRk5O7du9u91NzcXFNTU15eXlNTU1tbW1NTU1FRUV1drfwZGDF2LGprUVODqipUVaGmBjU1qK5GZSUaGtDQgEuD9VrNn3/5z0uWYN06PPccfvjBfj8c2UZERISXl1dBQYHlrkouztaN1VKcp8s6DH//K5ZhuDrCpGXHwFJ2l3zzzTevfsnd3b1Xr169evXqxmHr6lBbi+pqVFS0hlpNDcaNa50yBcDbG3/7G2bOxCefyDhZyrW4ublFRkZmZWXl5uYqu0DLxdkCq7jlo9JvmwZW/CbI0ol75Aj270dgIB56SJWSbMtegbVnz56jR4/26dPnvvvus+2RfXzg44Obbrree+67Dw88gP/5HyQm2vbkZHvR0dFZWVnZ2dkMLCsJYSorW9fiXq+bEnu5MWW9BsC8efDxcXxJNmevwPr4448BLFy4UKfS0PJVqzBiBFe8koDU3VhRUVGenp7u7u5CCI1GA+CWW27R6XQnT55saGhw8EYBVVVbmpoKvbxu8fObqLQI0Xx49pqQiLFhtz/TM2427PKMs76+fuPGjQB+/vOf2+P4nTFoEJYuhZy/Ba5F6sDy9vauqanJzMxU0gqAh4fH4MGDTSbT8ePHHVzMxYsfAwgJeRpoLaaycnOzqahyfJNb9FgHF2MndgmsjRs3VlRUTJ48WfksquWllzrY3IicjdSBBeDqe4jw8HAAa9eubbvror21tFysqNis0ehCQp6wNJaWKhHWc9YnsUtgKfeDTzn2qcS99yItDW0H63l44J//RFoa1+pzalFRUW5ubidOnGhqalK7FhtISUnZs2fPgAEDVqxY0adPn8WLFx88eNAB5y0r+0SIxoCAme7urR/35ubiqqotGo1H2wiTns33kj558qRGo/H19a2srLT5wTuvtlasXy9efVXFEqizIiIiABw9elTtQqxiMpmWLl2q3BtOnjz51jbjACdMmPDee+9VVFTY7+xHjow2GlFe/oWlpahoudGI48cftt9JHc/2gbVs2TIACxcutPmRu6SqSri7C51OqBqb1Cn3338/gH/84x9qF9J9VVVVDz30EACdTmcwGJTGrKwsvV5vWYjCy8srLi4uNTW1paXFtmevrf3RaMTBg6Fmc6OlMSsr2mhERcUm255LXTYOLJPJpGwosH37dtseuRsmTRKA2NSj/n/1TC+++CKAV6W9Hs7Ly1M2AQoJCdm6dWu7VxsaGlJSUmJjY90uDQsMDw/X6/UnTpywVQFnzvzSaERBwQuWlpqa3UYjMjPDzOZmW53FGdi4DystLS0/Pz8iIuKnP/2pbY/cDcrSGmlpatdhax9+iPBwXLx4RWNODsLDkZqqUk3Wkbrf/bvvvrv99tuPHj06cuTIH3/8cdq0ae3e4OnpGRcXt2nTpjNnzhgMhiFDhhQWFi5fvnzo0KFTpkxZvXp1bW2tNQWYzQ1lZRsAhIRcfih/qbt9oUbTo9a8s3FgKd3tTz/9tOUpr4p6amBVV+PsWZhMVzQ2NeHsWdTVqVSTda4VWMLptyxctWrV/fffX15eHhsbu3PnzsGDB1/nzf3799fr9ceOHdu6dev8+fM9PT137dq1ePHiAQMG/PnP+ro6Y/dqqKj40mQq9/W93du7dZNBs7m+vHwjroywHsKGV2sXL1708vLSarX5+fk2PGy3NTeLwEABCOcox2befFMAorj4isbMTAGIDRtUqsk6yjR4Hx8fk8nUtn3ChAlxcXFpaWlms1mt2q6lvr5eGWao0Wj0en27yjujoqIiOTk5JiYGwPr1dxmNyMqKLioyNDcX3/ib26irO3zmzOLS0mRLS2npGqMROTmTu1qS87NlYL399tsAZs6cacNjWumBBwQgPv5Y7TpsqucFlhAiLCwMwOnTpy0t2dnZluv0yMjIV199taCgQMUK2yosLBw/fjwAPz+/L7744sbfcF1ZWVl5ea8cPNjbaITRiAMHPE6cmFNRsdls7mbffG7unUYjSko+sLIwJ2TLW0JVhl9dX0+9KwRQWIgzZy5/FRWpXZB1rr4rHDZsmNLpM3jw4OPHjy9btmzgwIHTp09fu3Ztnaq3vrt37/7JT37y448/DhkyZM+ePbNnz7bygCNGjIiM/MOoUeeGDk3r1SsOEOXl/zh+PPbw4QEFBc/X1x++4RHM5lqz2bJ5l/Dzu8vLK7pXr0etLMwZ2Sr5Dh06BCA4OLihocFWx7ReTo4ARO/ewvluKbpPucLq8EveK6xf/vKXAN54442rXzKZTGlpaQsWLPC5NH03KCgoPj7eaDQ6vs7Vq1d7eHgAuPPOOy9cuGCPUzQ1FRUXrzxyZJRywWU04ujRcSUlSS0tVVe911RYuDQzs4/ytsOHI0pKPrRHSc7DZoGVkJAAICEhwVYHtJVBgwQgDh5Uuw7bUQJrzx6Rm3v5KzVV7sBShu+NHDny8OHD13pPeXl5UlLS5MmTLX/dDh8+3GAw2Ck42mlubtbr9cp54+Pjm5qa7H3G2lrj6dPxGRn+Sh6lp3udOBFXWZkmROtfv+fP/9VoRH7+b6qrd1RV/aeoaHl5+Vf2rkpdtgmsxsZGZXRcRkaGTQ5oQ4sWCUCsWKF2HbbT8/qwvv3224CAgICAgLYxVFpaeq33HzlyRK/X33RpjSFPT8/Y2NiUlJTmZnuNOSotLb3nnnuUc3300Ud2OkuHTKaa0tI1OTlTjUaNklxZWbcUF68SQmRn356dfYcji1GdbQIrJSUFwNixY21yNNvasEEA4t571a7DdnpSYJnNZoPBoIyonDFjRnx8vGVZR29v73nz5m3duvVaD+AaGxtTU1Pj4uIs04/79eun1+vz8vJsW2RmZqYyXqFfv3579+617cE7r7Exv6jIcOjQIKMRp08/I4TIyhqWlTXMbLb7tZ7zsE1gzZw5E8Dbb79tk6PZVkmJ0GqFl5eoq1O7FBvpMYFVX1+/YMECXBoZoIxdsIwLt8SQMnzpOuPCz549azAYhg4darlVHDduXFJSUnV1tfVFpqSk+Pr6Apg4ceK5c+esP6CVzOaWiop/1tcfEUIUFi4xGpGdPaGsbKPZ7ER9x/Zjg8AqLCx0c3Pz8PAoKSmx/mj2MGaMAMRVUyZk1TMCq6Cg4Cc/+QkAf3//L7/88uo3FBYWKuPClQzSarWTJ09OSkqqqam51jGNRmN8fLxlbfiAgIAFCxZ0exiXcvWnDK2YP39+nfP9jWc2N509m5iZ2c9oxMGDIYWFepOpXu2i7MsGgfXaa68BmDt3rvWHspOXXxaA0OvVrsNG8vLExo2i3cPYigqxcaNwmoFKN7Bz584+ffoAUBZ0v/6blRjyvbRIeWBgoBJD13p/XV1dSkpKTEyMZRhXVFRUYmLimTNnOl+hZTKzm5ubZTKzczKbWyor044ff9Byq1hba6ys/JcQXR7L6vxsEFjDhg0DsGXLFusPZSdpaQIQY8aoXYeNHD0q9Pr2F1O5uUKvlyOwkpKSlJEBM2bMKCsr6+R3VVZWKuPCLTEUHR1tMBjOnz9/rW/Jzc1NTEwcOHCg5RotJiYmJSWlsbHxWt+iaDuZ+TrJ6GyOH3/owAFPIUzHj882GpGZ2b+wUN/QcFztumzJ2sDavn270stg8xUzbKi+XtxzT3LfvuMc8/zb3pQRDB4eIjv7cuO33wpA7N+vXlmd0NzcrAx/UUYGdO+hXnZ2tl6vVy7QlCsgJYauNc6gpaVl06ZNDz/8sJKSAHr37r106dJrHX/Lli1Kx//IkSNPnjzZjQrVkp//6wMHPMzmpqIiw+HDQy4N49Lk5t5dWrrWZKpVu0AbsDawFi5cCGDZsmU2qcZ+7r33XgAbJOrjuTYlsPr2FdOmXW50/sAqKSm5++67AXh5ea1Zs8bKo7W0tKSlpcXFxbm7uysxFBYWlpCQkJmZea1vKSsrS0pKGjNmDIDHH3+8w/ckJSUpnf2xsbHqrkDZGcXFq2prf1T+XFOz9+DB4LbzB5VhXOnpfkpyZWQEnDq1oO0wLhlZFVjV1dV+fn4ajcbmD5JtbsWKFQAWLVqkdiE2oARWUpIAxCeftDY6eWBlZGQMGjRIuRjft2+fDY988eLFpKSk0aNHt3tEWFV19bjwVj/++OPVHWfWT2Z2MLO54ejRMcqA0oyMAKMRR46MrK9vv2prS0tlaWnysWMxbYZxDSsqMjQ1XfNW2plZFVgffPABgLvuustW1diPsq52eHi42oXYgBJY2ZldqNgAABQ0SURBVNkiLk706SOUXiBnDqzPPvtMmVUzadKkoqIiO53FaDQmJCQEBwcrsaUs79nJR4SFhYXKzvI2mcxsV01NRYWFS+rrc5R/bWg4UVHxzcWLn9bU7L1+L3t9fXZBwUuZmWGXpli7Z2U9/fXXwv4j9m3JqsBSJkkkJyff+K1qM5vNynoAOTk5atdiLUtgnTkjfH3F4sVCOGtgmc3mxMREpZv82WefvWFvt/Xq6+vbPSIcMGCAXq8/derUtb5l165dymdjyJAh15kY5CSsXqndVFmZduJE3IEDHn/+80eACA4W8fHSzF3rfmDl5uZqNBo/Pz+bDM9zgHnz5jnt6NYusQSWEMJgEFqt2LfPGQOrqqrqwQcfxJXLnDtMfn6+stJD20eEycnJtbVX9D07YDKzbV29UntFxabq6u1d7Zlqbi7+9NPSESMuz5y/4w6RlOTseyB0P7CUiaDPPvusDauxK2X1mwceeEDtQqzVNrAaG0V0tBg3TnzzTWtgGY3ilVeE7ZYL76Zjx44pK8aEhIT8+9//VquMa630kJqaWldXZ1nO2DGTma3X0Urt5sOHI41GVFV18z+y0SgSEkRISGtseXmJuDiRltZ+gZOJEwUgUlOvaJw6VUyfLoQQp08LNzfx/vvtDz50qJg/v3t1daybgdXc3NyvXz8Au3fvtmU59lRYWKiMq5bio3kdbQNLCLFtm9BoxIIFrYH1zDOtn7xx40RSklDl8vfbb78NCgoCMGrUKCcZGVBWVvb222+PHXt5A2StVquMipCiT0Nx+vSzRiMKCy+Pga6q+o/RiEOHwru92p+ivl6kpIjYWOHm1vr5GTBA6PXC8n9PCaxBg0TbK1RLYJ061fogqJ3Bg8Vjj1lTV3vdDKxNmzYpA4idcO3a61D+zt+5c6fahXST8llpF1hCiPnzhVbbGlg7d4onnxS+vq0fu4AAER8v9uxxXJErV65UJjPHxcVdZxqNWo4cOTJ37lwlrXQ6nYOXXrCGyVSXkRFkNKLto8BTp35uNOLs2VdsdZaTJ0Viohg4sPXzo9WKGTNEUZGYOFH89KciIEAsWXL5zdIE1sMPPwzgz3/+sy1rsT9l1GJiYqLahXRHeroYOFB89lkHgXX+vAgKuqIPq7JSJCeLmBih0bR+8oYNEwaDuPawcBuor69/8sknpRgZUFlZuXnz5uusYOOErl6p3WSqTk/3Mxo1Nh/ObjKJHTtEfLzw8RFhYaK5WUycKB5+WLz+unB3F5YxIXIEVm5urru7u06nc4bJ612iXBhOmjRJ7UK6bN064e0tADFzpjAaRVycKCy84g3r14u4OHH8qs9tTo5ITBQ339waW25uIiZGpKTY/mF2QUGBssz5tSYzk5WuXqm9pOR9oxG5uXYcV1RW1np5rgRWQ4MYMkRMmdLaw9UusJYsEXv3XvHVr58TBJby6Kd///62LMQhampqPDw8dDqdXTcNt62WFqHXt8ZNfLzo3sAAk0mkpYm4OOHh0Xoo2z7M7tJkZuqGhoaTRqMmPd237ULJOTmTjEa03S/HfpTAEkL8858CEB98IMRVgdXhl20DqzubUFy4cAGAyWSqr6+/4Zudiq+v74QJE1paWr7//nu1a+mUqirMno3ly6HTYdUqJCXh0ny4rtFqERODlBQUFOCvf8WIESgrw+rVuO02LFy4ZvXq1ZWVld0ucvXq1ffcc09xcfGMGTP2798/YsSIbh+KruXixY8A0avXo25u/kpLQ8Oxmpo9bm4BvXo94shKZs7E7Nl4+eX2W/kCWLUKlZVXfA0aZOOzdyew4uLiAJw/f3769OkXr67auU2fPh1Amgwb6Rw7hgkTsGkTQkPxr3/h0qxhq/TujRdeQFYWjEYkJCA0VGzb9sfFixeHhYU9+uijyjbrnT9aS0vL888/v3jx4qampvj4+M2bN1vWCyWbMl+8uBZAaOjlLakuRdhcrdbHwdWsXInGRrz6avt2Ly8EBFzxZfv9lLt3Yfbuu++GhIQAGDBggCqbl3Tbnj17AAwdOlTtQm7gm29ad4EdPVpce5C2terqWtatWzdt2jTlqRmAiIiIP/zhD53ZCtcymdnT0/PjHrb1o5OpP/Hvg7t9Dh+OtIwONZublXX7amocNK7IckuoMBiEh4cYOFCGTnfF2bNn77jjDgBeXl5r1661YU12ZTQa3d3dg4KC7rvvPrtuW9BtZnPr+HVAzJ0rah2yKEhBQYHBYIiIiFBiy7K8Z+01Tn/w4EE7TWamDsydKwL8G764PEmjomKT0YisrCiHLb3QLrCam8XIkQLoQmAVFoply0R8vFi3rvvb7lk1l7ChoWHRokW49BjbmZfEEkLU19cvXbpUWTzEsjRSeHj47373u+NXP11TSX29eOIJAQiNRiQmOno7RZPJtGPHjnbLe8bHx+/YsaPt2xwzmZlaXbwovLyEVivaXPaeyZpvNOL8eceNK2oXWEKIH34QGk1nA6uxUQwZIlauFN9/L8aObe2z7wYbrDialJSkrEl03333lZeXW39Ae9i9e7cyalSr1cbHxx87dsx+2xZ0W0GBGDdOAMLfX3yl6v5yFRUV7XYAvOWWWwwGw7lz56ZOnarMKx4wYIADJjOTeOut1vEsFhcuCB+fplkTmxocN65o/35x9VJjO3eKAweEEKKhQezY0cEovx9/FJbVBiyLy65e3f35OrbZNeeHH35w2qfadXV1er1eGXsdGRn5n//8p+2rtt22wBo7dog+fQQghg4VR444+OTXdOjQIWWNRoUSVco/Bw0apHZ1rkHZQyUl5XLLG28IQEg7K3bJEtHtFT9ttvNz201QnGdFoe3btyuXUTqdTq/XNzR0vBWSTbYtsMY777xzzz3fAOJnPxPONkSssbFRp9NptdoHHnhAo9F4eHj89a9/9fT01Gq1Tjjzpqc5dEgAIiTkik1HRo8WgJBzdK7RKAYM6P6MC5sFlnCymRkVFRXx8fFKAI0aNaqTjzK7vW1BtzU2Nj7zzDPKfzSD4ZRzzmZRQv/w4cMXLlxQHlMoezSkp6erXVpPl5AgAJGQcLll/34BiN69JVt5TwghRHq6GDpUWLNggi0DS2GZ+xobG6vWgPLNmzeHh4crTzATExO7GjfKmiRxcXGWvvlevXrFx8dnZGTYts6SkpK77rpLqdOZ1wx44IEHAKS0uSuZM2cOgPXr16tYVc/X2ChCQwUg2n7wnntOAOK3v1WvrG5au1aMGiWsXCHR9oEl2uw7EhUVld12kq79lZWVxcfHKykzadKko0fbL3Hd1aNZti2w9M2vXLnSJpNmMzIylEu58PDw/U618t5VlLXP/vd//9fSsmzZMgCvvGKzRQKoAykpAhBjx15uqa8XvXoJoIMOcOd2/LiIiLj8df/93TyOXQJLCJGXl6dM0QgODv7uu+/sdJZ2UlJSbrrpJgA+Pj4Gg8GGwyyysrL0en1oaKgSW56ennFxcampqd0+xYYNG5SRAZMnT77OznpOYs2aNQAeazMEcP369QAeeeQRFavq+WbOFIBou0bu+vUCEBMmqFeTyuwVWEKI6upqZRUaZe9cuz53O3fu3OzZs5U0mTp16rFjx+xxloaGhpSUlNjYWOWeV7k40uv1J7qyvmdLS4tywQIgPj5eipEB+/btAzB69GhLS3p6OoARI0aoWFUPV1go3NyEh4coKbncGBMjAPHee+qVpTI7BpYQwmw2GwwGZdrHY489dq1h01aeIjk5WdkrJTAwMCkpyQEjEgoLCw0Gw5AhQ9qNC7/hU7PKyspZs2YpTy1XrVpl7zptpbKyUqPReHl5Wa4oa2trtVqth4eHE04V6CFee611roPF6dNCqxXe3sJZRzs6gH0DS7F58+bAwEAAt91223U2L+mGkydPxsTEKKkRGxtb4Nid2js5LtwiNzd32LBhAEJDQ7dt2+bIUq3Xv39/AG2vJZWpObm5uSpW1ZNlZYnnnxfff3+5JTFRAOKJJ1QryQk4IrDElb+rNtmSwGQyJSUlKQM+e/fure4jtsrKyuTkZEt0AoiOjjYYDMXFxZb3fPPNN0pqjx492rap7RjKT7d582ZLy8yZMwF8pe6QfNdhNouICAEI9Xb0cAYOCiwhRGVlpfJ03PpNn/Ly8u68804lGuLi4kra3uSrKjs7W6/XK4P+lc678ePH6/X6V155Rbkvnjt3rj3uix3g17/+NYAVK1ZYWl544QUAr7/+uopV9WSFhSIv7/Iw4vp68dprIiZGOOdQPUdxXGCJK7fVfOKJJ+rq6rp6hObmZoPB4OnpCaBv377OuRRvU1PTl19+OWvWLGWitTIoVKvV2vvJg1393//9H4BFixZZWlavXg3gySefVLGqHshsFn/5i+jf//ImEBMnih9+ULssZ+HQwFJ89tlnSqfP2LFjuzT3JTMzc9y4ccrv/4IFC8oskymdVVFR0axZs7y8vEJCQt566y21y7GKskbrxIkTLS07duwAMH78eBWr6oF+9Suh0Yjf/EZkZIiTJ8WWLeKOO4SHh0hLU7syp6BCYAkhDh48qGzJ269fvz2d2IKqvr4+MTFRGXc+ePBgZWFMcqTz588DCAoKsrSUlpYC8PPzk/ey0ens3SsA8f/+3xWNdXVixAgRGeniN4MKdQJLCFFaWqrsu+vp6fnBdVfH2bVrV9uVYdRdAcaVKWvMtl0ASxmm6+CHsz3Z888LN7cORi2sXi0AsWuXGjU5l+6s6W4TISEhW7Zs0ev1yuzfxYsXNzc3t3tPXV3dkiVLpk6dmp2dPWLEiN27d1ueDJLjRUVFAcjOzra0DB8+/Jbg4JJjx9Qrqmc5dAh9+yIoqH27sq/HoUOOr8jZqBZYuPS4cN26dd7e3padVyyv/vDDD7fddtvy5cuVtR8OHDgwYcIEFaul4cOHT+rfv+XUKUvL1pEjc8vKxhw+rGJVPUpVFS49Yr5CWBgAWLGzUY+hZmAp5s+fv3Pnzptvvnnnzp3jxo3bsGHDmTNnnnzyybvuuisvL2/06NH79u2zPBkkFa2Ojt519uz0jAxLiy4yEgByclSrqYfx80NpaQftJSUA4O/v4HKckE7tAgBg7Nixe/funTNnzp49e+bNm6fVas1ms7e39+9///sXXnjBMjiA1KUZNgwA2twSIjq6fQtZY/hw7NqFujr4XLlzl3LTfeutqhTlVNS/wlL07ds3LS1N6SUxm80BAQE7dux4+eWXmVZO5Op4YmDZ1pw5aGnBxx9f0SgEVq9Gv36YOFGlspyIRnRl40wH2LBhQ2Vl5TPPPMOocjpmM/z9UVeHigoEBgKAEAgKQlUVSksREqJ2fT3CQw/hu++wciUWLICPDwoLoddjwwZ8+ikee0zt4tTndIFFTm3MGBw8iL17YXkAMn48jEbs2IEpU1StrKeor8dvfoMPPwQAX19UVaF3b7zxBubPV7syp+Ast4QkB94V2pu3N5KScOEC/vlPfPQR9uxBYSHTyoK3XdQVDCzHCA7GvfeqXYQz4hUWdQUDi1TFwKKuYGCRqtjpTl3R1ARfXwiBmhp4eQFASwv8/NDUhKoqcNYU2RmvsKgrPDwQEQGTCXl5rS06HSIjIQQ4o5Dsj4FFXcS7QlIPA4u6iIFF6mFgURcxsEg9DCzqIgYWqYeBRV0UHQ2NBseOwWRqbYmKQlAQgoPBJ85kZxzpTl3k54exYxEQgPJyhIYCgLc3ysvVLotcAsdhkRXy83HwIBobMWAAxo2Du7vaBVEPxyss6pYLF7BoEb75Bt7e8PRERQX69sWqVYiLU7sy6snYh0Vd19iIe+/Fvn346itUV6O8HCdP4ic/wdy5+OYbtYujnoy3hNR1SUn4xS+wZQtmzLjc2NyMMWNgMuHoUWg06hVHPRmvsKjrvvoK/ftfkVYA3N3x1FPIyeGeFGQ/DCzqutxcDBnSQbuyiU5uroPLIdfBwKKuq6tDr14dtAcHA0BtrYPLIdfBwKKu69UL58510H72LADuRkH2w8CirhszBseOoampffvhw9BocNttatRELoGBRV23YAEqK/Huu1c0XriADz7AjBmt+6oT2QGHNVC3zJ+Pzz/Hiy/i0Ufh74+MDLzyCkpLsWcPbrlF7eKox2JgUbeYTFi+HO+8g6IiAPDwwIwZ+MtfmFZkVwwssoIQOH8ejY0IC2td4p3InhhYRCQNdroTkTQYWEQkDQYWEUmDgUVE0mBgEZE0GFhEJA0GFhFJg4FFRNJgYBGRNBhYRCQNBhYRSYOBRUTSYGARkTQYWEQkDQYWEUmDgUVE0mBgEZE0GFhEJA0GFhFJg4FFRNJgYBGRNBhYRCQNBhYRSYOBRUTSYGARkTQYWEQkDQYWEUmDgUVE0mBgEZE0GFhEJA0GFhFJg4FFRNJgYBGRNBhYRCQNBhYRSYOBRUTSYGARkTQYWEQkDQYWEUmDgUVE0mBgEZE0GFhEJA0GFhFJg4FFRNJgYBGRNBhYRCQNBhYRSYOBRUTSYGARkTQYWEQkDQYWEUmDgUVE0mBgEZE0GFhEJA0GFhFJg4FFRNJgYBGRNBhYRCQNBhYRSYOBRUTSYGARkTQYWEQkDQYWEUmDgUVE0mBgEZE0GFhEJA0GFhFJg4FFRNJgYBGRNBhYRCQNBhYRSYOBRUTSYGARkTQYWEQkDQYWEUmDgUVE0mBgEZE0GFhEJA0GFhFJg4FFRNJgYBGRNBhYRCQNBhYRSYOBRUTSYGARkTQYWEQkDQYWEUmDgUVE0mBgEZE0GFhEJA0GFhFJg4FFRNJgYBGRNBhYRCQNBhYRSYOBRUTSYGARkTQYWEQkDQYWEUmDgUVE0mBgEZE0GFhEJA0GFhFJg4FFRNJgYBGRNBhYRCQNBhYRSYOBRUTSYGARkTQYWEQkDQYWEUmDgUVE0mBgEZE0GFhEJA0GFhFJg4FFRNJgYBGRNP4/AOEViIFWfJgAAAG5elRYdHJka2l0UEtMIHJka2l0IDIwMjIuMDkuMQAAeJx7v2/tPQYg4GWAAEYgFgdiCSBuYGRjSACJMUNoJiZ2BgUgDedip5kZEcozQHwmoIAGiMHCAaGZ2BwgfDYHsAKgDqiAANgCNnaIvUww9Qh9cPVoGuEqoC7mBvqEkYmBiRkox8DCysDKBjKVnYOBg1OBk0uDiZNbgZsng4mHN4GXj4GPn4FPgIOJT5CDiVcog0lIOEFYJINJRFRBVIyBjYlBhDtBhImViZmFlY2Nh1dIWIRbXI4RElRgID6Dv/zA4kWmDiDO+4aQA84qO+xBbOXUjgMTH3fZgdhJoTsO3D+8Ecz2Lj15YPKbtv0gdrHUkgOO9f/B7EMnyg/ELZsGZv+VlDvwX/U2mP3MaPl+GQUXMNtz1SHbDf3LwOwimVV2C4WMDoDY27UX2v96tnUfiL3QRcvhwKdksBrtoyUOKpOSbUHsH5bLHZx6voLVRAtecdj0qBGsRkBqmsPsAx/A7AeROxy+fskGu//9tFQHlU1HwGzNF9wOj2ewgP1of77J/qr0BLC4nuWhfWWzr4DZ7Vdl97dKeILViAEAu9lyCgdMYrQAAAIvelRYdE1PTCByZGtpdCAyMDIyLjA5LjEAAHicfVRbjtswDPzPKXSBCHxL/Nwki6Io1gG6ae/Q/94fJeVNrUWF2iEhySOJ5AxzKvl8v3379bv8feh2OpUC//m5e/nJAHB6Kzkol9cvX7dyfbxcnivX+4/t8V6IC0nsifcz9uVxf3uuYLmWM9duwNQK1c4dlApUGM+xlXYgE3CLbVU49rQFkMtWzlLJiMXiOzUkWwElT9TaDCRChcrS0FdATaBVclXr5YwVVMB1gbT9SKRO5Il0jyBxgWwfeTc0GmdiM18m3hNJVRowWyIjH1jG6Zk5VgYjwXKGSM0QV3FikJTLrqC474kiwQqJ5Z61YSLpGUfrxH11OyZDWEkdpeXtrEqtr5AcSKoWhWdPZPcPCv5BJkdRJRJlye8aj6+AWt6LViLtZHmkNNduK6RFlaxayAJ3MiNcXlGELVKXag7WR5F6h75OqAdyKMkH2U7YYHm5j3y0N+YWxVI2W0ZJMEqEoXHRGISI+jJIwlF1IAwuY4BRAVlViChiTFaas1Ago/zuskImPYE0NA1+uKIQ0ury1+32qZn39r7ct9vR3vnS0cQxKXy0KobJ0ZAYpkfbYZgdvYVh7WggDOtHl2CYH62AabPgKR3iJGwcKzQJWNIhT0KVdCiTIHE4nZSHw9mkMBorbVLSvtInxcg4xydp5DSYnzQg6QgnsjEd0cRqToOzib0szDGXPAWnPJO1maOcP/++Y3z6A0aqIRUMXz7vAAABJnpUWHRTTUlMRVMgcmRraXQgMjAyMi4wOS4xAAB4nB2QOW4DMQxFr5JyDMgEF3GDkWp6u8gR5ho+fD5HnR7Iv/A833Liyfk+j9/P45LrOv6O92M+878u+Zw/3+NpVMFmS6ms2NcLxJQtl9C2CgHZpKHmi0lTNBLIKYO3AtlO6UFB2u65nkLsm/ueEi21Qd3BeatXStxIMnoMlXay7UGQH0Mh41AQhk2IYIqJ29nlHjNGjGFmqrsWJBI+sBRSb8xj09w1a72UAlFvsWpktvVCCN1uSM+O10BOql42UzvbC/JBMX3vQrITQ5uiOWpIFVfNGu6A+kytkhyj7ZVoI+QW0eMvOPHGhTkFDsjIKmiOC8ByLoCw2YZzymTtvlFIOCoZyVakeHz/AT/fX0YmEvcXAAAAAElFTkSuQmCC;clipPath=inset(28% 1.67% 27.33% 2%);" vertex="1" parent="1">
          <mxGeometry x="296" y="245" width="258.81" height="120" as="geometry" />
        </mxCell>
        <mxCell id="yoPPsw2FuR2WmIkUcgj8-6" value="&lt;font style=&quot;font-size: 20px;&quot;&gt;Sulpiride&lt;/font&gt;" style="text;html=1;strokeColor=none;fillColor=none;align=center;verticalAlign=middle;whiteSpace=wrap;rounded=0;fontColor=#000000;" vertex="1" parent="1">
          <mxGeometry x="395.4" y="370" width="60" height="30" as="geometry" />
        </mxCell>
        <mxCell id="yoPPsw2FuR2WmIkUcgj8-7" value="" style="rounded=1;whiteSpace=wrap;html=1;arcSize=6;fillColor=#FAFAFA;strokeColor=#3C6FC7;strokeWidth=2;" vertex="1" parent="1">
          <mxGeometry x="580" y="240" width="270" height="130" as="geometry" />
        </mxCell>
        <mxCell id="yoPPsw2FuR2WmIkUcgj8-9" value="&lt;font style=&quot;font-size: 20px;&quot;&gt;&lt;i&gt;d = &lt;/i&gt;0.68&lt;/font&gt;" style="text;html=1;strokeColor=none;fillColor=none;align=center;verticalAlign=middle;whiteSpace=wrap;rounded=0;fontColor=#000000;" vertex="1" parent="1">
          <mxGeometry x="93.49000000000001" y="370" width="85" height="30" as="geometry" />
        </mxCell>
        <mxCell id="yoPPsw2FuR2WmIkUcgj8-12" value="&lt;font style=&quot;font-size: 20px;&quot;&gt;&lt;i&gt;d = &lt;/i&gt;0.72&lt;/font&gt;" style="text;html=1;strokeColor=none;fillColor=none;align=center;verticalAlign=middle;whiteSpace=wrap;rounded=0;fontColor=#000000;" vertex="1" parent="1">
          <mxGeometry x="672.5" y="370" width="85" height="30" as="geometry" />
        </mxCell>
        <mxCell id="yoPPsw2FuR2WmIkUcgj8-14" value="" style="shape=image;verticalLabelPosition=bottom;labelBackgroundColor=default;verticalAlign=top;aspect=fixed;imageAspect=0;image=data:image/png,iVBORw0KGgoAAAANSUhEUgAAAZAAAAGQCAIAAAAP3aGbAAAABmJLR0QA/wD/AP+gvaeTAAAgAElEQVR4nO3deVxU9f4/8PcMCMMqi/uGYiqiue+oN9dcyNxwDbNu6a1bZLfbD73VJet7b9x7u4XdtChTwR3MEreMksrcchBUxAVRURBkkX0ZYOb9++PggIAkw8yc+cDr+eCP/DBz5q3Jy3M+q4KZCQBABEq5CwAAeFQILAAQBgILAISBwAIAYSCwAEAYCCwAEAYCCwCEgcACAGEgsABAGAgsABAGAgsAhIHAAgBhILAAQBgILAAQBgILAISBwAIAYSCwAEAYCCwAEAYCCwCEgcACAGEgsABAGAgsABAGAgsAhIHAAgBhILAAQBgILAAQBgILAISBwAIAYSCwAEAYCCwAEAYCCwCEgcACAGEgsABAGAgsABAGAgsAhIHAAgBhILAAQBgILAAQBgILAISBwAIAYSCwAEAYCCwAEAYCCwCEgcACAGEgsABAGAgsABAGAgsAhIHAAgBhILAAQBgILAAQBgILAISBwAIAYSCwAEAYCCwAEAYCCwCEgcACAGEgsABAGAgsABAGAgsAhIHAAgBhILAAQBgILAAQBgILAISBwAIAYSCwAEAYCCwAEAYCCwCEgcACAGEgsABAGAgsABAGAgsAhIHAAgBhILAAQBgILAAQBgILAISBwAIAYSCwAEAYCCwAEAYCCwCEgcACAGEgsABAGAgsABAGAgsAhIHAAgBhILAAQBgILAAQBgILAISBwAIAYSCwAEAYCCwAEAYCCwCEgcACAGEgsABAGAgsABAGAgsAhIHAAgBhILAAQBgILAAQBgILAISBwAIAYSCwAEAYCCwAEAYCCwCEgcACAGEgsABAGAgsABAGAgsAhIHAAgBhILAAQBgILAAQBgJLZnFxcTqdTu4qAMSAwJLTnTt3hg8f3q1bt9dee+3XX3+VuxwAS6dgZrlraLl+/fXXZcuW3bhxQ/pl3759lyxZsnjx4p49e8pbGIBlQmDJ7+LFi1u3bg0LC8vIyJBavL29ly1b9uyzz3bo0EHe2gAsCgLLUuh0uhMnTmzdunXXrl0FBQVEpFQqR48evWzZskWLFjk7O8tdIID8EFgWp6ysLDo6OjIy8uuvvy4pKSEiW1vbKVOm+Pn5zZ8/397eXu4CAWSDwJIHM69atWrKlClPPvlkq1at6n1NXl5eVFRUZGTkd999V1lZSUStW7eeNWuWn5/f9OnTra2tzVsygPwQWPI4derU6NGjicjV1dXX13fZsmUTJ05UKusftL1z505kZGRkZOSJEyek/1/u7u7z5s3z9/f38fFRKBRmLR1APggsedy9e3fLli07duw4f/681NKtW7dFixYtWbJk4MCBD3tXSkrKrl27Nm/efOXKFanFw8Nj0aJFy5cv9/LyMkfdALJCYMksMTExIiJi+/bt165dk1q8vb39/PyWLl3aq1evh71LGljcunXrnTt3ar7r2Wef7dGjhznqBpADAstSxMbGhoeHR0REPPrkBmlgMTIycseOHdnZ2XR/YNHPz2/JkiVt27Y1X/UAZoHAsixarfbkyZM1JzdYWVmNGjWq4ckNGo3m+++/j4yM3Lt3b3FxMdUYWJw7d66jo6NZfw8AJoPAslDS5IatW7fu27evvLyciFQq1eTJkxue3FBSUnLw4MHw8PAjR45UVFQQkZ2dna+vr7+//7Rp0x42HAkgCgSWpas7ucHFxeWpp55qeHLD3bt3IyIiduzYcerUKanF2dm5e/fuQUFBc+fONV/1AEaFwBJGWlranj17IiMjjx8/LrV06tRp/vz5fn5+DUxuuHXr1jfffBMWFhYXF0dE1tbW0dHRTzzxhNnKBjAiBJZ4bt68uXv37k2bNl29elVq6d69+8KFC5977rk+ffo87F0REREvv/xyTk7O2rVr//73v5urWABjQmAJTJrcEB4enp6eLrVIA4v+/v6dOnWq+/qPP/74L3/5y8qVKz///HPzVgpgHAgs4TUwuWHp0qVt2rTRvzImJmbixIkjR47Ud2wBiAWB1XyUlZUdOnRo+/bthw4dKisrIyJbW9vjx48PHTpUekFeXp6bm5tKpSosLLSyspK1WABDCB5YJ07Qd9/RmjVkZ1fdmJFBGzbQwoXUr19149mzdOAApaaSrS0NHEh+ftS6tfnrNY/8/Px9+/ZFRkbGxsampKTUnM3QvXv3lJSUxMTEvn37ylghgGEE3yL55El6/30qKXmgMSOD3n+fEhOrfqnV0ksv0bBhtHMn5eXR9eu0ahX17Ek//WT2cs2kdevWy5Yt279//7Vr12rNvRo0aBARxcfHy1QaQJMIHliP4j//oc8/p3XrKDGRIiLo4EFKTqYePWjOHLrfV91c1Z1fKgXWuXPn5CgHoKmae2CVl9OHH9JTT9Grr5J+plL79rR9OxUU0Pr1shYnA2krCNxhgaCae2DFxVFODs2cWbu9d2/q04d+/FGOmuQk3WFJk0gBhNMsdq2cO5dqrlApKqr+79u3iYg8POp5l4cH3d+LquXo3r27q6trZmZmenp6x44d5S4HoHGaRWANHkwqVfUvMzPpt9+q/ls6o7TeBXc2NtTyTjBVKBQDBgz4+eef4+PjEVggnGYRWO+8Q+7u1b+Mj6fNm6v+W9pJ6tatet6VkkIt8id20KBBUmBNnz5d7loAGqe592ENGUJ2dnTiRO327Gy6dInGjpWjJplJ/e4YKAQRNffAcnSk5cspPPyBzNLpaNUqYqaXXpKvMtlgKhaIq1k8EjYsOJhiY2niRPL3p8GDqaiIIiPp7FnasIFa5Gzvfv362djYJCUlFRUVYTNSEIvggdWjB02bRjY2DzQ6O9O0adX9U87O9PPP9OWXtG8f/fwz2drSkCG0fj2NGGH+ei2BjY3N1HHjWhUVFVy65Dh8uNzlADSC4GsJm6KwkJyc5C5CJsuXU1gYbdjQMh+KQVzNvQ+rXmVlNHs29ehBxcVylyIT6ehD9LuDaFpkYKlUlJ1NOTm0Y4fcpchk0CAiIvS7g2haZGAR0csvE1ELXEtYZfBgUijowgXSauUuBaARWmpgzZ9P7dvTuXP1TNFqCVxcqFs3KimhpCS5SwFohJYaWDY29MILREQbNshdikzwVAgCaqmBRUQrV5K1NUVG0t27cpciBymw0O8OQmnBgdW1K/n6Unk5bdokdylykAYKcYcFQmnBgUX3u94//7wl9j1LgXX2rNx1ADRCyw6syZOpTx+6dYsOHpS7FLPr0YNcXCgzkzIy5C7FOBITE4cMGdKmTZupU6devHhR7nLAJFp2YCkU9Kc/EbXI+Q0KBQ0YQNRMngovXLgwaNCguLi4nJyc6Ojo/v37Dxs2bN26dRnNJY5B0rIDi4iWLycHB4qOpvvHvrcgzWWg8Mcffxw/fnxFRYWjo+Pq1avHjx/v5OQUGxu7atWqLl26jB079osvvigoKJC7TDAGhhdfZCJ+/XW56zC7r75iIl60SO46mmTTpk3SUWZz584tKCiQGktLS6Oiovz8/GzuL4xXqVS+vr5hYWHFxcXyFgxNgcBijo9nInZx4aIiuUsxr9hYJmIvL7nrMJBOpwsKCpLyKCAgQKvV1n1Nbm5uWFiYr6+v9f1tsl1cXPz9/aOioioqKsxfMzQRAouZmceMYSLeuFHuOsxLo2EbG1YqubBQ7lIaraysbMmSJURkbW29YcOG3319ampqSEiIj4+P/tmiU6dOAQEBx44d0+l0ZigYjAKBxczM27ZpbGwOCP5wZIhZs9jPj9PT5a6jcbKzs8eNG0dETk5OBw8ebNR7b9y4ERwc3Lt3b31yde/ePTAw8PLlyyaqFowIgcXMzBrNAG9vIjp58qTcpcDvuHr1aq9evYioS5cucXFxNb+Vlpbm6+ubkpLyKNdJSEgIDAyseXSQt7d3cHBwWlqaaQoHI0BgVVmzZg0RPfPMM3IXYkaXLvGzz3K3buzkxJ0788KFHBsrd02/48cff3RxcSGiESNGZGRk1PzWuXPnunbtSkSzZ89+9Atqtdpjx44FBAS0adNGii2lUunj4xMSEpKVlWXs8qGpEFhVUlJSrKysbGxs7t69K3ctZvHLL+zgwH368Lp1/PXXvH49DxjANjb87bdyV/ZQmzZtkkb95s6dW2uw78iRI61btyai0aNHZ2ZmGnDxsrKyqKgof39/BwcHKblsbW2lgcWiljYaY8EQWNWefvppIvrggw/kLsT0ysu5WzceOPCB7vbSUvbxYTc3zs+Xr7L6NTwg+OWXX0ozG/z8/EpKSpr4WXl5ebUGFu3t7f38/KKiosrLy5t4cWgiBFa1I0eOEFG3bt0qKyvlrsXEoqKYiPfurd3+yy8WOFpac0Bw/fr1Nb9VK8iMO96XnZ0dGhrq4+OjUCikj3B3d1+xYgUGFmWEwKqm0+n69OlDRPv27ZO7FhN75x0m4hs3arcXF7NCwStXylDSQzQwIFhUVCTdFNvY2ISFhZmuhps3bwYHB3t5eem757t167ZixYo9e/aY7kOhXgisB3z00UdE9OSTT8pdiIm9/DIrFFzvA06bNjx3rtkLql9SUtLDBgTv3LkzbNgwInJ1dY2JiTFPPbGxsW+88UaXLl1qTubKzs42z6cDI7Bqyc3NdXBwUCgUV65ckbsWU3r9dSbie/dqt+t0bGvLljFU2sCA4IULFzw8PIjI09Pz0qVLZi5MGlgcM2aM9Kg4Y8YMMxfQkrX4xc8PcnFxWbx4MTOHhobKXYsp9exJRHTzZu32tDTSaKq++8QTtHIl/foryXFy5ZYtW6ZPn56Xlzd37tyYmJj27dvrvxUdHT127NiUlJTRo0efPHmy5pOaeSiVyrFjxx4/fnz58uVElJCQYOYCWjS5E9PixMXFEZGLi0tzHsxOSmKlktesqd3+4YdMxKdPc0ICE1V99erFf/87m2siuDkHBJvo6NGjRNSrVy95y2hREFj1GD16NBFttLDBMiNbvpxtbHjHjuqWgwfZ0ZGfeqrqlwkJHBTE3btXJ5e3NwcF8fXrpivq0QcE613qbGYajcbGxkapVBYKuBhTUAisemzdupWIBg0aJHchplRSwgsXMhF7ePCkSfzYY0zEM2ZwXt4DL9Nq+dgxDgjgNm2qYkupZB8fDglhg+ZnNqDhAcHZs2eT6QcEG5aYmLh58+bU1FR9y6BBg4joxIkTcpXU0iCw6qHRaKROk+a/tDAujj/6iAMD+d//5lOnGnplWRlHRbG/Pzs4VCWXrS37+nJYmFE2e0hKSpIWJHfu3LnugODw4cPJvAOC9Zo3bx4RhYeH61ukbqxH2S4CjAKBVT9paeHEiRPlLsTy5Ofzli385JNsZVWVXE5OWa+9dvjwYYN3mPr111+lpXwjRoxIf3DrCHkHBGt57733iOiNN97Qt3z88cdEtNKSZq41bwis+u3atUuhUDg7O8tdiAXLyeHQUPbxYYXimz/8gYjc3Nz8/f2jo6MbNRF88+bN0grBOXPm1Foh+P3330srBEeNGmUJazyjoqKIaNKkSfqWmJgYIho5cqSMVbUoCKx6FBQUSFPeR40aJXctIkhO3vif/3h7e+uHnnv06PG3v/0tISGh4fcJNCAouXXrFhG5u7vrW3JzcxUKhZ2dXfNfzmUZEFj1WLp0KRENGDDAQn5ORJGQkBAUFOTp6alPLm9v76CgoGvXrtV9cVlZmfTnbGVlZfkDgnrSo+utW7f0LdITa2JiooxV/Y7UVP6//+P583nGDF6xgvfvZ2HXQiKwagsJCZEGqrAFpcHUanVAQEC7du30yTV06NCQkBD9hPWaA4IHDhyo+d7S0tKFCxdKA4JbtmyRo/yGTJo0iYiioqL0LdJ6xh01J4hYlP372d6eO3bk55/nVav4iSeYiGfOZDH/MUZgPeD06dM2NjYKhQLrWpuuvLx8//79ixcv1u8w1apVq5kzZ/73v/+VVgjWHRBMT0/XDwgePXpUrsob8MYbbxDRe++9p2+RbgYDAwNlrOqhUlLY0ZEnTXrggJWICFYqucbQgUAQWNVycnK6d+9eaxgImq6kpKTmoVtWVlYKhWL48OENDAha7BNWeHg4Ec2bN0/fsnfvXrLYBfOBgWxlxXX3jF6yhB0cRDx8BIFVRavVTp8+Xepo12g0cpfTPGVnZ69fv17qSr99+3bNb1nagODDnD9/noh69uypb7l+/ToRtWvXTsaqHmr0aO7Tp572sDAmYou8h20YAquKNMWmbdu2NecxgylIK59++OEHfUtubq60McOiRYtKS0tlrO13VVRUqFQqhUKRd39JgE6nc3V1JaI7d+7IW1s9unXjqVPraY+JYSLeutXsBTUVdmsgIoqJiVm7dq1Sqdy6dWvnzp3lLqeZk5azxMfH61tcXFy2bdv29ttv79ixQ6VSyVfa77O2tu7Xrx/fv9UiIoVCMWDAAHrwd2QpFArSautpl3bguL+TqkAQWJSRkbF06VKtVhsUFPTkk0/KXU7zN3DgQCI6d+5czcaZM2e+//77ChF+hOoGbt0WS9G5M92+XU/7rVtERDV2IhRFSw+sysrKBQsWpKenT5o06a233pK7nBbBcn+8H03dwK03gi3CH/5A165VxVNNP/xAjo40bJgcNTVJSw+sNWvWHDt2rEuXLjt37rSyspK7nBZhwIABVlZWly5dKisrk7sWQ4h0h7VyJdnZ0cqVVPOP+sAB2rmTXnqJ7k83EYiC5dhP0kIcOFC5Zs2frlwJ/+mnn8aMGSN3OS2It7f3pUuXYmNjhwwZInctjVZQUODi4mJjY1NYWCiNeJaXlzs5OVVWVubn5zs6Ospd4IP27qWlS6lDB3rqKXJzo7Nn6eBBmjKFvvmG7OzkLq7RWu4d1vXr5O9vffXqxg0bTiCtzMxyb0kegbOzs6enp0ajuXz5stRiY2PTt29fnU5nQdsla7WUl0dENHcuXbxICxfSlStVT4I7d9KhQyKmFbXYwCorowULKC+Ppk+nP/5RvCd50Vlup8+jkQK3Zv0WF8E//EAdOtAbbxAReXpScDAdOUK//ko7dtCCBaQU9Qdf1LqbKCCAYmPpsccoLEzEsV3hWdyPdyMJ0O++cydpNOTqWt2SlVX/FAehtMTA2rmTvvySVCqKiKDWreWupkUaPHgwEcXHxwvahWrp/e5lZfTtt0RECxdWN770EnXuTDExchVlFC0usBIS6MUXiYg2bKDBg+WupqVq165dx44dCwoKbty4IXcthpDiSTpgSTJ48GCFQnH+/HmtJdzFREVRfj6NGkW9elW1FBTQoUOUlUW9e8taWVO1rMAqKqIFC6i4mP74R3ruObmradmkZyhLuSVppK5du7Zp0yYnJyc1NVVqcXFx6datW0lJSVJSkry1ERHt3ElEtHhxdcuePVRaShMnkuALOVpWYL30El26RI8/Tp98IncpLV7dfmux1A1cS3kqzMujw4fJyooWLKhurBthYmpBgfW//9G2beTkRBERZG8vdzUtntB3WPTwbiz5I3jPHtJoaNIk6tChqiUjg2JiyNaW5s6VtTIjaCmB9dtv9OabpFDQpk1k9rPNoR6Wcj9iqIcNFMr/O6p7M7VrF2m1NHMmubjIVZSxtIjAys2lRYtIo6HXX6f58+WuBoiIqHfv3o6Ojrdu3crOzpa7FkPUDVwpsM6ePStbTUSUnk4//0wqFc2ZU90oRdiSJXIVZUTNP7CY6bnn6MYNGjmSPvhA7mrgPqVS2b9/fyLS79Milr59+6pUquTk5IKCAqmlR48eLi4umZmZGRkZspW1cydpteTrWz1hJzmZzpwhZ2eaMUO2qoyn+QfWgQO0bx+1aUN79pCNjdzVQA1CPxVa6MZYdW+mtm0jZpo3T9C1OLU0/8B66in66ivavl3EzX+aOYubHd5IljZ9tLwwqbxzK+rQnqZPr26NiCBqDuODEmu5CzCO5GTas4f69SNf3+rGGzcoIoL8/en55+WrDB5O6DsssrwFOtmF29PfOdnW5YVu+l1bY2MpMZHataMJE2QpyeiayR3WpUu0ejUtWEDXr1c3JiXR6tX1b7gIlkDaGCsxMREbYxlFbu4uInJtt0jfUpT1vW5kf1q8mKybya1JMwksiaMjvfKK3EXAI7O3t+/Vq1dlZWViYqLctRhi4MCBCoXiwoULFRUVUkv//v1tbGyuXr1aVFRk5mKKi8+UlV1p1aqjo+MT99t01zutj1ufUPJ+cxgflDSrwHr7bTp8mCIj5a4DHpnQT4XOzs6PPfaYp6dnZmam1GJjY+Pl5SXLxli5uTuJyM1tkUJRtXFuYeHPFRVptrY97Z2Gm7kY0zHhjeKRI0f8/f3btWunUqlatWol7cRob29va2tLRM7OztKBmtL5TjY2NtL5wG3bTq+sHEBEzs5kZUUKRdVkt1atSNrK0c6OpCd0J6eq+1z9FhpTptCsWRQQQFOnYhsGMQwcOHDXrl3i9rsnJiZaP/i0NWjQoPPnz8fHx48aNcqMheju3YsgIlfX6s71e/ekCFtC1Hx2UDJhYM2aNau8vDwrK6tR7/Lx6Xj8+IBGveXzz6tXdH70EfXvT++8g9WCYrCU5SyGsq7TN9S+fXsi+uSTT7y8vMaPH680y1Z5hYUx0s2Ug0PVbpTM5Xl5e4nIzW1Rg28VjKkC6/Dhw+Xl5Uql8qeffrK3ty8vLy8uLiaikpISjUZDRPn5+TqdTqfT5efnE5FGoykpKSEilWpAv35ERPn5pNORTkf5+URE5eVUXExEVFJCGg0RUUEBabXE/MDsqp49afVqev99Wr7cRL8zMCZpT/e4uDhmFuKMr4Z9//33n3/+uZOT06VLlyZMmNC5c+d58+b5+fmNHTvWpJ97/2bqGf3NVH7+ocrKHHv7ISqVt0k/2txMdEDrX//6VyJaunSpia5fy/79TMSJiczMZWXcuzePGcPffcdEfOqUeUoAA3Xo0IGIrl+/LnchTbVx40bpTIpp06atWbOmZ8+e+p8yLy+vtWvXJiUlmeJzdTpNfLybWk2lpRf1jcnJC9Rqysj4jyk+UUYmCSytVtulSxciOnnypCmuX1fNwGLmw4eZiF98EYElgGnTphHR3r175S7EcDqdLigoSMqmgIAArVYrtSckJAQGBnbs2FGfXN7e3sHBwcY91D43d69aTYmJQ/UtlZUFZ8/aq9VKjea2ET/IEpgksGJiYojI09NTp9OZ4vp11QosZp43j62sEFgCWL16NREFBQXJXYiBSktLFy1aRETW1taff/553Rdotdpjx44FBAS4u7tLsaVUKn18fEJCQrKysppeQHKyn1pNGRkf6luys8PUarpy5YmmX9zSmKRHcOfOnUS0ZMkSGXslPv64eaydav4sZVcWg2RkZIwfP37Xrl2urq7ff//9ypUr675GqVSOHTt23bp1qampe/bsmTNnjo2NzfHjx1etWtW1a9d58+Z9/fXXGo2BU2e12sL8/ANESlfX6u3b73dpNZPlOA8wegSWl5dL/5IkJCQY/eIPc/IkT57MKSkPNH7xBU+ezJcuma0KMMSlS5eIyMPDQ+5CGi0hIcHDw4OIPD09E2ve3v+evLy8sLAwX19faZDR1tb63LmeN2745+VF6XTljapBqy3Nzg5PTV2tb6moyIyNtY6NbVVRkd2oSwnB+Cc/R0VFPf3004MHD5Z5YyCi27epSxec4mXpdDqds7NzcXFxdna2/qHJ8v3www/z58/Pz88fNWrUvn372rVrZ8BF0tPTd+/eXVp6aurU3VJLq1YdXF0XurktdnAYaVhhmZmf3r79qovLrJ499xl2BYtm9AhcuHAhEf373/82+pUb5amnmIjPnJG3CpP4+mv+8MPajXFx/M47nC3mv6kjR44koqNHj9ZsjIuL27lzZ3FxsVxVNUA/IDh//vySkpKmX1CjuZmeHpyQ4KVWk/R1/ny3W7cCiovjGn6jTldZVnatsPCX0tJEZi0zazS30tP/mZ//XdOrskBGDqyioiIHBweFQnHz5k3jXrmx/vxnJmJhe3Ib4u/PnTvXbtyyhYn4yhU5Cmoyqevno48+qtn4/PPPE5GdnZ2fn19UVFR5eeOelUzkYQOCxlJSkpCWFnThQg99ciUkeKelBZWVJdd9cVHRqYQEb/0rz53rUFraiCdTERm5033v3r3FxcXjx4+Xnu1lJO0zc+CAvFXAI6l3V5axY8eOGTOmrKwsMjJy1qxZnTt3fuWVV44fP87ynb1aVla2ZMmStWvXWltbf/bZZ+vWrTP6RHY7u36dOr3bv/+1Pn2OtWsXYG3dtqwsMT19bUJCrytXxmZmrqusrFo6otOVJSfPUyiUXl6/DR5c2L9/cseO79jaehq3Hotj3PybPn06EdU7uGtmZWXs5MQKBd9ubjNRmuEd1okTJ4ho4MCBdb9169atkJAQaUK8pGvXrgEBAWq12sxFpqenDx8+nIhcXV1rPb2ajk5Xlpv7bXLygrNn7aTbqNhYm2vXZhUXxxYXn1GrKTs73DyVWAhjBlZmZmarVq1atWqVbRldKbNnMxGHhspdh7E1v8AqKipSKpWtWrUqKyt72GsSEhKCgoJqTh/39vYOCgoy0fTxup/evXt3IurRo0ejBgSNRastuXcvIinJNza2lVpNRUWnpcC6desV8xcjI2MG1qeffkpETz31lBGv2RQbNzIRW0w5RuPvz7a2PGnSA1/e3gIHVkpKiouLi7u7e+/evYOCghpepqNWqwMCAqQ1xpKhQ4eGhIRkZGSYqLzo6OjWrVsT0ahRo+7evWuiT3lEFRV3s7K+YmZmbWLiULWarlyZkJOzTastlbcw8zBmYPn4+BDRjh07jHjNprh7l5VKtrNjixxoMpy/Pzs5cWDgA18zZ4oaWGfOnJEWr9jdn+mrVConTJiwcePGe/fuPexdlZWV0dHR/v7+Tk5O0rusrKx8fHxCQ0MLCgqMWJ7RBwSNqLIyNy3t7fPnPdRqiotzzciQeWjeDIwWWCkpKQqFwsHBobCw0FjXbLrhw/NthskAABgBSURBVJmIDxyQuw6jak6PhN988429vT0RTZo0KSMjIyoqyt/fX9oZjYhsbW19fX3DwsIa+EtVWloaFRXl5+dnc3/XDpVK5evrGxERodFomlKbqQcEjUdbWPjL5cs+ajXl5n7NzMnJC9PT/6nR3JC7MOMzWmD985//JDNuz/CI1q5lIv7Tn+Suw6iaTWCFhIRIo2zPPfdczVkLxcXFERERvr6+0q0NPdrkhnv37knTx62sqrbcdHFx8ff3j4qKqqioaGxtNVcIfvbZZwb+Ds1Iqy0+e9b+xo3lpaWJ+okOiYlD794NKS831cOy+RktsB5//HEiOnjwoLEuaBSxsUzEnTqxuVZhm0MzCKzKyso///nPRKRQKBpY9pyTkxMaGurj46NflOrm5rZixYpjx441sK4+NTU1JCRE6qCQdO7cOSAg4NixY49YXlZWlvR2V1fXH3/8sbG/O1nodGVnz6pSUl7S6Srz86Nv3PCPi3O6P7BodfmyT1ZWaGWlMR+WZWGcwLp48SIRtWnTxkJm9+npdNylCxNx3O9MGBaJ6IFVWFjo6+srPfFt3779Ud6SkpISEhIyePDgWpMbYmNjG3hXYmJiUFBQr1699O/q27dvUFDQlQb/mGQfEHxEJSXxKSkvFxQcLS+/U1qaeP36YrWacnOrd+nRakvz8qKSk/1iY22k5Dp7VpWU5HvvXoRO16SHZRkZJ7CkHUJefvllo1zNuFauZCJ+/3256zCeDz9kf//ajT/8wNOmcWqqHAU1RmpqqpQ77u7uj37LoydNbvD0rJ4eKU1uuHbtWgPvOnny5KuvvlpzYPEf//hHva+Mjo6WDhmwhAHBhhUW/nLp0gj90198vPvduyH1vrKiIicz8/PLl8er1cr7L3a7efPFnJzTltsv9xBGCCydTif9i2TA3z8zkLbKGjlS7jqM5949Tk7moqIHGnNzOTnZ0p984+PjpZ0de/XqdfXqVYOvo99hquaSY2lyQwMpI71rxYoVzs7OP/30U90XfPXVVxY7IKhXUHD09u039ZuLVlYWlJRcKCtLepRtHsrLU+/eDZG659Vqevvt/Z07c0AAW+QPbv2MEFjHjh0jom7dupltu75GKSlhe3tWKjk9Xe5SjOTdd5mI58x5oPEf/2AibnznsvnUHBDMzc01yjX1kxukM5mkyQ2TJ08OCwtrYHJDSUlJrSE/cQYE+fr1JWo1pacHN+UipaUX09Le9vXNJ2Lpq29ffu89buA+NTW1nn8R09JY2jy1ooKvX+e6Y7m3b3NmZlMqrc0IgfXyyy8T0erVq3//pTLx9WUi3rRJ7jqM5N13WalkhYL37atutPDAetiAoLGUlJQYPLlBoAFBrbb47FlHtVpRc8pCamrg3bufVFbmG3DBhAQODOQOHVifXN7eHBzMdfdwHjGCiXjz5gcax47lqVOZmZOTmYi//LL2u7p350WLDKjroZoaWBUVFdJt+blz54xSkCl89VXJuHGX//znZrLq6t132d6eFy1iD4/qB0OLDazKyspXXnnldwcEjUWa3DB58mT9wKKrq6u/v390dHS9901ZWVnSkTZCDAjm5GxXq+ny5XH6loqKnNhYm9hY64oKw3vctFo+doxXrGBn56rYUirZx4dDQqo3LBoxgpVKbtPmgS2MxAusgwcPSoMvRqnGRNLS0hQKhaOjY2lpc1i+IAXWrVtsb89vvlnVaJmBZcCAoLHcvn271uSGLl261JrccP78eSEGBPWSkmaq1ZSZuUHfkpn5mVpNSUkzjHL9khKOjOTZs9nWtiq5VCqeN4+zs3nECH7ySW7Xjv/4x+rXixdYzzzzTANjLpZDGpn67rvmsKuZFFjMHBTE1tYs3dpaYGDVHBD85Zdf5Crj4sWLQUFBjz32WM3JDZMmTfrTn/4kTTEdNWqU6dYhGlG9N1OXL49XqyknZ6txPysvj8PC2NeXra25Y0eurOQRI3j+fA4NZYWCY2KqXiZYYBUXFzs6OioUCss/VO6dd94holdffVXuQoxAH1glJezpyWPGsE5ncYFlrAFBI5JWTUvHIOr169fPYgcEa8nM3KBWU1LSTH2LRnNLrVaePWuv1ZpqPVxaGksDqlJgVVby4MHcrx9L/ZC1AuuFF3jbtge+2ra1pMCSTscZM2aMsaoxndOnT5OYJx3UpQ8s5qrDYsPCqgPr9Gk+dkzm+Q2HDh2S1iQbcUDQWCoqKv73v/95enq2a9duypQpljwgWMvly+PUasrJ2aZvSU//l1pN168bNRIeQgosZj55kpVKDg5mrhNYTk7ctu0DX0qlJQXWrFmziOjTTz81VjWmo9VqpX9aL1y4IHctTVUzsJh59mzu1InfeqsqsGbMYCLu0kW2+TWmHhBsmeq9mUpMHKRWU15elBkK0AcWM7/wAtvbc0qKDI+Ehm/wmpube+TIEWtr6/nz5xt8EbNRKpUzZ84kogPNbtfkkBDKz6cvv6z65dCh5OFBqan0ySc0bhw9/jh98AHdvGmOSrRa7auvvrpq1SpmDgoK2rRpk371MjTRvXs7iHQuLk8rlVUzzsrKLpeUxFtZuTo7P2nmYoKDyd6e3nnHzB9LRGR4YEkzXKZMmVJzxYMlEz2wmOnw4XraPTzorbcoM7Pql++9RzdvklpNAQHUvj0lJNDf/kY9etCwYbRuHWVkmKq8oqKi2bNnf/rpp7a2ttu2bXv33XdN9UktUt2zUe/d20ZEbm4LFAobMxfj7k4ffEDbtlFSkpk/uQmBJXVgLV4szOmyU6dOValUp06dys7OlruWRisvp2efpRkz6JNP6vnuG29Q374PtAwdSuvWUVoaHTtGK1aQkxPFxtKqVdSlC40dS198QQUFxizvzp0748ePP3DggLu7e3R09JIlS4x59Rav/F6ipiTB2tq95s3UvXu7icjVVZ4fwOefp5Ej6e7dRrwlLo4WL6bJk2ntWiovN/SDDXuSTEtLUyqVKpUqP9+Q+bVymTZtGhGFhws2gzQnh594gonY0ZGjori0lOt2ZJeU8MO35+TSUo6KYj8/trGpnl/j68sREdy0Te6YmePj47t27UpEjz32mIUMCDY3b73FHduXhL2jbygqOqFW07lznaSzCM2gZh+W5Px5trZ+1D6ssjLu25f37+dbt3jKlHoO1nxEBgbWv//9byJauHChgR8rk//9739EtGDBArkLaYRr19jLq2pXrwY3U3kkOTkcGsp/+AMrlVXJNW3amhdffDEmJsaw8TL9gODEiRMtbUCwmdDp2NOTifjnn/VtGRf/n1pNt2//1WxVFBTUXm/PzPn5VesHKyv5zh2uOz8kM7P6H1f9368vv+QlSwwsw8DAkiYEfvvttwZ+rExSUlKIyNnZuYmb55rNiRPcti0T8YABfOuWMa98+zb/5z88bFiFu3tb6V67c+fOb7zxRsM7TNVSc0BQlD9S8Rw/zkTctWv1T3xlJbdvrx3cV5MeL2tlBnr55apZEQYwJLAOHz5MRK1bt27gUCaLJe2Mavmrxph5925WqaSbIDbdk7e0y13v3r31vQTdu3cPDAxseJc7M68QbNFeeYWJ+P/9v+oWafadl5d8NRnuwAHu2ZMNPifEkMAaN24cEXmJ+ee1Zs0aInr99dflLqQhOh0HB7NCwUS8YoWZ5q8nJCQEBgZKB9hIvL29g4OD79RZuS/jCsEWp6KC27evvWfus88yEb/3nnxlGSgqir28uCknSRoSWE888YR0h9XwNo+W6fjx40TUs2dPuQt5KI2G/f2ZiK2s+JNPzP3pNXe5k2JLqVT6+PiEhIRkZWUx85kzZ/r27UtEKpVKxhWCLcXhw7VvpkpLuXVrJmKhxjcqK/mtt7h3bz5+nJOTDT+P3ZDA2r59u9Rz0bVr19OnTxv4yTIpKChwcHCwsrJauXJlnOXt9F5rQFBGpaWlkZGRc+bMsbW1lZJLpVINHTpU+l8v3V4ZcBoNNM6yZbV3+I6IEHEL3Rs3ePLk6q8VKwy8joGd7qdPnx40aBARWVtbBxvcgWZ2p06dkjprpH276f6pBBYyGG/cAUFjycvLk+62rK2tpT+01q1bSwubExIS5K6uWav3ZmrOHCbidevkK0tOhq8lrKioCAwMlLZJmzNnTl5enhHLMrqKiorg4GBppUi/fv0iIiICAwNrLtx/WH+N2ZhuQLDppkyZQkRbtmx55pln/vGPfxQWFs6ZM4eItm3b9vtvBoPt3s1EPGpUdUtuLtvaspVV89nwu5Gauh/Wt99+K92t9O7d+/z580apyegSExOHDRsmDWkFBAToBzcf1l8TGhpq5gmxu3fvHjNmrbW1aQcEDfbmm28S0dq1a/Ut0sqbN/X7B4IpzJ7NRA90ZH75JRNVTdZskYywp/vVq1cHDhwo9XF8WXeuq6x0Ol1oaKh09oGHh0eMfuexB0nHnfv7+0uvpBqHpBcXF5u6wnfffVe6UX3vvaOVlSb9NANt27aNiObOnatv+fbbb4loypQpMlbVzN27V3UzVXNzwYkT69lZvSUxzrmEpaWlK1askH7U/f39Tf1D/ohSUlImTpyor6qBY1T0cnNzpePOa/bXGHzc+e/SaDTLli0jIisrq0/MPyL4yC5cuEBEnp6e+pabN28SUdu2bWWsqplLSuLp03lGjb2P79xhKytWqdiyu19MymhH1TNzWFiYdIcyePBg2Wc8REREuLm5EVG7du0MmJGflpYm7QiuP8vA3d39dw9Jb5ScnBxpgoijo2OUvCOCv6eystLOzk6hUNRcfCP98aalpclYWPNXc73Uf//LRLVX9LUwxgwsZk5MTPT29paWv0RGRhr34o8oMzNz7ty5UsrMmDGjif3oN2/eDA4O7tOnj7573sPDIzAw8NKlS0257LVr17y8vIioU6dOjVoNIxepE/DnGsvZJkyYQEQHDx6UsaqWJTyc+/fnr7+Wuw45GTmwmLmgoGDBggX6Hm4z7zn53XffderUSUrM0NBQI15ZOiRdOmRFP7AYFBRkwH72J06caNu2LRENGDDglqWNCD7ECy+8QETraoymv/766yTC+SPiKSnhf/2Lhw9nd3du147HjeONG6tvtSzyuGKzMX5gSUJDQ6UjLceNG2eep4bi4uKAgADpCc7Hx8dEz6T6Q9LbtGlTayJ45qMdcRsREaFSqYho2rRpAm3OI2108fzzz+tbtmzZQqJtfSGAkhIeM4ZVKn71Vd61i8PDefFiVih48eIWHlUSUwUWM585c0a6H2nbtu2RI0dM90HMfOLEiV69ekkjlcHBwWY4WaCsrEwaWHRwcKg1sFhY98RuZmbW6XTBwcFSpK5YsUKsaeLHjh0joiFDhuhb4uPjpeksMlbVDL31FiuVHB39QOO6dUzEou3jZgomDCxmzsrKkvbMUygUgYGBpsiR8vLyoKAg6YC5xx9/PD7e3BtuFBcXR0RE+Pr66vcvt7Oz8/Pzi4qKqvk4XHNAcJ2A05QLCgqUSqWtra3+N1VeXm5ra6tUKh8W0NBoOh23a8e+vvW09+zJY8fKUZNlMW1g8f3bCilQJk6caNwTKxMSEqSduaytrQMDA+XdkiknJyc0NLTmwKKbm5u/v/+GDRuysrJEGRBsgHQW6Tnp4FZmvr8t2vHjx2Wsqlm5fp2JuN7tehYuZJUKT4UmDyzJ0aNHpXUwXbp0OXHiRNMvqNVqQ0JCpHW5PXr0sKhtA5KTk99//31ptFQiRViXLl0scLn1o5OORwoLC9O3PPfcc0S0fv16GatqVn77jYn4iy/q+dZf/8pElrgMwrwMP4SiUSZMmKBWq318fFJTU8ePH/+vf/2rKVe7efPmxIkTV61aVV5evmLFivPnz0tbdFkIT0/Pt99+++LFiwkJCUuXLrW2tmbmtm3bnjp1SloxLihpPcO5c+caaIEmkTbGKCys51vSqSEqlVnrsUDmTMea66Vnz55t2BbgYWFh0ibiHTp02L9/v9GLNLqKiooLFy5UWuaim8bYv38/EU2cOFHfEhMTQ0QjRoyQsapmJT+flUoOCKjnW1OncteuZi/I4pg1sCT79u1zdXUlot69e9fsEPldd+/elc6aJiI/P7/s7GzTFQl13b59m4jc3Nz0LYW5uVlDh1Z268bix7GlGDeOu3fnWpuP37nDKhWvXClTTRZEhsBi5ps3bw4fPpwas156z5490tSn1q1bC3dOV7Nxbvr0on79dDUnu3bvzkR88aJ8RTUvP/7ICgUvXcr6sdeMDB43jh0dOTlZ1sosgjyBxcylpaUBAQHS7VLD66Xz8/P1K6unTJly2+DdVaHpJk9mogf2QpW2QMHO7ka0eTM7OrKzM//hD1WTSNu356NH5S7LIpip070ulUq1bt268PBwBweHrVu3SnPT677sxx9/7N+//xdffGFnZxccHPzdd99Je12CPKRBg/j46paBA4mI0O9uRMuXU3Iyffwx+fjQpEm0eTNdu0YTJshdlmWQOzEfWC8dERGhby8tLQ0MDJR2EB8xYsTly5dlLBKqbN3KRDxvXnXLN9+08C3lwJzkDyxmLigoWLhwIREpFIply5YVFRUdOnRowIABdH9GqJlXUMNDXbjARFzzzKEbN5iIsTEWmIWCmeW9xdNbt27dm2++WVFR0apVq4qKCiLq169feHj4kCFD5C4N7qusJCcn0mgoN5datyYiYiZ3d8rNpbQ06tRJ7vqgmZOtD6uu1157LSwszNraWkqrYcOG/fbbb0gry2JtTf37EzOdP1/VolBUdWPV7NgCMA0LCiwiWrx48cWLF//73/9u3rz5zJkz+h3WwYLU7Xev2wJgGtZyF1Bb7969//KXv8hdBTxc3WFBDBSCuVjWHRYIAHdYIB8L6nQHMRQWUuvWZGNDhYUkbQFWXk5OTlRZSfn55Ogod33QnOEOCxrJyYk8PUmjocuXq1psbMjbm3Q6unBB1sqg+UNgQePhqRBkgsCCxkO/O8gEgQWNhzsskAkCCxqv3iXQCgWlpBDGcMCUMEoIBmnThnJyHliOc/MmeXjQ/QM4AEwBgQUGiYsjDw9ycyMiKimhwkJycanakhzAZPBICAYZPJjc3Ojrr2noUHJ0pA4dyMGBxo+nn36SuzJozhBYYKhPP6X588nDg44cofh42ruXdDqaMoW++UbuyqDZwiMhGOTOHfL0pLlzafv26n6r8nJ64gm6do1SUsjOTtb6oHnCHRYYZPdu0mjob397oJfdxobWrKGsLDp8WL7KoDlDYIFB4uPJyoq8vGq3P/541XcBTACBBQbJy6O2bcm6zvZE0iyH3FzzVwQtAQILDOLgQLm59UwTzc4mIuzZACaCwAKDeHmRRkOpqbXbpbPa+vY1f0XQEiCwwCBPP01EtHlz7fZNm0ilounTzV8RtAQILDDIwIHk70//93/02WdUXk5EVFxMQUEUHk6rV1PbtnLXB80T5mGBoTQaeu012riRWrWiDh3ozh1SKmn1avr737GiEEwEgQVNk5FBJ05QTg517EhjxlStLgQwDQQWAAgDfVgAIAwEFgAIA4EFAMJAYAGAMBBYACAMBBYACAOBBQDCQGABgDAQWAAgDAQWAAgDgQUAwkBgAYAwEFgAIAwEFgAIA4EFAMJAYAGAMBBYACAMBBYACAOBBQDCQGABgDAQWAAgDAQWAAgDgQUAwkBgAYAwEFgAIAwEFgAIA4EFAMJAYAGAMBBYACAMBBYACAOBBQDCQGABgDAQWAAgDAQWAAgDgQUAwkBgAYAwEFgAIAwEFgAIA4EFAMJAYAGAMBBYACAMBBYACAOBBQDCQGABgDAQWAAgDAQWAAgDgQUAwkBgAYAwEFgAIAwEFgAIA4EFAMJAYAGAMBBYACAMBBYACAOBBQDCQGABgDAQWAAgDAQWAAgDgQUAwkBgAYAwEFgAIAwEFgAIA4EFAMJAYAGAMBBYACAMBBYACAOBBQDCQGABgDAQWAAgDAQWAAgDgQUAwkBgAYAwEFgAIAwEFgAIA4EFAMJAYAGAMBBYACAMBBYACAOBBQDCQGABgDAQWAAgDAQWAAgDgQUAwkBgAYAwEFgAIAwEFgAIA4EFAMJAYAGAMBBYACAMBBYACAOBBQDCQGABgDAQWAAgDAQWAAgDgQUAwkBgAYAwEFgAIAwEFgAIA4EFAMJAYAGAMBBYACAMBBYACAOBBQDCQGABgDAQWAAgDAQWAAgDgQUAwkBgAYAwEFgAIAwEFgAIA4EFAML4/2YAWDVgBOWzAAABy3pUWHRyZGtpdFBLTCByZGtpdCAyMDIyLjA5LjEAAHice79v7T0GIOBlgABGIJYAYkkgbmDkYEgAiTGygWkmJnYGBSDNDONip5mRlGeA+ExAAQ0Qg4UDQjOxOUD4bA5gBUAdUAEBsAVs7BB7mWDqEfrg6tE0wlUwwCSgdjNxA/3EyMTAxAxUxcDCysDKBjKfnYOBg1OBk0uDiZNbgZsng4mHN4GXj4GPn4FPgIOJT5CDiVcog0lIOEFYJINJRFRBVExBTFyDiY2JQYQ7QYSJlYmZhZWNjYdXSFiEW1yLERJwYCAxW7HswLNkVQcQ54pF4IHjnTPtQew/B1sPqDH9tQax4/dtPRA6wcQWxD649uiBx+Xr94PYE7rmHxBlFzoAYqcIFRw4/n8bWNywRfSA395vYPYpt5n7l7QVg9kP1sTZ3WzYCWavPvjHTk/GGqzXePpa+yLpT/tA7LORhg7HOirAamZYVTlcm7EV7Ia0lFUO2+X/gNXUr77u8LKrFqyGpXSWQ4jKFzD7ePAuh48aOWD3G/ZmOEjn7gWz//3jdVik9RfMTrXpsl9m0ABmszWs3qfzbj+YvaBUZv+NIDtwOMxezXhgtmEcmC0GAIhHdgSO/cQPAAACRXpUWHRNT0wgcmRraXQgMjAyMi4wOS4xAAB4nH1UW24bMQz89yl0AQskxednHAdFUcQGmrR36H/uj5Iy0lUAobsWYWlnqeXMUKdW18/rjz8f7d9F19OpNfjPLyLa7wEAp9dWf9rl5dv3W3t+f7p8rjzff93e3xpxI8l38v6KfXq/v36uYLu38+jO4oCNujgTUYMO8zpepfZcQNKA4IYdIwRtAxzt1s7c0SJyVs/NCDdArozS1YI96jkz+NgApYCaGY0V2hn7MHDWDVILyT1cVLmdqZOj+q4ce5RjgpjlZk6mUN99pheS+hiKMQoZZCq7nFGVFzPGlkjoyRDZriJMkXKZ0Fh07s5BLDtkCQSdY6hKfUfQkNgiS6HkRjSJqt3ZyHXHEo5EUjdDBJ3fmXyOnZZYGo2ekjs9MonwrnSU9takD2KTmbLqodghNVnSbiPplrl5AMOO+HTXvXHPnc15Eg+Wte+QnkhJJBlVGUEkADtgzHq0xPQkiy08tm6HSRGhqxcwzDwdtQHiZB3S7VpAAGTfyZMuu1e5Y3Ao1t4RJf4GWfIkUhHRcpqbD4ctkh/eBNI8F7IwttTeN8iX2/VL2z8Ogsv9dj0OgrrpaPectHE0Nebgo3UxhxwNijn06ELMYUerYQ4/+glzxNE0WGNtDaqAuLQAzhVarM4VcCyW5grIi3VxBlk8ijPo4kWaK7Z47rHii7d45onFRDVNjyxu4QqEiy2wAtGif01T3UVnmoEXPYuqAyGVF5fKS8dVtZp/Hv35//QXjSIsnAoVaHMAAAEyelRYdFNNSUxFUyByZGtpdCAyMDIyLjA5LjEAAHicJZE7jsMwDESvsqUDyIL4ET8wUqlPihzB18jhd6gAKowRZ+aZWs/1vum+7+NzvB7H8/3AuW9a9flai9ZaL1rvv+9xch9s1KSrk0e7ztGNiLxxT5egrYhoYoi6Zqq1i/rwTIcwBilc3JnCEkK6Byakm4hxWTwjS8iRIW3AMqcSpNmF1a2hQJOVIVl3SYuSMocO1GsPNpCdyB4uVr5g9opK5lnl7kDeJh8hXoAyjXaOOofBNYDoOq2CtPpK0hSz2bCFZJkAwCWlq++wSVVz4Rb/AuJCYMf8dUr3ScQ7jIv4OrVnTDRhnIO2ZJ3cdVcKyMo4u3lq1h5UAbuNhG3+VuPOSK18NiysFU7OnxI6A88yQ5nb4/sPnqpjSHOBRIcAAAAASUVORK5CYII=;clipPath=inset(24.67% 2% 24.67% 0%);strokeColor=#3C6FC7;" vertex="1" parent="1">
          <mxGeometry x="594.12" y="242.5" width="241.77" height="125" as="geometry" />
        </mxCell>
        <mxCell id="yoPPsw2FuR2WmIkUcgj8-15" value="" style="rounded=1;whiteSpace=wrap;html=1;arcSize=6;fillColor=#FAFAFA;strokeColor=#3C6FC7;strokeWidth=2;" vertex="1" parent="1">
          <mxGeometry x="290.41" y="410" width="270" height="180" as="geometry" />
        </mxCell>
        <mxCell id="yoPPsw2FuR2WmIkUcgj8-18" value="" style="rounded=1;whiteSpace=wrap;html=1;arcSize=6;fillColor=#FAFAFA;strokeColor=#3C6FC7;strokeWidth=2;" vertex="1" parent="1">
          <mxGeometry x="580.41" y="410" width="270" height="180" as="geometry" />
        </mxCell>
        <mxCell id="yoPPsw2FuR2WmIkUcgj8-20" value="&lt;font style=&quot;font-size: 20px;&quot;&gt;&lt;i&gt;d = 3.00&lt;/i&gt;&lt;/font&gt;" style="text;html=1;strokeColor=none;fillColor=none;align=center;verticalAlign=middle;whiteSpace=wrap;rounded=0;fontColor=#000000;" vertex="1" parent="1">
          <mxGeometry x="672.5" y="588.13" width="85" height="30" as="geometry" />
        </mxCell>
        <mxCell id="yoPPsw2FuR2WmIkUcgj8-21" value="" style="rounded=1;whiteSpace=wrap;html=1;arcSize=6;fillColor=#FAFAFA;strokeColor=#3C6FC7;strokeWidth=2;" vertex="1" parent="1">
          <mxGeometry x="0.41" y="410" width="270" height="180" as="geometry" />
        </mxCell>
        <mxCell id="yoPPsw2FuR2WmIkUcgj8-22" value="&lt;font style=&quot;font-size: 20px;&quot;&gt;&lt;i&gt;d = 1.83&lt;/i&gt;&lt;/font&gt;" style="text;html=1;strokeColor=none;fillColor=none;align=center;verticalAlign=middle;whiteSpace=wrap;rounded=0;fontColor=#000000;" vertex="1" parent="1">
          <mxGeometry x="93.49" y="590" width="85" height="30" as="geometry" />
        </mxCell>
        <mxCell id="yoPPsw2FuR2WmIkUcgj8-24" value="&lt;font style=&quot;font-size: 20px;&quot;&gt;&lt;i&gt;d = 2.26&lt;/i&gt;&lt;/font&gt;" style="text;html=1;strokeColor=none;fillColor=none;align=center;verticalAlign=middle;whiteSpace=wrap;rounded=0;fontColor=#000000;" vertex="1" parent="1">
          <mxGeometry x="382.90999999999997" y="590" width="85" height="30" as="geometry" />
        </mxCell>
        <mxCell id="yoPPsw2FuR2WmIkUcgj8-29" value="" style="shape=image;verticalLabelPosition=bottom;labelBackgroundColor=default;verticalAlign=top;aspect=fixed;imageAspect=0;image=data:image/png,iVBORw0KGgoAAAANSUhEUgAAAZAAAAGQCAIAAAAP3aGbAAAABmJLR0QA/wD/AP+gvaeTAAAgAElEQVR4nO3deVwU9f8H8PcuyyGHnCKIoKKAgleeKVmheJAXoWBZ3opHiBYZpFnmTw3MssxUOizxSjwRL8AzTVPQPAATBSUUQeRUBHZhP78/xi/hgsax7Mwsr+fDR49HO7Mz71JefuZzjYQxRgAAYiDluwAAgNpCYAGAaCCwAEA0EFgAIBoILAAQDQQWAIgGAgsARAOBBQCigcACANFAYAGAaCCwAEA0EFgAIBoILAAQDQQWAIgGAgsARAOBBQCigcACANFAYAGAaCCwAEA0EFgAIBoILAAQDQQWAIgGAgsARAOBBQCigcACANFAYAGAaCCwAEA0EFgAIBoILAAQDQQWAIgGAgsARAOBBQCigcACANFAYAGAaCCwAEA0EFgAIBoILAAQDQQWAIgGAgsARAOBBQCigcACANFAYAGAaCCwAEA0EFgAIBoILAAQDQQWAIgGAgsARAOBBQCigcACANFAYAGAaCCwAEA0EFgAIBoILAAQDQQWAIgGAgsARAOBBQCigcACANFAYAGAaCCwAEA0EFgAIBoILAAQDQQWAIgGAgsARAOBBQCigcACANFAYAGAaCCwAEA0EFgAIBoILAAQDQQWAIgGAgsARAOBBQCigcACANFAYAGAaCCwAEA0EFgAIBoILAAQDQQWAIiGjO8CQOsUFVFGBpWWkpUVOTiQRMJ3QaA90MIC9fn9dxo0iCwtqXNn6tWL2rYlOzv65BMqKuK7MtASEsYY3zWAVli/ngICiDHy8qIBA8jYmNLSaMcOysykLl0oLo5atuS7RBA9BBaow59/0oABpK9PUVE0aNC/nxcX09tvU3Q0eXnRoUP81QdaAoEF6uDlRUeO0Dff0Lx5qocePSIXF7p/n86epX79+CgOtAf6sKDBioooLo709Wnq1BqOmpjQ5MlERLt3a7Ys0EIILGiwy5epooI6dyYTk5pPcHcnIrp4UZNFgVZCYEGDPXhARGRj89wTbG3/PQ2gARBY0GBKJRGR9Pl/lnR0iIgqKjRUD2gvBBY0mLk5EVFe3nNPePiQiMjSUkP1gPZCYEGDde5MRJSU9Nw21OXL/54G0AAILGgwW1vq2pUKCujIkRqOMkbbtxMRDRum4bpA+yCwQB3ef5+IKCiIcnNVD333HV28SM7ONHKk5usCLYOJo6AOjJGPD+3bR46O9Omn9PrrZGREqan088/000/UrBkdO0Yvv8x3lSB6CCzhevLkSWlpqYWFBd+F1I5CQSEhtHYtyeXPfN6lC/30E/Xp88yHubm0bBl98QUZGGiyRhA7BJZwRUZGjhs37t133928eTPftdRaVhbFxFBqKhUXU8uW1L8/9e9fw4yHQYPo+HGaOJE2beKjShAr7IclXDdu3CAiOzs7vgupCxsbmjTpv0/7+mtyd6eICOrShT78sPHLAi2BTnfhunnzJhE5OzvzXUgj6NaNNm8mqZSCg+nAAb6rAdFAYAlXSkoKaWtgEdGbb9Jnn5FSSePHU2Ii39WAOCCwhEt7WliZmTRqFP3zj+rnixfTW2/Ro0c0atTT2fAAL4TAEqgHDx7k5eWZmZlZW1vzXUuDhYRQdDSNHk3Fxc98LpHQxo3Uuzfdvk1jxqgOLwJUg8ASKO550MXFhe9C1GHtWnJ1pcuXacKEpyulKzVrRvv2kZ0d/f47BQXxVB+IBgJLoLSqA6t5c9qzh8zMaO9eWrpU9WirVrRzJ+nr09q1tGEDH/WBaCCwBIoLLCcnJ74LURMXF9qxg2QyWrqUfvtN9Wi/fvTjj0REgYF04oTmqwOxQGAJlFY9EnKGDKGwMGKMpk6l+HjVoxMmUFAQKRTk60upqXzUByKAwBIorXokrPTBBzRjBpWUkLc3ZWaqHl25kkaMoNxcGjmSCgv5qA+EDktzhEipVBoZGZWVlRUVFRkbG/NdjlopFDR4MJ06Rf360YkTpK//zNFHj6h/f0pMJC8vio5+ulUpwP+ghSVEd+7cKS0ttbOz07a0IiJdXdq1ixwd6dw58vdXPWpiQvv3k5UVHT5Mn37KR30gaAgsIdLCDqyqrKxozx4yMqKICPr6a9Wj7drRb7+RTEZffEHbtvFRHwgXAkuItLMDq6rKtYQLFtSwlnDQIFq9mhi7/vPP8dW756EJQ2AJkbbNaajRm2/Sp58+XUuYlKR6NCDg98WLXY8ff/PNNzOrd89DU4XAEiItfySs9OmnT9cSjhxZfS1hv8WLPTw87t27N3LkyCdPnvBSIAgNAkuItP+RkFN1LeHbb1N5edWDurq6O3fubN++/aVLlyZPnozhbCAElgCVlJRkZGTo6em1bduW71oaH7eWsFUrOnqUPvhA5aClpeX+/fubN2++c+fOlStX8lIgCAoCS3Bu3rypVCodHR1lsqaxH+z/1hJeunr1J26BThWurq4RERFSqXThwoX79+/npUAQDgSW4DSV58Gq+veP//XXnqdOvRcQ8Pvvv6scHD169NKlS5VK5bvvvnvt2jVeCgSBQGAJTlPpcX9W77fe+uCDD+RyuY+PT2q1tYQLFy4cP378o0ePRo0alZOTw0uFIAQILMFpEnMaavLll1+OGDEiNzd31KhRRUVFVQ9JJJKff/65T58+d+7cGTNmjBxb/TVVCCzBaZotLCKSSqXbtm1zc3NLTk6eOHGi8tmt/gwMDPbt22dnZ3f69OnZs2fzVSTwC4ElOE2xD+t/TExMoqOjraysoqKiPq22ltDW1jYqKsrQ0HDjxo3r16/npULgF3ZrEJa8vDxLS0sTExOVZ6Im5ejRo15eXhUVFVu2bBk/frzK0S1btkyYMEEmk8XExAwcOJCXCoEvaGEJC/fy1Cb4PFiVp6fnV199xRibNm3ahQsXVI6+++67H330UXl5ua+v761bt3ipEPiCwBIWLrCa5vNgVYGBgTNnziwtLfX29r53757K0S+++GLkyJF5eXmjRo0qxFZ/TQkCS1i0512EDfbdd9+9/vrr9+/fHz16tMpaQqlUunXr1s6dO1+/ft3Ly0uhUPBVJGgYAktY0MKqpKuru2vXrvbt21+8eHHmzJkqR01MTPbt29esWbNz586tXbuWlwpB8xBYwtKUhwirs7S03LNnj7Gx8ZYtW3766SeVo+3bt7exsSGi5ORkPqoDHmCUUECUSqWxsXFJSUlhYWHz5s35Lkco9u3bFxERERERobJhdHZ2tr29PRHdvHmzTZs2PFUHGtU0lteKREZGRklJSatWrZBWVXl7e3t7e1f/fPPmzQqF4s0330RaNR14JBQQPA/WyebNm4lo0qRJfBcCmoPAEhD0uNfexYsXr169amlp6eXlxXctoDkILAHBnIba27RpExFNmDBBT0+P71pAcxBYAoJHwlqSy+Xbt28nPA82PQgsAcEjYS0dOHDg4cOHnTt37t69O9+1gEYhsISirKzsn3/+kclkjo6OfNcidNzz4NSpU/kuBDQNgSUUt27dqqiocHR01NXV5bsWQXvw4MHhw4dlMtnbb7/Ndy2gaQgsoUAHVi1t2bJFoVC88cYb3DR3aFIQWEKBwKqliIgIQnd7U4XAEgoEVm389ddfV65csbS0HD58ON+1AA8QWEKBwKoNrrv9nXfe0dfX57sW4AEWPwuFtbV1Tk7O3bt37ezs+K5FoBQKhZ2dXU5OzsWLF3v06MF3OcADtLAEoaCgICcnx8jIqFWrVnzXIlwHDx7Myclxc3NDWjVZCCxBqJwyKpFI+K5FuLjnwSlTpvBdCPAGgSUITfZdhLWXm5t76NAhmUz2zjvv8F0L8AaBJQjocf9PW7Zskcvlw4YNw/Srpgwb+PGvrKwsLi6OiBwcHPiuRbh27pz6yism06dj3VKThlFCPimVyt27d4eEhKSlpVlYWNjZ2Z08edLCwoLvugQnMZG6dCELC8rMJMxnaMrwSMgPpVK5ffv2Tp06+fn5paWldezYUU9P79q1a15eXgUFBXxXJzgbNxIRvf020qqpQ2Dx4OjRo7179x4/fnxKSkrbtm3Dw8MTExMvXLjQoUOHCxcuDBw4MDc3l+8aBaS8nLZvJyLCahwgBhp0+vTpV199lfs/b29vHx4erlAoKo/ev3/f1dWViLp3756Tk8NjnYISFcWImKsr33WAACCwNOTcuXODBg3ioqpFixahoaElJSXVT8vKynJzcyOiTp06ZWZmar5OAfLxYURs5Uq+6wABQKd7o0tMTFy6dOmuXbsYYxYWFnPnzg0KCjIxMXne+Q8ePBg0aFBiYmLHjh2PHTvWxOe+5+aSnR2Vl1NGBtna8l0N8I7vxNRm169fnzBhglQqJSIjI6Pg4OD8/PzafDE7O7tr165E5OLicvfu3cauU8jWrGFE7I03+K4DhAGB1SjS09P9/f1lMhkR6enp+fv7Z2Vl1ekKeXl5vXr1IiInJ6eMjIxGqlP4evZkRGzHDr7rAGFAYKnZgwcPgoODDQwMiEhXV9ff3782TSSlUln9w/z8/D59+hBR27Zt09LSGqFYoUtMZETM1JQ9ecJ3KSAMCCy1efiQLV6cy3VO6ejoTJw4sZYpk56e3rt378uXL1c/lJ+f37dvXyJq06ZNamqquksWuqAgRsRmz+a7DhAMBJYaPHrEQkOZmRkjYq+8MmnEiBE1ps/z+Pv7E5GlpeWlS5eqHy0oKOjXrx8ROTg43Lp1S31VC51CwWxsGBH780++SwHBQGA1SHExW7mSWVoyoqd9w5culdf1ImVlZd7e3kRkZmb2Z00/nY8fP3799deJyN7ePiUlRR2Fi0B0NCNizs581yESZWVlfJegCQisepLLWXg4a9XqaVT1789OnGjI1eQ+Pj5EZGpqeu7cueonPH78eODAgURkY2OTlJRU/zuJx9ixjIiFhvJdh+ApFAp3d3eJRKKjo+Po6Ojv7x8aGrp///7U1NSKigq+q1MzBFadVVSwyEjWvv3TqOralUVGquGy5eXl3E5PxsbGJ2oKv+LiYm7qacuWLa9du6aGWwpYbi7T12dSKfvnH75LEbz333//eZOWDA0Nu3Xr5uvru2jRok2bNv355595eXl819sgmDhaB4zRgQP0ySd09SoRkasrLVlCY8eSunYJraiomDJlyubNm42MjKKjoz08PFROePLkibe3d1xcnLW19dGjR7t06aKeGwvP999TQAANG0aHD/NdirAxxkxMTIqLi/38/KZPn/7gwYPi4uKkpKTk5OS0tLTbt29X/wE3Nzd3dHR0dHR0dXV1c3NzdHTs2LGjkZERL/XXFQKrto4epZAQuniRiKhNG1q4kKZNIx0dNd+loqJi2rRpmzZtMjQ03L9/f+VqnkplZWW+vr7R0dEtWrSIi4vr1q2bmisQhj59KD6etm+nt97iuxRh27lzp5+fn5mZWUZGhrGxscrRsrKyW7duceGVlpaWlJR07dq1oqKi6textbXlwqsyyNq0aaOj9j/fDdbkAuv6dTp9mmQymjRJNW5u3KBTp6hbN+rb95nP//iDFi2iU6eIiFq3pg8/pFmzGnGfE6VSOX369F9++cXQ0DAqKsrT01PlBLlc7ufnFxUVZW5uHhMT07t378YqhSfJyeTmRqamdP8+NWvGdzUCxhjr3r371atXN2zYMHPmzFp+Kz8/nwuvyiBLTk4uKSlROU1PT69169ZVG2Icdf9H1BF/T6P82LDhad/Td9+pHtq4kRGx4OB/Pzl/no0Y8fR8KysWGqqhGYxKpXLOnDlEpK+vv3///uonVB1YPH/+vCZq0qAFCxgRmzmT7zoEb+fOnURkb2/fwCFChUKRmpoaFxcXHh4eGBjo6enp6OjILSlTYW5u3rNnT19f3+Dg4E2bNiUkJDx69Ehd/zm10XQDq3lzpjIFvWpgJSUxX18mkTAiZmLCgoNZYaFG61QqlXPnziUiPT29qKio6if858CieH37LWvblp09y3cdwqZUKrkOgfXr1zfG9UtLSxMTEyMjI0NDQ/39/d3d3U1NTWts9Jibm7u7u3Ojk5GRkYmJieXldZ7cU0tNNLB692ZEzM/vmUOVgfXwITMwYETM2JgtXMj4GldRKpXz5s3jMmvv3r3VT6g6sHjy5EnNV9h4alqqBM/YtWsX17wqLS3V2E2zsrJOnTr1448/LliwwNvbu1OnTnp6etUjTE9PT19f39bWdvLkyTUuO6u3JhpYK1awfv0YETt8+N9DVVtYQUFs3jyWnc1XmU8plUpu0FpXV3f37t3VTygvL58wYQIRGRkZHT9+XPMVNsSaNczfn61aVcOh779n/v6sSS6grJXGbl7Vyb1797jHyeDg4BEjRqg8Ts6ZM0eN92q6gXXxIpNKWZs27PHjp4eq92EJxKJFi4hIR0dn69at1Y+Wl5dPmjSJiAwNDY8dO6b58urNy4sRMYmEVa961ChGxLTrSVedeGle1V5BQcFvv/3GbZ/bsWNHNV656e7p3qMHTZ5M6em0YgXfpfyXZcuWffrppxUVFRMnTtyyZYvKUR0dnY0bN06ZMuXJkycjR448evQoL0U2REAAyeV8FyEejLH/+7//I6KPP/5YX5Cv5TA1NR03btz06dOJ6OHDh2q8ctMNLCJauZIsLWnVKkpO5ruU//L555+HhoZWVFRMnjw5IiJC5ahUKv3555/nzJnz5MmTESNGHDhwgJci68fHh65fpy+/5LsO8di7d++VK1fs7e2nTp3Kdy0v4ufnR0Tl5eVqvGaTDixLS1q2jORyCgjgu5RaCA4O5jJr6tSpv/76q8pRiUSydu3agICAsrKyMWPG7N+/n48a6+Ojj6hlS1q+nFJT+S5FDBhjS5cuJaKQkBBhNq8q2dnZtWjRoqCgIDMzU13XbNKBRUT+/tS3L504QXv28F1KLQQHB69cuZLLrHXr1qkclUgka9asmTdvnlwu9/X13bdvHy9F1lXz5rR8OZWU0Jw5fJciBvv27eOaV9OmTeO7lv/GdWMlJSWp64JNPbCkUlq7lqRSWrBAHN0oCxYsWLVqFWMsICBg7dq1KkclEsnq1avnz58vl8vHjRu3RxQxTDRlCvXqRbGxFBnJdynCxhhbsWIFiaF5xeFeAYXAUqdevWjmTEpLo/Xr+S6ldoKCgrjmVWBg4Jo1a1SOcpm1aNEibgXPtm3b+KjxRUpKKD//mU+kUtqwgXR0aN48wnuvX2Dfvn0JCQm2trZTpkzhu5Za4VpYyerrJEZgEREtX07W1nTlCt911Nrs2bPXr19PRPPnz//mm2+qn7Bs2bLFixc/b2BRkxQKSkqinTtpyRLy8yM3NzIxoeXLVU/r2ZNmzKCsLFq6lI8qxaCyebVo0aJmIlljqfYWVtOdh6Xil1+eLtkR4Dys5/nhhx+4GXrLly+v8YTQ0FAi0tHR2bRpk2ZKKi1lf/3Ftm1jCxcyb2/m5MR0dJ7+j638pavL/P0Z+988rOvXn343L49ZWzOZjCUmYh5WDfbu3UtEtra2T8TzTo6cnBwiMjU1Vdd8d5nakk/kJk2iTZvo5Em+66iLGTNmSKVSf3//RYsWVVRULF68WOWE4OBgIgoJCZk6dapSqZw8ebJ6C1AoKCODkpIoOZmSkujiRbpxgyoqnjlHJiNHR3J1JTe3p/90cyMDgxquZm5OYWE0ZQqFhFBNC2+bNMbY8uXLiWjhwoViaV4RkZWVVYsWLXJycjIzM+3s7NRwRbXEnoiUlrK8PFbTW+JZSQnLy/t3P4YffmDTp7M6vk6QB1u3buVegLhkyZIaT1i5ciURSSSS77//viE3Kisru3r16m+//bZkybIxY5iLC5PJVFtPMhnr1ImNHcs+/ZTt2MESE5lc/twLqrSwGGNKJXN3Z0TM1hYtrGdwY77ial5xuNcRxMTEqOVqTS6wqsvLYzEx7PRp1c9fe40RsdhYPmqqo+3bt3OZFfycB9pVq1ZxmfVd9V11nkMul6empu7fvz80NHTChAk9e/Y0qNIusrR8wMWToyMbMYIFB7NNm1hCQt2236keWIyxa9eYru7T+ENgVeJ2Pav9b59wvPfee0T09ddfq+VqeCSkY8fI15dGjaJXXnnmczc3OnWKkpJo8GCeKqu1t956SyqVvvPOO2FhYYyxsLAwlROCgoIMDQ3fe++9wMBApVIZGBiocoJCoUhJSeE2dUtKSkpKSrp165ZCoah6jkwmc3Z27ty5c6dOnXr0oA4dqGNHqmmtfoN07kwBAbR6tZovK2pRUVHx8fG2traimHulQr0DhQgscnMjIqo+juHqSkQiWLXD8fPzk0ql48ePX7lypVKp/LLaUpfZs2dLpdLZs2fPnz+/vLzc29u7Mp64f5aWlqp8hds219XVtWfPnm5ubp06dTI0NFRjzR06UM+eNfRnff45XbxIxcUkkn3GGx3Xe/Xxxx+LqPeqkpoHCtXSThM1heLpC1oqt23gnDjx9P1dIhIdHc3NJ3z//fdrHJdZv369RCKp8Y0Dtra2np6egYGB4eHhp0+fLi4u1nz9NWrim8xERUWROHuvONxAYfPmzdUyUIjAYoyxzp0ZEbt48ZkPc3IYETM1FdlmclFRUdyeakFBQdWPKpVKe3t7AwMDe3v70aNHf/zxx1u2bLl06VJJjcMQAvDTT0xPj23cyHcd/OF6r7799lu+C6k/a2trIsrIyGj4pRBYjDE2bhwjYhERqp+3aMGIVHdSFr7Dhw83b95837591Q8JfB+l6rj5cbq6TLt2VK0tbhG7eJtXHO6FdUeOHGn4pTDdhej53VXi6saqNGzYsNTU1NGjR6t8zgS/j1J1kydTYCApFDR2LN2+zXc1Gsf9foWEhIix96qSGvvdEVhEz+93f97nwmdlZVX9Q7Hso6Ti66/pjTfo4UPy8aHiYr6r0aDo6Oj4+HgbG5sZM2bwXUuDqLHfHYFFpI2BVR0Tzz5KKnR0aMsWcnamy5dp4kRqOi/S1I7mFal3oLDhT5Va4HkDhSdPMiLWrx9PZakVt9WMiHqvVPz9NzMzY0TsOfP5tU10dDQR2djYiLr3isPtkqyWgUK0sIiIZDJydialkv7++5nPK1tYYv9bnYltH6XqXFxoxw6Syejzz2nHDr6raXxc8yo4OFjszSsisrS0bNmyZVFR0d27dxt4KQTWU1z/ukqj1cqKWrSgoiJS3xav/BDdPko1GjKEwsKIMZoyhRIS+K6mMR08ePDChQs2Njb+/v5816Ie6noqRGA9xTWmqo9jaEE3FhPhPkrP88EHNGMGlZTQ6NGi/1vkBbjexuDgYPUuLeCRugYKEVhPaXG/e1RUFNe8Etfg4PN8/z299hplZpKvL5WV8V1NI9C+5hWhhaV22hpYTJz7KL2Ari7t2EEODnT2LGnRT/S/uObVRx99pDXNK1LjQGHDhwC0g7YOFIpxm8ra+OsvZmTEiJiati0RioMHDxJRy5YthbOWUy3y8vKIyNjYuIEDhWhhPaWtA4Va1ryq1L07RUSQREIffkgHD/JdjfpoZfOKiMzNzW1sbB4/fpyRkdGQ6yCw/lXj05+VFY0YcbJTp7B798TXx1vZeyXGfZT+k48PffopKZU0fryIn9mrOnz48Pnz51u2bDlr1iy+a1E/tfS7I7D+9bzuquLipefPhyQlXdN8SQ0k6n2UauOzz2jMGCoqIh8fys8XZxu4Cu73S/uaVxy1dGMhsP5V41QsaoxXFWnE/v37uW0qp0+fznctjUUioc2bqVcvatny7/HjvcvLy/muqP4OHz78xx9/WFlZadPgYFUILDV73lQstb9uWzOWLVtGWt284jRrRnv2FKSkvH7kyP6goCC+y6k/rnkVEhJibGzMdy2NQj1/8atrFEALlJczT8/YPn2WPHr0qOrnp06dIqKXX36Zr8LqQezbVNbVH3/8wS05Cg8P57uW+jh8+DARWVlZqfzZ0yZqGShEYD2ja9euRBQfH1/1Q27ppomJibpeBqkBWrBNZV1t2rSJiHR1dU+cOMF3LXX2yiuvENGXX37JdyGNy8bGhoju3LlT7yvgkfAZNbZauaWbjx49avjSTc3Qmn2U6mTixInz589XKBRjx45NS0vju5w6iImJOXPmjJWVlVYODlbF/Xw1ZKAQgfWM5z1mi6vfXWv2UaqrVatWDR8+PDc3d+TIkUVFRXyXU1tcb+NHH32krb1XlRr+c4TAesbzpoqIKLAOHDjANa+0dbDpBXR0dLZt2+bq6pqcnDxp0iSlUsl3RS/y+PHj+Pj4oKCgM2fOWFpazp49m++KGl3Df47wXsJnaEELq8k2rzjNmzffu3fvyy+/vG/fviVLlnATx4VALpffvHmz6osg//77by5SW7Vq1UR+s9Twc6TGHjUtUF5e3qxZM4lEUlRUVPXz33//nYj69u3LV2G1VLlNpZatRKur2NhYmUwmkUi2bdvGSwFc62nTpk0fffTR8OHD27VrJ5FIVH709PX1u3fv7u3tzW3A/9prr2nxECEnPz+fGjZQiMBS1a1bNyK6cOFC1Q/VtXSzsfXp04eIVq9ezXch/Fu9ejURNWvWTOW3sjGUlZUlJiZGRkZ+9tlnvr6+rq6uUqlqZ4uurq6rq6uvr+9nn30WGRmZmJhYXl7OfT0lJaV169ZE5O7uXlhY2NjV8svW1pYaMFCIwFI1fvx4Ivrll19UPudGZNPT0/koqlYOHDiA5lVVXC9eq1at7qr11ZLV40lHR6d6PDk6Oo4YMSI4OHjTpk0JCQkv3kr/zp077dq1I6JevXrl5uaqsVqh8fT0JKKDBw/W7+vow1L1gm6srKyspKQkBwcHPur6b9q60L/e1q5de+PGjVOnTo0ePfr06dP16ydSKBQpKSlV+55u3LhRUVFR9RxdXd02bdq4urq6ublx/+zcuXOd9s5v06bNyZMnBw4cmJCQMHjw4Li4OAsLi3pUK3xubm5Hjx5NSkp644036vF1BJaqFwwUHjt2LCkpycvLi4+6/sOhQ4e4bSpnzpzJdy1Coauru3v37j59+ly8eBjpdzUAABpASURBVHHmzJkRERH/+ZXaxJNMJnN0dKwaT25ubgYGBg2s1sHB4cSJEwMHDrx06ZKnp2dcXJylpWUDrylADex3R2CpEulAIZpXNbK0tNyzZ4+7u/vmzZu7du364YcfVj3KYzzVyN7e/vTp04MGDfrrr7+4zKrxhbii1sCVuRIm0o3pGk1FRYWJiUlpaWlhYaGJiUnl52fOnBkwYECfPn3Onz/PY3k1OnTo0PDhw1u2bJmWlobAqm7v3r1jx44lohkzZujp6RUUFBQXFycmJqalpals8KCrq9uhQwe3/3F1dXV2dtbV1dVktdnZ2YMGDUpKSurUqdOxY8e4XmqtUVhYaGZmZmho+OjRo+pDE/9NrR1qWqJ79+5EdP78+aofCnmgsG/fvkT01Vdf8V2IcH388cfV//BzraeqXeMCWSuelZXVuXNnIurYseO9e/f4LkfNWrVqRUS3b9+ux3fr+Ui4NTs7R6Go/nlrff2xLVrU75rC4ebmdvny5aSkJG6WAMfc3PyXX35p3749Y6z6nBoeafc2leqybNmy1NTU2NhYIyOjrl27Tpo0ydXV1cXFRU9Pj+/SatCyZctjx455enpeu3Zt4MCBx44ds7Oz47sotXFzc8vMzExKSmrbtm1dv1vPwDqQm3uzpKT65z2MjbUjsKimx+zJkyfzUM1/4fZRWrBgAR4GX0Aqle4Q1Qujra2tT506NWTIkISEBA8Pj+PHj3NztbTGunXrhg8fXtdvNajTPaJjR6tn/4LSE1LTo95EtGNf5TaVGBzUPubm5nFxcUOGDImPjx8wYMDx48e5uVpix/XK/a3yupfaadDiZwtdXetnf5nJtGHYseGbYGiM1m9T2cSZmZnFxsb27dv3zp07Hh4e4to2p0Znz57ldsSs38M4dmuogaOjo6GhYUZGRmFhId+1vMiRI0fQvNJ6ZmZmMTExL7/8cnp6uoeHR2pqKt8V1VN8fPzQoUPd3d3T09NlMhm3qU5dIbBqIJVKXVxcGGP1a7VqDNe8Cg4ORvNKu5mamsbExPTv3//Bg6L33mt26xbfBdVRcnKyn59f3759Y2NjjY2Ng4ODc3JyxowZU49L1XMe1tvJyTdLSsZZWxs9u4pqlq2tVCu6sV599dUzZ844ODj06dPH2dnZ2dnZxcXFyclJOAsmYmJihg0bZmVldfv2bQRWU/Do0aOAgIKICHs7Ozp+nJyd+S6oFtLT01esWPHzzz9XVFQYGhpOnz590aJF1tbW9b5gg7qcdjx4oPLJDFtbLWiz/fjjj2fOnDE1NU1PT09PT696yNzc3NHRsXLqs6OjY8eOHY2MjDRfJNeiRvOq6TAxMVm/3uTePTp2jF59lY4epc6d+a7p+e7evfvll1+Gh4eXlZXp6elNmzZtyZIlDZ8E26AWVrizs9Wzk4DbNM6SBU369ddfp02bplQqly9fPnr06OTk5LS0tLS0tKSkpGvXrtW48a6trS0XXpVZ1rFjx+or+NUIzasm68kT8vamuDiytqajR6lLF74Lqubhw4erVq1as2ZNSUmJVCodM2ZMaGioo6OjWi7eoBaWnb6+jSDn3dVbZGTk9OnTlUrlF198ERISQv8bMayUn5/PhVdlkCUnJ9+/f//+/ftVT9PT02vdunXVhhhHXXU2nV3AQYWhIUVH09ixdOAADRpER49S16581/Q/jx49Wrdu3YoVK4qKiiQSia+v77Jly5zV+uzaoBbWgS5dtCmwdu7cOX78+PLy8uXLly9cuLCW3yovL//nn38qW2FckN25c6f6huKVj5OVQebi4lKPxImNjR06dCiaV02ZXE6+vrR/P5mbU0wM9e7Ncz3FxcVr164NCwvj9hT19PRcuXLlSy+9pP471W810FtJST0TEu6XldXv6wK0a9cumUxGRP/3f//X8KuVlpZye7yFhob6+/u7u7ubmprW+P/f3Nzc3d3d398/NDRUZSPK53F3dyeisLCwhtcJ4lVWxry9GREzM2PPLnvVcBll4eHhlZ1T7u7up06darzbNVZglVZU1LckHuzZs4dbkb9kyZLGu0teXl5CQkLlTpU9e/ascTENt1mlp6dnYGBgeHh4XFxcampq5Yrr0NBQIjI2NlbZdR6aILmc+fgwImZqys6d4+HuEREH7e3tuT+3/fv318ArbBslsNbevTshObnwv1oKAnHo0CFuc8gPP/xQw7cuLy+/devWoUOHVq9ePXv27EGDBjk4ONS4strMzKx169Zt27bl5gd7eXlpuFQQpvJy9s47TzPr7FkN3bSigkVGMicn5uZ2XiKRdO7cOTIyUjO7mNSzDyvw1q07JSU/d+zYotpWQUXl5e9ev54pl7sZGa11cjJpzMGyhouJiRk9enRZWdkHH3zw1Vdf8V0OEZFcLr97927Vfv3ExMSsrKzKE2Qy2d27d1u2bMljkSAcFRU0eTJt2UJGRnTgAL3+eiPeizGKiqLFiykxkYioY0f64otTo0e/qrn9SxojBe+XlXlfu9YzIWF8cnKBQtEYt1CLmJgYbuvI+fPn813Lf8jJyfnpp5+mTJkyZsyYmzdv8l0OCEt5OZs0iRExIyN27Fhj3SUujvXuzYgYEXNwYOHhTPM/3I21gV92Wdmb1671TEh4Ozk5X5CZFRcXx72VIDAwkO9aABqqooJNnsyImKEhi4tT88XPnWMDBz6NqhYtWGgoKylR8y1qqRF3HH0ol/smJfVMSBibmPhQLm+8G9XD6dOnuenp3KwrvssBUAOlks2Zw4hYs2YsNlY917x2jfn6Po0qCwsWGsr4fYdc426RnCuX+yUl9UxIGJOY+EAwmXXmzBlu+tLUqVMrRDWaCfBiSiULCGBETF+f7d/foEtdv84mTGBSKSNixsYsOJjl56upygZo9D3dcxWKcUlJPRMSfISRWWfPnuVeLTF58mSkFWgfpZK99x4jYtbW7PHj+lwhPZ35+zOZ7Gnw+fuzrCx1V1lfmngJRWF5+YTk5J4JCW8mJmbzOtf03LlzzZs3J6JJkyYhrUBbKZUsJOTpLIeXXmJErHdvVn2WUZ8+jIhVfRdEdjYLDmb6+oyI6eoyf38mtDdgaOitOYXl5ROuX++ZkDDy6tV7L3xnd+O5dOmSubk5Efn5+SkEOQ4AoHZcYBGxdetUD1UNrIcPWXAwa9aMETGplPn6slu3NF5rLWhoM5jmOjrfOzl1NjLKlMtnpqTcKyvTzH0rXb582dPTMz8/f+zYsVu3bpVpxVbOALVkaUkLF1KVyXzP+O03ateOwsKotJT8/CgpiSIjqX17zZZYO5rbvcpER2etk1MXI6P7cvnMlJS7GsysK1eueHp65uXl+fj4bNu2DWkFTc3ChVRQQB98UPNRNzcqLiZPT4qPpx07qGNHzRZXFxrdbs9YR2eds3NPE5MsuXxmSkqGRjLr77//Hjp0aG5urpeX17Zt2zT8Fl8AIZg8mXr1ou3b6dChGo526ULXr1NcHPXsqfHK6kjT+4M2k0q/6dChl4lJtlw+/caNtNLSRr3djRs3PDw8srOzhw0btnfvXm7NIEBTI5XSt9+SRELz5lGNP3Oi2HCZeHkJBZdZfUxMchWKWSkpqTW9kFUtUlJSPDw8srKyhgwZgrSCJq5/fxo/nm7dohUr+C6lAfjZgd1AKv26Q4c+JiZ5CsXsmzdvZmer/RY3b9708PC4f//+4MGDo6KiDMS/dzNAA61aRaamtHIl3bjBdyn1xdsrIwyk0m+cnAaYmra8c8e9S5erV6+q8eLp6emDBw/OzMwcMGDA3r17kVYARGRjQ0uXUlkZzZ3Ldyn1xec7bvQkkrB27fLCw3NycgYNGnT58mW1XPaff/55/fXX09PT3d3dDx06xMsrbQCE6b336KWXKC6ODh/mu5R64fmlXHo6Onv37vX29n748KGHh8eFCxcaeMGMjAwPD487d+7079//8OHD2PIcoCodHQoPJ6mUgoKovJzvauqO/7cI6unpRUZG+vj4FBQUDBky5M8//6z3pe7evevh4ZGWltavX78jR45wawYBoKrevWnqVLp+ndT0SKNR/AcWEenq6kZGRr7zzjuFhYXDhg07d+5cPS6SnZ09ZMiQ1NTUHj16HDx4EGkF8DxhYWRlRdXe6yQCgggsItLR0dm0adO7775bWFg4ePDgEydO1OnrDx48GDhw4PXr17t37x4XF8etGQSAGllYiHVyg4AWqejo6Pz6669cco0YMSI6OnrgwIG1+WJOTs7AgQOTk5O7det29OhRCwuLxi4VQCw++YQePqTqr2eaNo1kMlIoyNKSj7Lqq54voWg8SqVy2rRpv/76q6GhYVRUlKen54vP50YYr1271rVr12PHjllZWWmmTgBxUShIC5alCeWRsJJUKt24ceOcOXOePHkyatSouLi4F5xcUFDg5eV17dq1jh07xsTEIK0AnmfoULK1pfh4vutoGMEFFhFJJJK1a9cGBASUlJSMHDkyOjq6xtMKCgoGDx588eJFZ2fn48eP29jYaLhOABG5cYOyssjamu86GkZwj4SVGGPz589fs2YNN+9h9OjRVY8WFhYOGTLkwoULTk5OJ0+ebNWqFV91Agjf48fUvDnp61NxMUmF2EqpLeHWLpFIvvnmm/nz58vlcj8/v71791YeKioqGjp06IULFzp06HDixAmkFcCLpaQQY+TkJO60IiEHFhFJJJLVq1cvXLhQLpePGzdu9+7dRFRcXDxy5Mjz5887ODjExcXZ2dnxXSaA0KWkEIlnD5kXEHRgcZYvX7548WKFQjFu3LiNGzeOGDHi999/d3BwOHnyZNu2bfmuDkAEuO0ZtCCwBDQP6wWWLl3KGFu2bNn06dMZY/b29idPnmzXrh3fdQGIw82bRFoRWCJoYXEWLlzYoUMHfX19iUQyZ84cpBVA7WlNC0scgVVaWvrmm2/eunVLV1eXMbZo0aJffvmF76IARAMtLM3hRgljYmKsra3PnTv35ZdfcrPhv//+e75LAxCBrCwqLCQLC9KCidVC78NSKBS+vr7R0dEtWrQ4duyYm5ubm5ubjo5OUFDQ3LlzlUrlXPFungigEdwQoYsL33Wog6BbWBUVFRMmTNi/f7+5ufmRI0c6d+7Mff7++++vW7eOiObNm/ftt9/yWiOA0GnNnAYScmBxabVjxw4zM7PY2NgePXpUPTpr1qzw8HCJRDJ//vwVIt0pA0AjuMBycuK7DnUQaGBVVFRMmjRp+/btpqamsbGxvXr1qn7OjBkzwsPDpVLpokWLli1bpvkiAUQBj4SNS6lUTpkyZevWrc2bN4+Nje3du/fzzpw+ffqPP/4olUoXL168dOlSTRYJIBba9EhITGCUSqW/vz8RGRkZnTp1qjZf2b59u0wmI6Lg4ODGLg9AXMrLmb4+k0hYcTHfpaiDsAJLqVTOmjWLiAwNDU+ePFn7L+7YsQOZBVDdzZuMiDk48F2HmgjokZAxFhAQsGHDBkNDwwMHDrz22mu1/66fn9+2bdt0dXXDwsIWLFjQeEUCiItWPQ8Kpw+LMRYYGLhu3bpmzZpFR0d7eHjU9Qq+vr579uzR19dftWpVUFBQYxQJIDra1ONOwgmskJCQtWvX6unp7dq1q5bvnqhuxIgRu3fvNjAw+Prrr2fPns2EujchgMZo05wGEkhgffzxxytXrtTT09u9e/cbb7zRkEsNHz58z549BgYGGzZsmDVrllKMr14DUJ+ysgxHR7mLSwXfhagJz31ojH0eGkpEenp60dHR6rrmoUOHDAwMiGj5li1KdV0UQITs7e2JKDU1le9C1IPnPd03ZGYeyM7+29//q08+Udm1vYHi4uLWHD+e6+s7zNLykzZtBNGSBNCskpISY2NjmUz25MkTHR0dvstRAz4D64f793/IzNSRSL5wcBjYCAvJLz1+PP/mzSdK5VALi6Vt2+pIJGq/BYCQXblypXv37q6urklJSXzXoh68tTw2Z2f/kJkplUg+b9u2MdKKiHoYG69xcjLU0YnJy1t8+3YF+uChiblx4wYROWvNpAa+Amtrdva3d+9KJZIlbdsOa8w3y3c3Nv6uQwcjHZ3Y/PxFt2+XI7OgKUlJSSEiF62Z1MBLYG178GD13btSos/atHmjMdOK083YeIOzc3OZ7CgyC5oYLrCctGZSg+YD67cHD1ZnZEiIQhwchltaauamnQwN1zk5mcpkx/LzP0xNlSOzoGlAC6tB9j18+FVGBhEFOzj4tGihyVt3/F9mnSks/DA1VY75WdAE3Lx5k9CHVT/7Hz5ckZ5ORAscHMZqNq04LoaG652czGSys4WFH6amliGzQKvl5OTk5eWZmppaW1vzXYvaaCiwonNzl6WnK4nmtm7tx0dacZwNDX90cbHS1T1bVDT31q0SZBZoL26IUJueB0kzgRWbn/9/XFrZ2U1s2VIDd3yBdgYGG5ydW+jqXnr0aN7Nm0+QWaCluA4sbXoeJA0E1tH8/MW3bysZm2NnN8nGprFvVxttDQw2ODtb6+peevw48ObNJxXasswKoArt68Cixg6s4/n5i27frmBsdqtWU4WRVpw2BgYbXFys9fQuP34899atYmQWaB3tmzVKjRpYxwsKFt6+XcHYzFatptnaNt6N6sdBX/8nF5dW+vpXHj+enZJShMwC7aJ9cxqo8dYSciNxcsYmtmwZ2Lp1Y9xCLbLk8pkpKffKyjoZGn7v5GQglWaUldV4prWenolWLB+FpkCpVBoZGZWVlRUVFRkbG/NdjtrUM7AeKBTbsrNrPDTE3LygvDwoNVXB2CQbm7l2dg2rsNHdl8tnpaTcKysbZ2090tLy3evXazzts7ZtR2pqpitAA92+fdvR0bF169YZGRl816JO9XxVfZ5CseU5geXYrFkvE5MWurqvm5kJP62IyFZP70dn53WZmQF2dumlpUTUWl9/VLX12J0MDfmoDqA+tLIDi+odWJxuxsahjo4qHzbX0dGXSjd16mQua9DFNclaT29J27aV/2qrpyeoIQKAutLKDixqYGDpSiQtdHVrPCSitALQPtq37JmDnTgBtFBcXBwRteBvVUkjQWDVoEyp/KesrOqvPIWC76IA6qCiooKIQkJCcnJy+K5FnRr04HavrGzdvXtVP3E2NPQ0N29YSfy7Wlzsk5hY9ZNhFhbL2rXjqx6Aupo/f35gYOC9e/e6du36xx9/OFbraxapBgXWfbl8Y1ZW1U+GWVhoQWDZ6ukNfXZnQWcMEYKoBAQEODk5jRs3Lisrq3fv3tu2bRs6dCjfRalBgwKri5HR51UG14jISCumVrbW1w8Qw4QMgBcYOnRoRkbGlClTdu/e7eXl9dFHH61YsUIqFXcvUIOq15dKHQwMqv6yfM6gIQBonomJyc6dO0NDQyUSSVhYmLe3d2FhId9FNYi44xYAXkwikQQHBx84cMDc3Dw6Orpv377Xn7OWQxQQWADaz8vL68KFC126dLlx40bfvn337t3Ld0X1hMACaBI6dOhw9uxZX1/fR48ejRkzJiQkRCnC3SsRWABNhbGxcWRkZHh4uI6OTlhY2KhRowoKCvguqm7qGVh6EkkrPT0rretidzAw+MHZ+QN7e74LAWgs/v7+R48etba2PnjwYJ8+fcT1FvvG2g8LAIQsIyNjzJgx8fHxxsbGv/7665gxY/iuqFbwSAjQFNnb2//++++TJ09+/Pixr69vSEhIhRg23UULC6BJ++GHHwICAhQKxbBhw7Zt22Yu7JUqCCyApu706dO+vr7Z2dnt27ffu3dvly5d+K7oufBICNDUDRgwICEhoW/fvqmpqX379o2IiOC7oudCYAEAtW7d+tSpU9OmTSspKZk0adLMmTPLy8v5LqoGeCQEgH/98MMPc+fOlcvlr732WmRkpLW1Nd8VPQOBBQDP+OOPP3x9fe/fv29vb7979+7evXvzXdG/8EgIAM9wd3dPSEjo169fRkbGq6+++ssvv/Bd0b8QWACgqlWrVidOnAgMDCwtLZ06derMmTMVwtglHI+EAPBcERERs2bNKikpGTBgQGRkpA3fr79DYAHAi1y6dMnHxyc9Pd3Ozm737t19+/blsRg8EgLAi/To0SM+Pt7Dw+PevXuvvfbaTz/9xGMxCCwA+A8tWrSIjY0NDg4uKyubMWPGzJkz5XI5L5XgkRAAamvr1q3+/v5Pnjxxd3ffuXOnra2thgtAYAFAHfz1118+Pj537txp1arVrl27+vXrp8m745EQAOrgpZdeSkhI8PT0zMzMfPXVV8PCwjR5dwQWANSNpaXlkSNHgoODy8vLQ0JCJk6cWFJSoplb45EQAOrpt99+mz59enFxcY8ePfbs2dOmTZvGviMCCwDq78qVKz4+PmlpaVZWVjt27Bg4cGCj3g6PhABQf926dYuPjx8yZMjDhw+HDh3a2F1aCCwAaBALC4tDhw4FBwdXVFSEhIRs37698e6FR0IAUI+dO3du2bJl9+7dMpmskW6BwAIA0cAjIQCIBgILAEQDgQUAooHAAgDRQGABgGggsABANBBYACAaCCwAEA0EFgCIBgILAEQDgQUAooHAAgDRQGABgGggsABANBBYACAaCCwAEA0EFgCIBgILAEQDgQUAooHAAgDRQGABgGggsABANBBYACAaCCwAEA0EFgCIBgILAEQDgQUAooHAAgDRQGABgGggsABANBBYACAaCCwAEA0EFgCIBgILAEQDgQUAooHAAgDRQGABgGggsABANBBYACAaCCwAEA0EFgCIBgILAEQDgQUAooHAAgDRQGABgGggsABANBBYACAaCCwAEA0EFgCIBgILAEQDgQUAooHAAgDRQGABgGggsABANBBYACAaCCwAEA0EFgCIBgILAEQDgQUAooHAAgDRQGABgGggsABANBBYACAaCCwAEA0EFgCIBgILAEQDgQUAooHAAgDRQGABgGggsABANBBYACAaCCwAEA0EFgCIBgILAEQDgQUAooHAAgDRQGABgGggsABANP4f4aKIoF8L5sEAAAGTelRYdHJka2l0UEtMIHJka2l0IDIwMjIuMDkuMQAAeJx7v2/tPQYg4GWAAEYgFgViMSBuYGRjSACJMUNoJiZ2BgUgDedip5kZEco1QHyg+gwwzcgBEQAqBNMsCI0wPsh8Fk4wxYhKIQxD1svIzA10MyMTAxMzUIyBhZWBlY2BjZ2BnYOBg1OBk0uDiYNbgZuHgYeXgZePgY+fgU+AgU+QgVdIg0lIWEFYhIGNiYFbWINJhImViZmFlY2Vh1tYiFecjRESFGAg+nX2bAfZwNgDIE6xeI4Dd68imF3uWeWQada6H8ReuWO5w2yXTftAbI+z8x3szk6wB7F3rkhwcDdcC2Yvv2jqEJ2sbwNiv3RZZ/+ttAisfvGsC3YcW7LBauaczbNXuyHiAGKn3Vm7p/1NHJi9x7xz/98IHbCah0/v7Wfx0QbbezzF78BT9qdgc9Zf7zgwy/AQWPxPzaoDcyeogt05Q3j1gaWF78Bq+s19D6Qmq4DFu6zjDuTItIDNXCfMeWD9wTtgdsjhr/vXBfmC7RUDAIFjYlv7oBI3AAACE3pUWHRNT0wgcmRraXQgMjAyMi4wOS4xAAB4nH1UW47bMAz8zyl0AQt8SBT1uUl2F0WxCdCmvUP/e390qDRrBRVqm4QtjymSM/QhxfHt/PXX7/R5yPlwSIn+c/Xe008losNHipt0fH3/ckmn28vxsXK6/rjcvifhJIJvcD5jX27Xj8cKp1Mq2U2ae9o0l+rULFGmceyfCoCazb0rp01ylSJaFkBNFwA7U8PrjTMVaqILYEHEmqWwdEkbZS3OTgtgHTn2rk49cWZlsdXONlKsTNIdOK1KtiqlASfZC3W0CK+RKtUFzoFDGOPSPBIUtYa7f4EdJVNGnUUj/y7UeLUxg5t4r+JSkYJKtb5qDXO6xo4kLOgdaHFlbytk8BJdbkIcoayp6DKm3pGtsHaK6GYdvV9BgxqIQaR04oCWgrDLkoKcrWRppoiF+JUbNlhBLb2lraLq1mobGnLrlVfQ9hda0PwhjmK18RLqAUWuZBU7RFTzasteBU+hcejRC6glFeYVUoIohOLCjrLRNClmq+2F710F5zSYEnI0YIF8vZyfJu8+i8fr5bzPYpyyTxweku5zxbCyTw/D6j4jDLN9FBjWdsUzzHdhM6zv8uWwWaYSjnnS44DIJDseTid58XBlUhEPVyex8HA2aeK+0ibq7ys+MSwjTp+I5HAyE8bhhCdioubP/PArlMhYngiZ2x/Pj98o7g9/ALMrCqlPo6GgAAABEnpUWHRTTUlMRVMgcmRraXQgMjAyMi4wOS4xAAB4nCWQwY7DIAxEf2WPqUSRPTa2UdQTUo/dH+rH78BGUUQeM8OYtT66+Oj6XOv1+1j6Wtd6fPb3ej/4vsl+vpf3CuRsT+s+Sqrd1qNqWnuiDzhsk6mSJNrFJdHu0eEKuqSbl9LlfU4rbdrVFLFNQ8X4b8Mk241eLhNNujBMnB7uhXLBFFhkEknnAW5UTUhqbDINhdHQDSNmuykXKGDWWLpMN2O1hCiNkba3bvZX19oVEh5xREwV0AYpZak9dcKKGjFmHgL4mcydSdvmHRl25h+a6kSDZTLjXFLFHP/IOc5xxkjV/zCJgSOLGnk6pKudAyLmvsTH9w+boFY2reIPtAAAAABJRU5ErkJggg==;clipPath=inset(18% 0% 17% 0%);" vertex="1" parent="1">
          <mxGeometry x="589.9300000000001" y="420.94" width="250.95" height="163.12" as="geometry" />
        </mxCell>
        <mxCell id="yoPPsw2FuR2WmIkUcgj8-30" value="" style="shape=image;verticalLabelPosition=bottom;labelBackgroundColor=default;verticalAlign=top;aspect=fixed;imageAspect=0;image=data:image/png,iVBORw0KGgoAAAANSUhEUgAAAZAAAAGQCAIAAAAP3aGbAAAABmJLR0QA/wD/AP+gvaeTAAAgAElEQVR4nO3deVyU5d4/8O/MsIpsgoosam5guSUumbkVmWv5SNhyxC0PlqbV0/mFdTrHzvE5z+Gps/C0nQbbLJcePJpp2VEzUys9OaxuLAqyKSjbADIMM8z398eNA7IoM8xwzwWf94tXL7oYZr4gfLjv733d16VgZgIAEIFS7gIAADoKgQUAwkBgAYAwEFgAIAwEFgAIA4EFAMJAYAGAMBBYACAMBBYACAOBBQDCQGABgDAQWAAgDAQWAAgDgQUAwkBgAYAwEFgAIAwEFgAIA4EFAMJAYAGAMBBYACAMBBYACAOBBQDCQGABgDAQWAAgDAQWAAgDgQUAwkBgAYAwEFgAIAwEFgAIA4EFAMJAYAGAMBBYACAMBBYACAOBBQDCQGABgDAQWAAgDAQWAAgDgQUAwkBgAYAwEFgAIAwEFgAIA4EFAMJAYAGAMBBYACAMBBYACAOBBQDCQGABgDAQWAAgDAQWAAgDgQUAwkBgAYAwEFgAIAwEFgAIA4EFAMJAYAGAMBBYACAMBBYACAOBBQDCQGABgDAQWAAgDAQWAAgDgQUAwkBgAYAwEFgAIAwEFgAIA4EFAMJAYAGAMBBYACAMBBYACAOBBQDCQGABgDAQWAAgDAQWAAgDgQUAwkBgAYAwEFgAIAwEFgAIA4EFAMJAYAGAMBBYACAMBBYACAOBBQDCQGABgDAQWAAgDAQWAAgDgQUAwkBgAYAwEFgAIAwEFgAIA4EFAMJAYAGAMBBYACAMBBYACAOBBQDCQGABgDAQWAAgDAQWAAgDgQUAwkBgAYAwEFgAIAwEFgAIA4EFAMJAYAGAMBBYACAMBBYACAOBBQDCQGABgDAQWAAgDAQWAAgDgQUAwkBgAYAwEFgAIAwEFgAIA4EFAMJAYAGAMBBYACAMBBYACAOBBQDCQGABgDAQWAAgDAQWAAijhwbWqVOnli1bdvDgQbkLAQALOMldgDxOnDjx+eef19bWPvLII3LXAgAdpWBmuWuQQUlJSXBwsFKpLCoq8vf3l7scAOiQHnpK2L9//0ceeaS+vn7nzp1y1wIAHdVDA4uIVq5cSUSffPKJ3IUAQEf10FNCIqqvrw8KCiotLU1NTR07dqzc5QDAnfXcIywXF5ennnqKiD799FO5awGADum5R1hElJKSMn78eD8/v6KiIldXV7nLAYA76LlHWER07733jhs3rqys7MCBA3LXAgB31qMDi4iWL19OOCsEEESPPiUkorKysqCgoIaGhoKCgoCAALnLAYDb6elHWH5+fvPmzTMajdu3b5e7FgC4g54eWES0YsUKwoQsABH09FNCIjIajSEhIcXFxadPn54wYYLc5QBAu3CERU5OTr/61a8IB1kADg9HWERE586dGzVqlLe399WrV93d3eUuBwDahiMsIqJ77rln4sSJWq123759ctcCAO1CYDWSWu+YkAXgyHBK2Eir1Q4YMECv11++fDkkJETucgCgDTjCauTt7f3oo4+aTKZt27bJXQsAtA2B1cR8VoijTtHV19fX1tbKXQXYHgKryezZs0NCQrKysk6ePCl3LWC9RYsWubu7+/j4rFmzJjU1Ve5ywJYQWE2USuXSpUsJE7KEpdPpFi5c+NVXX5lMJoPBkJCQcO+99953331btmyprq6WuzqwATTdb5GdnR0aGurp6Xn16tVevXrJXQ5YoLCwcPHixadPn3Z1dV2/fv3y5cu3bdv20UcflZaWEpGbm9vChQtjYmIeeughhUIhd7FgLYZb3X///UT0+eefy10IWOD48eP9+/cnomHDhp05c8Y8XldXl5iYGBERYQ6p0NDQuLi4kpISGasFqyGwWtqyZQsRPfjgg3IXAh2lVqudnZ2JaM6cOeXl5W0+Jj8/Py4ubuDAgVJsubi4LFiwIDEx0Wg0dnG10Bk4JWypqqpqwIABOp3u4sWLQ4YMkbscu8utq0tu1d+Z5u3dz8VFlnosUldXt3bt2k8++UShULzyyit/+tOfVCrVbR5vMpm+//77hISEvXv3GgwGIgoKClq6dOmaNWvuuuuurqoarKd644035K7Bsbi6umZkZKSnp/v5+c2YMUPucuzuaEXFn/Pzs3S69Jqa1JtvE728Ahw+sAoLC+fMmfPNN9/07t17+/btGzZsUCqbLiLV1dU5ObXc2FyhUAwZMiQqKmr16tV9+/a9fPlyXl7eTz/9lJJSu2PHQiIaMYKcnbv0qwDLyH2I54iOHDlCRIMHD25oaJC7Frvbfe1auEZzrb5e7kIsY25aDR06tHnTipnr6upWrlz5yCOP3PF0z2QyHTly5Omnnx437hciJuK+ffnll/n8eXuWDp2AwGqDyWSSTgaPHj0qdy12J2Jg3aZplZ+fHx4eTkS9e/dOT0/v4BNWVLBazffey1JsEXF4OKvVXF1th+qhExBYbdu0aRMRLV++XO5C7E6swKqrq1u1ahURKRSK2NjYFsdQJ06cMB92dTytmtNoeMMG7tOnMbY8PTk6mg8fbuORJ06wWs2XL98y+NNPvHWrFS8LHYXAaltubq5SqfTw8KiqqpK7FvuSAismM/P5rCzpTV1UJHdRbSsoKJg0aZJ09JSYmNjio+bDrkceeaS9a4UdpNNxYiJHRLBC0ZhcI0dyXBxfu9b0mLVrmYhnzGCTqWnwhRfYz68zrwx3gJnubRs8ePD06dNv3Lixa9cuuWvpCoEuLsGurtKbn0O2nX/88ccJEyb88ssvQ4cO/fnnn6Oioswf0uv1zzzzzJo1a4xGY2xs7DfffOPr69uZ13Jzo6goOnyYLlyg2Fjq148uXKCNGykkhJYsof37qaGBiKhXL/rxR9qxo5NfGVhC7sR0XNLaWNOmTZO7EPtq75QwvabmxezsHyoqjM0PIWRym6OnwsJC6bDLw8Oj9WGXTej1vGsXz5nDSmXjAde+fbx2LQ8ezKtWcf/+bK4IR1j2hsBqV01NjaenJxFlZGTIXYsdtRdYmy9fDtdowjWaR9LS3ikszKurk6W8OzatpN0kBw4cqNFo7F1MXh6/8QZPnMj19Y2BVVzM3t787LOND0Bg2RtOCdvl4eERGRlJRBs3bpS7Fhm8EBz82qBBI9zdSw2GT4uLF589G33hwp7SUp3J1GU1FBUVzZgx4+OPP3Z3d9+6dWtcXFzzeaEJCQkPPvhgcXHxzJkzNRqNdHHQrgYOpE2b6JdfmuZq9e9Pr79OCQmEBT66BgLrdqRdv/bv3y/Niu5RPFWqxf7+O+6++/ORIxf7+/dSqS7U1v53Xt7c9PT/zsvLsP9qU1LT6t///vfAgQNPnDgRHR1t/pBer1+9evWaNWsMBkNMTMzhw4f79u1r73ra88ILNHIkPfdcY2ML7KrlVGBobu7cuUqlsqGhoaSkJDg4WO5y7MLHyWmEu7tT+wsYjOzVa+SgQS+HhJzQaveUlv5SVbWntHRPaekQN7f5fn6L/P29W00o77yEhITnn3/eYDDMnDkzMTGxeR4VFRVFRkb++9//dnNzU6vVy5Yts/mrW8TZmT74gKZPp4QEeQvpGeQ+J3Vc1dXVo0ePJqLQ0FC5a3EguTrd24WFEampUodrSnJy7KVL/9ZqbdWZr6ure+aZZ6QfzpiYGIPB0PyjP/74o9S0CgkJ6YKm1W1IPSyz6Gj29+cVK9DDsi8EVttMJtOSJUuIKCwsrLKyUu5yHI7eZDpYVvZcVtZEjUZKrifOnn3zL3+5evVqZ562sLBw8uTJROTm5ra11RRMtVrt4uJCRDNmzJB9fZgWgVVczD4+7OaGwLIvBFbbfve73xGRr69vVlaW3LU4tBK9/tOrVxemp//qu++ISKVSRUREJCYmtjgy6ojbHD3V1dWtXr26vcMuWbQILGZ+5x0mQmDZFwKrDbt371YoFCqV6sCBA3LXIoYGk+nwzz8vWrTIvEBCcHDw66+/npOT08FnuM3RU1FR0X333ScddklbhDiCP/+ZFyy4ZcRo5MceYyykZlcIrJZSU1M9PDyIKD4+Xu5axHP16tX4+PhRo0ZJsaVUKqdOnapWq2/cuNHep9yxaTVgwADpsOv06dP2/wrAoSGwblFaWiqt07Bs2TK5axGbRqOJiYmRop+IfHx8YmJiUlJSWjyssLDQfPR0m6bV9OnTZW9atVBT0/R+RgaPGsVTp8pXTY+BwGpSX18/c+ZMIpoyZUqdTBO7uxmtVqtWq5tP6QwPD4+Pj5dur2netGpx9NSiaVXvSItJaLXcrx/7+DSNlJYyEXt5sQPcxdTNIbCarFmzhogCAwMLCwvlrqW7SUpKWrt2rY+Pj5RBvXv3njZtmnT0FBERUVpa2vzBjtm0ak5af6b5MZ+fHxPxlSvy1dQzILAavfPOO9JvyC+//CJ3Ld1W8z1sfHx8VCpV66Onn376ydy0cth/i8mTmYiPH28auf9+JuIesOCjzBBYzMzHjx93cXFRKBTbt2+Xu5YeIS0tTaFQODs7t2ixO3LTqrnly5mIt2xpGlm5kon4gw/kq+mODhzg6Gi+/35+4AF+5hlBwxX3ElJu7tXFixfX19dv3Ljx6aeflrucHmHMmDEDBw40GAy5ubnmwYyMjHXr1tXX17/00ktHjhzp16+fjBXeXmgoEVFm5u1GHAgzPfMMzZtHhYU0ezbNnElnztCsWfTKK3JXZjm5E1Nm1dU8ZgzPmHFy7tz52KKuK82ePZuI9u/f33zw3Xff3bZtm1wlddzu3Ux0yzysL79kIp43T76abmPLFibit9++ZXDjRibivXtlqslKPTqwGhp40SIm4rvvZq22+2+Q41DWr19PRH/5y1/kLsQaZ88yEQ8f3jRy4QIT8ZAh8tV0G/fcwxMmtBw0GnnQIJ45U46CrNejTwk3baK9e8nXl776iry8evS3ouuFhoYSUaaDnkTdwbBhpFJRbi7V1zeODB1Kzs50+TLV1claWWvl5XT+PE2b1nJcpaIHHqCTJ8lolKMsK/Xc39I9e+hPfyKVirZvp2HD5K6m5xE6sFxdadAgMhopJ6dxxNmZBg8mk4kuXZK1stZKSoiZQkLa+NCgQaTXU3l5l9dkvR4aWGlptGwZMdPf/kZz58pdTY8kdGCRQH13aY3WNleglI4PHXLPkfb0xMAqK6PFi+nGDVq+nDZskLuanio4OLh3794lJSUVFRVy12KN1vEUFkZElJEhTz3tCgwklYry89v4UF4eeXmRt3eX12S9HhdYBgNFRlJODk2ZQmq13NX0YAqFYvjw4USUlZUldy3WEOYIq3dvmjSJDh9uuYSzTkc//EAPPkhKkUJApFptYv16OnaMAgPpn/8kV1e5q+nZhD4rFCawiGjjRsrKoo0bybyBiMFAa9dSWZlwU7F61pru775LajW5udHevRQYKHc1PR4Cq4s8+ij98Y/0xhu0fz/NmEENDXTkCBUV0Xvv0ZQpchdnmR50hHXiBL38MikU9PHHNHGi3NWA4IEVGEizZyePHPlZWVljD65fP+rThyor6do1eUtrRqMhrZaI6He/o5QUioyk0lKqqqJly+jcOXr2Wbnrs1hPOcK6fJkiI6m+nl57jZ56Su5qgIgEDywiKi9fo9FoMjN/uv/++6WRefN2JicfzMx8rl+/yfLWRkRkMjUmlEZDI0fSmDE0ZozcNXVWjzjCMplo8WK6fp0WLqTNm+WuBm4KDQ1VKBTZ2dkNYm7p1zpwVaqD589vzchIl6+oZg4dovx86t+/8WSViBoaqKRE1po6q0cEllJJf/0rTZtG27aJdUmkm/Pw8AgKCtLr9Xl5eXLXYo3WgeVYx4wffUREtHp10w/9oUMUEkL/+Z8yFtVJ3efXt7qaEhJo795bBm/coIQEysykWbPo+HHy8pKpOGiHY/2GW8ihA6u0lPbvJycnWr68afCjj8hgoP795Surs7pPYJWW0po1FBlJP//cNFhRQWvW3DICDsWBfsMt59CBtXUr6fU0dy4FBTWOXLtG+/aRkxPJvVd2Z9g9sCorK6914VUTLy967jmxbufs0RzoN9xyI0aMUCqVly5dMt78gRs+fLhKpcrNza033xUtl48/JiK6uR0REdHWrWQw0MKFNGCAXEV1nn2vEn700Ufr16/X6XTSkrje3t5eXl4t/uvr62v+X+kdH59AL6++Pj6kUFj8ii+/TH/4A8XH029+Y4evB2xN6MByd3cPCQnJy8vLzc2VZu27uLgMGjQoJycnJycnTLpVRxY//UTnz1NAAM2b1zT4ySdEt0aYgOwbWK+88opOp5NWwq2oqOjgXWPTpz97/Pg/iMjTs/FWJy+vxnd8fZveN//Xx4eCgxs/NyyM1q2jTZvo8cdp8GC7fWFgI0IHFhGFhobm5eVlZmZKgUVEYWFhOTk5mZmZcgaW1G5fsaLpxuYTJ+jCBQoKojlzZKvKFuwYWJcuXaqoqFAoFFlZWSEhIVVVVRUVFVVVVVqttvl/tVptZWWl9L/SSJ8+g318qLKSqqupupqKiu78WuvW0csvN77/xhu0cye9+GLLBjw4oIEDB/bq1evKlStVVVVeAl4TCQ0NPXToUGZm5oIFC8wjBw4cyMjIeOyxx+SpqaaGdu0ihYJWrWoalCJs5crGxRuEZcfA+uSTT5g5Ojp68ODBROTr6+vr62vRM2i1VFXV+F/pHa2WKiubBs0fGjSo6bN8fOitt2j5ctq3j8aPt+mXBLamVCqHDRuWnp6elZU1YcIEucuxmCP23XfsoJoamjmTbh70kVbbGGErVshWlY3YK7AaGho+++wzIjJvh2kFb2/y9m576bHWmu1mQNHR9Mkn9NJLdPCg1S8OXSQ0NDQ9PT0zMxOBZRvSwVTzXtXOnVRbSxERNHSoXEXZir2uEn777bcFBQUjRoyY1nptVvtTKOidd6iggN55p+tfHCwj/294J7QXWBkyLYul053Jja2qe3Y2RUY2jbaOMGHZK7A++ugjIlq1apXCikt9tjBqFG3YQB98IMuLgwWEDqzWyxAOGDDAy8urvLy8rKys6+spLf2ofFDG9ddGkLt741B6Omk05OdHixZ1fT02Z5fAKikp+eabb5ycnJbJOkVt0ybq21fG14cOETqwFArF3XffPWLEiOvXr5sHR4wYQXJ8Rcz15eXbicjPr6ndfr3hixvPzzCt/zW5uXVxPfZgl8D69NNPDQbDwoULB3ThFDVXVwoPp+ZtfU9PeucdCg8nf/8uqwIsJgVWVlaWyby8nFBOnTqVmZkphZRErgiuqNhtNJb26jWhV697pRGTqa5I8UHGimP6V57s4mLsxF6BRUTPdO05c2AgaTT00EO3DD78MGk0tHBhVxYClvHy8howYIBOpyssLJS7Fmu0bnoEBwcT0Z49e3Q6XVdWUlr6ERH5+zf93lVW/rOhocLDY7K7+9iurMR+bB9Yx44dy8jICAoKmiPrFDVmmjWL+vShZofq4KDkbVTbVkpKyueffx4QEPD1118HBASsWbPmxx9/7ILX1etzq6uPKpXuffo0HUy1jjDR2T6wpHb7ypUrVbJOUVMoyMmJDAY6elTGKqBDhG5jNffZZ5/df//9V65c8fX1DQ8Pr6qqSkhImDZtWnh4+Pvvv19ZWWm/ly4r+5jI5Ov7hErlI43o9TnV1ceUSg9f3yfs97pdzMaBpdVqd+/erVAoVjjAFDXp9PDIEbnrgDvpBoFlNBo3bty4fPnyurq6mJiY1NRUjUZz4cKF2NjYvn37Jicnr1u3LiAgYMmSJd999x0z2/bVmRvKyrbSrQdTpaUfEnGfPk+qVOLdQtAum258z++99x4RRURE2PZprfPLL0zEQ4fKXYet7dnDo0dzQcEtg4WFPHo0794tU02d88033zjOj40Vrl+//tBDDxGRq6trQkJCi4/W1dUlJiYuWLDAfM4xfPjwTZs25eXl2aqAysr9Gg2dPTuC2SSNmEyGtLRAjYZqan621as4AhsH1vjx44lo586dtn1a6xiN3KcPE3FOjtyl2NSHHzIRX7x4y2BODhNxq18WMVy8eJGIQkJC5C7EGikpKdLNZ4GBgT//fLt0KCgoiIuLG3zzpnyVShUREZGYmGgwGDpZw8WLizQaKi5+0zxSUbFXo6GzZ8M6+cyOxpaBlZaWRkR+fn46nc6GT9sZ//EfTMQffih3HTbV/QLLaDS6ubkpFIrq6urm46dOnSpocSTpYHbs2NGrVy8iklpXHfkUo9H49ddfL1q0yPnmUgpBQUFvvPH7ujor/67W1xcnJTknJTnV1181D2ZnL9RoqLj4r9Y9p8OyZQ9LrVYT0dKlS90cZooa2lhCUKlUQ4cOZebs7Ozm42vWrBk0aNDDDz+8a9cug8EgV3ltkppWTz/9dG1tbUxMzNGjRzs461ClUs2fP//LL7/Mz8+Pj48fPXp0UVGRVvvt2bNDMzMfKC1NMJlqLarEYLji7j7W2/tRZ+eAmyPFVVXfKhQufn7RFn9hDs5WyVdbWystxpCammqr5+y8CxeYiPv1Y5NJ7lJsRzrCSkvjqqqmtzNnBD7CYubFixfTrc2E6urqJUuWuN7cnrt///6vvPJKZmamjEWalZaWSk0rFxcXtVrdmacymUzHjh07ffo3ycnuGg1pNJSa2ic//4Xa2nSLnqehodb8/pUr/6XR0KVLSzpTmGOyWWBJazNMnjzZVk9oK8HBTMTplv3rOzQpsNp8EzewXn31VSJ64403WoxXVFSo1eqxY5vmPYaHh6vV6pqaGlnqZOaUlJS77rqLOtC0sojRqL1+XZ2RMVWKLY2Gzp8PLymJNxjKLH2q3NwVGo1Cqz1oq9och80Ca8aMGUTU+hKJ7JYtYyL++9/lrsN2pMDavZtPnWp6+/JLsQNLujsiKiqqvQdoNJqYmBhPT08ptry8vGJiYk6cONGVRXKzptWUKVM62LSylE53rrAwNjXVT4qt5GS3S5eitNrD5iuAtz44Iy9vTWbmjIyMqZcvr66qOiKN19VdZG6wR3nysk1gZWZmKhQKDw8PrVZrkye0oa1bmYgXLJC7Dtvpfk13Zn7ttdd8fX2dnZ0XLFhwmwtntbW1iYmJERER5gOuu+++Oy4urrS01N4VGo3G2NhY6UWjo6Nra2vv/DmdYDLVlZcnZmVFaDQKKbnOng29ejXOYCgxP+bGjZSkJNczZ4YVFm4sKno9O3tufv4Gu1YlO9sElvQPuWrVKps8m20VFTERe3pyfb3cpdhINwusmpqaJ554gogUCoXy5pafAwcOvP1MJfOcTOnxrq6uUVFRhw8fNtmnW1laWiqlpJOTU1xcnD1eoj06XWZhYWxaWoAUW0lJLpcuRUmne7m50ampfYzGyq6sR142CCyDwSBdH/npp586/2z2EBrKRGy7boPMulNg5efnh4eHE5Gnp+eePXuuXLkSFxc39ObCmEqlMiIiYuvWre0dzuj1envPyeRmTau+ffsePXrUhs/ccSaTUas9fOlSVFKSk0ZD58+PZ+aMjOlnznS7idG3ZYPA2rNnDxGFhYXZ6Y9b561dy0T8xz/KXYeNdJvA+uGHH/r16yelzNmzZ5t/SOpYSd0iIvL19Y2JiUlLS2vvqew3J3Pnzp1SGeHh4bbNQevU1xdeubK5rGwnM+fnb9BoKC/v2fp6u3TTHJANAmv+/PlE9Ne/Ou4Utd27mYhnzJC7DhvJyGC1mquqbhmsqmK1mi9ckKkmy6nVaicnJyKaN29eRUVFm4+prKxUq9X33ntvi0uELeaXmjU0NBw+fDgqKso8J3PAgAGxsbEXW6R7x3Rx08oKRmNFVtZsjYaSklTZ2fMrK/fJXZHddTawCgsLVSqVi4vLtWvXbFKQPZSXc58+pgceKLxx44bctdhAXh7HxfGXX94yWFjIcXF8+bJMNVlCp9NJS9EqFIrY2NiGhjtfzNJoNBs2bOjTp48UH56entHR0YcPH27v8cXFxdKcTOnxCoVi6tSparW64z8AMjatLKXTXSgq+m16+iCNhoqKXmfmhobqhgbZpn3YVWcDa/Pmzbe/Gu0gJk2aTET/+te/5C7EBo4eZSJ2ceHz55sGf/yRifjIEfnK6pj8/Hxpd5zevXvvtvBebZ1OJ10iNK+ZN3LkyLi4uOvXr7f3KdKppYeHh/R4Hx+fmJiY5OTk279Qamqq7E0rSzU03MjMfCgpybWhobq4+M2UFK/c3Gittt1MF1SnAstkMkn9UccPAunY/pVXXpG7EBuQAsvfn2fNaprBL0RgHTt2rL2mlUUyMjJiY2Olp+rIJcLKysr3339/fLNdKqdPn97ekZ25aTV+/HhHaFp1XHHxXzUa0usv5+YuM88+PXduTEnJ20ZjudzV2UanAuvw4cNEFBISYjQabVWQnRw6dEjqgMhdiA1IgfW3v7FCwVu3Ng46fmCp1WqptXSbppVF9Hr9vn37oqKipF4YEQUHB8fGxl5u/8T43LlzsbGxfn5+Tz/9dOuPNm9aLV261AGbVi3U1p4xmfTS+yaTITNzZkqKlzRfVKfLKCyMTU3td3MyhOttZp8KpFOB9eSTT7Z5O4UD0ul0bm5uSqXyNqcPopAC65df+Ikn2M+PpS/IkQNLp9MtX77coqaVRQoLC+Pi4qSTOPNkiMTExPp2pt7V1ta2nqReWlr68MMPC9G0MktPH5yS4pudPT8n5+kzZ+7SaJQlJW83f4DJpK+s3GeeDKHRUHp6SGFhrF4vQrOzLdYHVllZmRQBt/mD5lBmzpxJRP/85z/lLqSzzIGVn88eHvzrXzM7cGA1b1rZ9ZsvXSKMjo52v7klX0BAwIYNG86cOXPHz23etPr+++/tV2TnmUz1lZXfmExGZjYYrl+/viU//4Xc3Oiiotdra9v9SvX6y0VFm9LTQ24ecDllZy+sqPjKaBTsgMv6wIqPjyeiOXPm2LAau5KuDzz33HNyF9JZ5sBi5v/5H1Yq+eefHTSwzE2rYcOGdaZpZZHy8nK1Wj1mzJgWkyHau1/6iy++kLry4w1+ec4AABMQSURBVMePd/y/vhUVX2o0lJX1sFWf3XBz9qmLRkN79y4aMIBjYzk728ZF2o/1gSXdQL9r1y4bVmNXJ0+eJKIRI0bIXUhnNQ8sg4HHjOHx4/n48cbAunyZ33+fKx3gbg1z02ru3Lnl5TI0faVLhL1795Ziy9vbOyYmJikpyfwAqWklXXMUomnFzNnZ8zUaKilpuptfry8wmeosehKDoaS4+C+vvZYmLfKhUPCsWbx9OzvMypvtsjKwTp06RUT+/v51dZZ9p2RkMBi8vb2JKD8/X+5aOqV5YDHzDz+wQsFr1jQG1uuvMxG7uXFUFB8+LM9CYDqdTtqFxE5NK4tUVVVt3bq1xf3S0dHR33//fWBgoFhNq/r6wqQkVVKSi8HQNO0xK+uR1NQ+1dXHrHhCjYZjYrh378bliby9OSaG25z18dlnHBfX8g/h9u38xRfMzFot/+1vbSzi9PHHfOCAFXW1y8rA+vWvf01Ev/nNb2xZi/0tXLiQiD799FO5C7GSNO2xRWAx89Kl7OTUGFhff80REaxUNv4Ihobym29ycXHXFVlQUDBx4sQuaFpZKi0trfnsU4mbm9vx48flLq2jrlzZrNFQTs6T5hG9Pj8pSZWU5GowWH81qaqKt27liIimhdXCwzk+nsuarcQ1ZQoT8fPP3/KJ06fzww8zM+fmMhG3Xsrwrrv4ySdbDnaGNYFVUlIinfOfO3fOlrXYn9R3i46OlrsQa6Sl8ZAh/OGHbQRWcTH7+NzSwyoo4Lg4Hjy48edPpeKICE5M5E7fWncHx44d69+/v9S06ki3u+vV1dW9+eabUmz16dPnl+bfR0dnOnNmqEZDzaeDFhVt0mgoJ6eNWRpWOH+eY2O5b9/GH5vmx+lTprCvL6tUt/zgiRFYK1euJKL+/fvbspAucebMGSIKDAyUuxCLffEFe3gwEU+fzikpHBHBGRm3PED6C5mScstgQwMfPsxRUezs3PgjGBjIsbF86ZJdijQ3rebMmSNL08oiwt2npdUe1mjozJm7mq3M1yDdkWNet88mdDresYMffJAVCiZipZILCnjKFP6P/+ApU3j8eDZPuxQjsKQZw6GhobYspEuYTKaAgAAiuiDOXcJGI8fGNv7o/OpXbF1fuLiY4+N59OjG2FIqeepUVqutfLbWWjStHH8isYhycp7UaOjKlc3mEa3221YRZkuXLvFvf8srVjAzT5nCixezRsNKJcfHNz5AjMB6/fXXzbOB25ub57CeeuopInr33XflLqRDysp49mwmYicn7nxf2GTiY8d42TJ2d29MLn9/3rz5x05OOGjetBLoqrFYDIbS5GQ3jUap1zddMrp06XGNhq5e/VMXFCAFFjOvWsWenlxYyNwqsMaP58jIW948PGwcWNZs87V58+Z169a5urpu27btwQcfvHbtmhVPIhdps5MjIuz8lZ5OEyfSoUPk708HD9LNm0asp1DQ9Om0dSsVF5NaTVOnUmkp7djxwqhRoyZMmJCQkFBdXW3pc544cWLChAmnT58eNmzYyZMnH3/88c5WCW0pL//cZKrz9p7r4hIijRiNpZWV+xUKJz+/FV1ZSVwcOTvTSy+18SEPD/Lzu+VNact9BImoE9t8JScnDxw4kIhCQkKaz21xcHl5eUTk6elZ3JVXziz3f//X2LS69147LhqTkqJfu3atj4+P9MPg6em5evXqkydPdvDTxWpaCe3cubEaDVVU7DGPFBe/pdFQdvbCrinAfITFzB98wER86JAgp4RmV65cmTx5Mlm1VIgsKisrN2zYoFQq+/Xr5+LiIu134GgNF5s0rSxSV1fXYtmWsLCwuLi426xxptPppGsvaFp1gRvaUxoNpaX1N5maOjBnz96t0VBFxd6uqaF5YDU08KRJPG4cP/CAUIHFzHV1dY4zRfD2du/eLa097+bmNnbsWPMq4IMGDfrDH/7gILNJbdu0slRWVtamTZukA2cicnFxiYqK2rdvX4s8KigomDRpkvSHKjExsaur7IFWrzbeP0Z75M/mgerqHzUaSksLaB5hdtU8sJhZo2GVip2dLQus+nru5L5attk1x7zc7eOPPy7jDpftuXr1alRUlPRLOHXq1PPnzzNzm/sdJCYm6vV6ueq8cIHDwhp74TLeFWg0GqWFhlss25Kbm8vM//jHP6RJTH5+fundaX9ah1VdzZ6eTNR8wcbc3JUaDRUWvtplVbQILGZet46JLAist97igQN54kQeO5atPjyw2Uaq//rXv6RWyJgxY6SfbEdgMpm2bt3q5+dHRF5eXvHx8S2OARsaGk6cOGHRfgd2kpjYeIfEhAnW/3PaVmFh4ebNm4ODg6XvjEqlku5lkUyaNEnuAnuGLVsaJ+CZVVU13DeufPOMurqsLqtixQpucWNLRQU/8ACvXcvMfPUq33cf7211ehoZyb//PTOzXs/PP9+4EcH/+3/8wgtWlmGzwGLm7OzskSNHSn97HWGNjosXL0rXBIlo/vz5tz/pk7ZEHzdunPkX8vb7HdiQyWSKi4ubOXMPET/9NDvafEbpMoW7u3uvXr2kJpc0Ea9Pnz5yl9Yz3HcfEzUt1cjMajUT8axZ8tXUKWp149wuK9gysJi5qqrq0UcfJSInJ6e33377zp9gHwaDIT4+Xrp/qH///lub/2PfSest0W+/30EnlZeXz5kzR/qOffhhgZ1epTNMJpO04EF6evqrr7765ZdfMrOXlxcRdcF+yz3d+fONNyU3/zs2aRIT8bZt8pVlvYYGnjWLre582jiw+NZ1ZmNiYrp+Zmlqaqq0YhwRRUVFWfdL1Xq/A2lLdNsuWJqRkREWFkZE/v7+3333nQ2f2bakjbZOnTplHpG+ww67dW738eKLTMTNF3FLT2ci9vFxuEPxjnnpJY6MtH4REdsHlmTnzp3Swo/Tpk0rKSmx06u0UFtbGxsbK13+u+uuuw4dOtT557R0v4OO27dvn3ScMm7cOMfp+rVJWgu7+YHq0qVLiejjjz+WsaruT69vvBFZo2ka3LCBiXj9evnKspJOx6tW8RNPcGcua9krsLjLZ5YeO3YsNDRUOrfasGGDbXtP5v0OzJMhQkJCYmNjrdtVRWpaKZVKInrqqacc/y7cTZs2EdFrr71mHpGWb42NjZWxqu7viy+YiMeMaRrR69nfn4la3ubu8MrLefx4HjqU//xnjotjq//S2TGwmLmoqMg8s3TPnj13/gSrVFRUxMTESOduY8aMseuCIZbud9CaVqt97LHHSKh143bu3ElEkZGR5pHExEQieuyxx2Ssqvt7+GEm4nfeaRrZsYOJeOJE+WqyUlkZq9VNb1avk2bfwGL7zyzdt29fUFCQNB1006ZNXTOLyrwluouLi5RcAQEBsbGx2XdaHNvctPLz83PkplULycnJRHTPPfeYR9LS0qQJ8TJW1c3l5rJSyW5u3Pyep4ceYiL+4AP5ypKZ3QNLEh8fL51MRUVF2Wpm6ZUrVyIjI6W8mDZtmiwrxrS330GbZ3n79u2T1mgeN25cTk5O11drtZqaGoVC4erqap7yXltbq1QqnZ2dhVuuQxi/+x0T8dKlTSM5OaxUsrs722JXR0F1UWCxTWeWStNBpfnW3t7eraeDdr3b73cgXNOqNWn66KVmS/8NGjSIiLKyum7uYs+yezdPncpHjzaN/Pa3TGT9FKZuoesCi5mzsrKkmaX+/v5Hm/9LWCI7O3vWrFlSLixYsKCgwIHmLlVWVv7jH/8wT6qQLlZGRUVJOyCoVCpRmlatSVNwDzTbUWD27NlEtH//fhmr6kGMRg4JYSI+cULuUuTUpYHFzFVVVdJOEE5OTu807yZ2gMFgiIuLc3Nzk3pGjrxWnLQlur+/vxRbCoXCz8/viKPtGmiJtWvXEtHf/960u9SGDRuI6K233pKxqh6kuJjnzOG775a7Dpl1dWCxtTNLk5OTpTtCFApFdHS0EHOsq6ur161bFxQUJC1xJ3c5nfK///u/RPTss8+aR9577z0iWr16tYxVdUMmE3/+OU+fzr6+7O7OYWH86qtNTSvH3zjQzmQILMmOHTs6OLP0xo0b5umgQ4cOFejiWndy8OBBIprV7P617777Tvrnk7GqbmjdOlYo+MkneccO/uor/u1v2cuLQ0PZprdYiEu2wGLmpKSkkJAQIhoyZEh7W0L98MMPw4cPN08HdcC1a3qIy5cvE9GAAQPMIwUFBUTUr18/Gavqbr79lon4v/7rlsHkZHZz45UrZarJscgZWMxcVFRkXgquxczS8vJy83TQsWPHin5KJbqGhgZpBR7tzRXYzDdFlzXfbxM6IzKS/f25dZNk9Wp2dWX8tbZuEwobCgwMPH78+PLly2tqaiIjI2NjY00mExHt2rUrLCwsISHBzc0tLi4uKSmp+aU36HpKpXLYsGFElJWVJY0oFIoTjz5aNn5874sXZS2tGzl9mkaNImfnluMTJpBeT+npctTkWGQOLCJydXX99NNP4+PjlUrlm2++GRwcHBAQsGTJkmvXrk2fPj01NdXcwAJ5fTVrVm1o6LibgUVE40ymPsnJLhkZMlbVrZSVUVBQG+PSGoqlpV1cjgNykruARi+88IKvr++KFSuuXr1KRCqV6sMPP1y+fLl5dReQ3WAvL8rMpObxFBpKRJSZKVdJ3Y2bG1VVtTGu1RIRubt3cTkOyFECi4iWLVvm7++/efNmvV7/2WefjRo1Su6K4Fat4yksjIgIR1i2MnQoXb7cxnhuLhHRsGFdW40jkv+UsLl58+adPHkyOTkZaeWIpMDCEZb9zJtHZ8/SuXO3DDY0UGIi3XMPDR4sT1WORMHMctcAgqiuJm9vcnOjmprGLX1v3CBPT3JxoRs3CH3Gzisro1GjyM+PvvyShg8nIqqtpRdfpC1baO9eeuwxueuTn2MdYYFD8/SkgADS6aigoHHEw4OCgkivp7w8WSvrLvz86OBB0uspLIzGjqUHHqCAANq+nd5/H2klcaAeFgggLIyuXqXMTBo0qHEkNJQKCykzk4YMkbWy7mLMGDp/nr77jlJTSa+n1atp3jy6uUI3ILDAEqGhdPQoZWTQ7NlNI0eOUGYmzZ0ra2XdiLMzzZ2L72ebcEoIlmjdZUffHboQAgssgZkNICsEFlgCR1ggK0xrAEuYTOThQXo9VVWRtB60yUSenlRbS1oteXnJXR90czjCAksolTRsGDGT+Y5CaYSImt1jCGAnCCywEM4KQT4ILLAQAgvkg8ACCyGwQD6YOAoWah1PDz5IX39NuF8d7A9XCcFCdXWUnk6hoeTtLXcp0OPglBAs5OZGkyaRSkV//CONHk29e5O3N02dSlu2kMkkd3HQzeGUECxXU0PTp1NWFq1bR1OnUl0dff01rVlDR4/S9u2ERWLBbhBYYLnf/57OnKHjx2nKlMaRJUsoPJxefJEefZSefFLW4qA7Qw8LLNTQQP7+9PDDlJh4yzgzDRlCd91F338vU2XQ/aGHBRbKzqbKSho3ruW4QkHjx9Pp03LUBD0FAgssVFZGdHPjqRaCg6mmhurqurgi6DkQWGAhNzeimxtPtaDVkkpFLi5dXBH0HAgssNCQIaRQtLsb1dChjftTANgBfrbAQr6+dP/9tHcv1dffMp6XRydP0vz5MpUFPQICCyz3hz9Qbi6tWNG0TXF+Pj3+OPXuTS+/LGtl0M1hWgNY5bPPaP16Mhpp7FjS6yk9nQIDKTGRJk+WuzLozhBYYK3ycjpwgC5dIicnGj2aZs9u7McD2A0CCwCEgR4WAAgDgQUAwkBgAYAwEFgAIAwEFgAIA4EFAMJAYAGAMBBYACAMBBYACAOBBQDCQGABgDAQWAAgDAQWAAgDgQUAwkBgAYAwEFgAIAwEFgAIA4EFAMJAYAGAMBBYACAMBBYACAOBBQDCQGABgDAQWAAgDAQWAAgDgQUAwkBgAYAwEFgAIAwEFgAIA4EFAMJAYAGAMBBYACAMBBYACAOBBQDCQGABgDAQWAAgDAQWAAgDgQUAwkBgAYAwEFgAIAwEFgAIA4EFAMJAYAGAMBBYACAMBBYACAOBBQDCQGABgDAQWAAgDAQWAAgDgQUAwkBgAYAwEFgAIAwEFgAIA4EFAMJAYAGAMBBYACAMBBYACAOBBQDCQGABgDAQWAAgDAQWAAgDgQUAwkBgAYAwEFgAIAwEFgAIA4EFAMJAYAGAMBBYACAMBBYACAOBBQDCQGABgDAQWAAgDAQWAAgDgQUAwkBgAYAwEFgAIAwEFgAIA4EFAMJAYAGAMBBYACAMBBYACAOBBQDCQGABgDAQWAAgDAQWAAgDgQUAwkBgAYAwEFgAIAwEFgAIA4EFAMJAYAGAMBBYACAMBBYACAOBBQDCQGABgDAQWAAgDAQWAAgDgQUAwkBgAYAwEFgAIAwEFgAIA4EFAMJAYAGAMBBYACAMBBYACAOBBQDCQGABgDAQWAAgDAQWAAgDgQUAwkBgAYAwEFgAIAwEFgAIA4EFAMJAYAGAMBBYACAMBBYACAOBBQDCQGABgDAQWAAgDAQWAAjj/wPUqk9Cnp7LXgAAAap6VFh0cmRraXRQS0wgcmRraXQgMjAyMi4wOS4xAAB4nHu/b+09BiDgZYAARiAWA2JxIG5gZGNIAIkxQ2gmJnYGBSAN52KnmRkRyjNAfCaggAaIwcIBoZnYHCB8NgewAqAOqIAA2AI2doi9TDD1MJodoowZQx8nWB8jN9D9jEwMTMxAIQYWVgZWNpBZ7BwMHJwKnFwaTJzcCtw8GUw8vAm8fAx8/Ax8AhxMfIIcTLxCGUxCwgnCIhlMIqIMbEwMItwJIkysTMwsrGxsPLxCwiLc4kKMkNABA7EHjeUHXFodHECc2VNCD7jnnbUHyxh1HvAqfmwHYk6S3Xng1G12sLhA36kDjc9i94PYmzOXHuCe9ALMzuOsOuB0uwHMvjND4YDl3GNg9sbw1fujNGTB7Da9QluVsClgtp/TJLvJApoHQOyq5Ln2BzOS9oHYAUoaDnJyLmA1wfzFDs/P64Pd8Nl+mcNz+f1gNTY/Ljk8FM4Gqyk9P8VBfuUjMLtgw3YHHclmsDsPd6c4/D9yGcw2kOZ2qD7MA/ZjdEyD/avahWBxbeFT+x7aPwezxQAgHGYI/GqomgAAAiN6VFh0TU9MIHJka2l0IDIwMjIuMDkuMQAAeJx9VEtuWzEM3PsUvIAFfiR+lrGdFkURG2jc3iH73h8ln+E8BRCqZwkSMaKkmaEPUO3X5efHX/hsfDkcAPA/v4iAP4KIhzeoCZxev/+4wvn+cnpGzrff1/s7MANL7snvK/blfnt7RgjOcJTmaoIM0hCdpAPmpNq+lR9AEaMYQE2xB/sCKHCFY2/sJqMS9d5ZYgHslXE08+6a4TYENWwBHAXUJhzeGY6Yt1WL1dn6SEkaNASO1DynY5XTHs8JVGctJKLmrgXSC8ltYEiuEjkGJVsLZNTLKSlypV73VBJfvohSpAoPd+faQzmzFUlEcMsw+1Dluod2UlnmLIWoMcdIbvJ0ZiJc3ZMkkZmJDWO7p6mijxWyNJJmYU4lEVnyySvggHdI4qNErJRiKReukJosaRtpHtzEDHK2ZU7Lp/emA4V7kWSG5rpCeiLTSR3ZPTlA7oxLYEkkbVgSg2Xike5c0c64UUTp4ayGnER0WbmDaWMd82Sqo1lJx4rKrMZvGzHR1SyRnoZbCvl6vXwp0UfRnm7Xy1609fFemrkA2QuQsve9zCj72IuJsuteMZTd9rKg7L57n7LHbnCqPtuYayCa7EpbhCdb9hpIJvv1GqhPNqNtGJOfaBt08g1vEZv88Yj45IO+5YlJ8FqmnpOyvQamSUKqgXnSqmj4vDHXjQvGs0azIrV+/gXn/PAPrfIWUOtTZ0MAAAEhelRYdFNNSUxFUyByZGtpdCAyMDIyLjA5LjEAAHicHZBLboRADESvkiUjNZb/H6FZIWVJFjkC+5xgDh8bhET3w11VXed50dkPnde5vX9eN9339rtdr9n0+3ff9P312XaB9JAlgJgk62ggErwIHLUGKHCG2EJQVZZqZBCp6Y1M0CsaOQhX6tqxBT0qnzHyIls7QfbKH/VCTxmE6D5iDIYlDzIjHzHqDOk0Yk6SY4CAlpn8zNEsh3GaO6/WcCXXdRAwt1EfZCbCzt+/OLAGhTumrUMgKpI6PkXn4nV00jJ5DCX6IutwsOIcUJTchRwKbig8/hEYNadCsYf7LqxMI2wxpl2eqdqYU1cnq79VKpMPkXPqZSefRtqx1CMaZTei6/X5B8j2WrKoFt4VAAAAAElFTkSuQmCC;clipPath=inset(23% 2% 23.67% 2%);" vertex="1" parent="1">
          <mxGeometry x="4.780000000000001" y="429.61" width="262.41" height="145.78" as="geometry" />
        </mxCell>
        <mxCell id="yoPPsw2FuR2WmIkUcgj8-33" value="" style="shape=image;verticalLabelPosition=bottom;labelBackgroundColor=default;verticalAlign=top;aspect=fixed;imageAspect=0;image=data:image/png,iVBORw0KGgoAAAANSUhEUgAAAZAAAAGQCAIAAAAP3aGbAAAABmJLR0QA/wD/AP+gvaeTAAAgAElEQVR4nO3deVxUVf8H8O/AACOLgsoOIirI425ukVsl6mPaZoJKGuqj5AalZmhpPPn8NPTRRB9FKZdwF8sKtTQ1NTXLNZcUEWRRWQMUiGGbOb8/Lo3D4sIwM/ee6fN+9fKFh+HeL8l8OPfcc8+RMcYIAIAHZmIXAADwtBBYAMANBBYAcAOBBQDcQGABADcQWADADQQWAHADgQUA3EBgAQA3EFgAwA0EFgBwA4EFANxAYAEANxBYAMANBBYAcAOBBQDcQGABADcQWADADQQWAHADgQUA3EBgAQA3EFgAwA0EFgBwA4EFANxAYAEANxBYAMANBBYAcAOBBQDcQGABADcQWADADQQWAHADgQUA3EBgAQA3EFgAwA0EFgBwA4EFANxAYAEANxBYAMANBBYAcAOBBQDcQGABADcQWADADQQWAHADgQUA3EBgAQA3EFgAwA0EFgBwA4EFANxAYAEANxBYAMANBBYAcAOBBQDcQGABADcQWADADQQWAHADgQUA3EBgAQA3EFgAwA0EFgBwA4EFANxAYAEANxBYAMANBBYAcAOBBQDcQGABADcQWADADQQWAHADgQUA3EBgAQA3EFgAwA0EFgBwA4EFANxAYAEANxBYAMANBBYAcAOBBQDcQGABADcQWADADQQWAHADgQUA3EBgAQA3EFgAwA0EFgBwA4EFANxAYAEANxBYAMANBBYAcAOBBQDcQGABADcQWADADQQWAHADgQUA3EBgAQA3EFgAwA0EFgBwA4EFANxAYAEANxBYAMANBBYAcAOBBQDcQGABADcQWADADQQWAHADgQUA3EBgAQA3EFgAwA0EFgBwA4EFANxAYAEANxBYAMANBBYAcAOBBQDcQGABADcQWADADQQWAHADgQUA3EBgAQA3EFgAwA0EFgBwA4EFANxAYAEANxBYAMANBBYAcAOBBQDcQGABADcQWADADbnYBQCYvtLS0k2bNjk6Ovbr18/d3V3scjiGwAIwrKysLF9f35KSEuGvCoXCzc2tTU2urq6urq4ymUzcUqVPxhjT5etGjyYLC9q2rUbj3bs0YgSFh9OkSQ8bjxyhdevowgUqLiYXF3r+eZozh9q0aVTVAPzw8fFJTk42Nze3sLCQyWRKpbLel9nZ2bXW4uXlJfzZsmVLIxcsZbr2sBITydKydmN5OV2+TDk5D1sWLaLISOrUiSZMICcnunWLtmyhLVsoIYFeeEHHUwPwY+3atcnJyXK5fP/+/UOHDiWiwsLCzMzMrKys21pSUlLu379/9erVq1ev1jpCrR6Zq6ur8Fdvb++/YY9M1x5W165kaUnnztVoTEmhdu1oyRKaP5+I6NgxGjSIgoJo+3YyN69+zb171K8flZbSrVvUtGnjigeQtMuXL/v7+yuVyu3btwcHBz/+xUqlslaKCQoLC+t9vZWVlbu7e90ga926tZmZyd5MM+QY1sqVpFDQunUP04qI3N1p6VIaPZq2baPp0w14dgBR3b9/f+TIkUqlMiws7IlpRURNmjQRoqfucdLS0tLT09P+InxcWFgoJFrd43h7ewtXlM7OzgUFBV27dg0JCTHXfhtyy2A9LMbIwYE6daJTp2p/7f375OBAQUG0e7eOVQNIG2Ns1KhRe/fu7dmz56lTp6ysrPR+irKysszMTO2+mHClmZqaWvdN3b1794sXL+q9BuNrRA8rMZH696/RUlb28OPiYnrwgFq1qucL7e2pWTO6e1f3UwNIW3R09N69e+3t7Xfv3l0rrT766CMrKyvN4Lqrq6tuV3AKhaLeHllxcXF6enpqampaWtrZs2ePHTuWmZl56dKluLi4kJAQ3b8laWhEYFlbU9euNVqKiuj8+eqP1WoiIvkjjm9pSSqV7qcGkLCzZ8/OmzdPJpNt2rSpVqAwxlasWFFaWqppsbCw8PT01IxAaXh5eel2EWdnZ9epU6dOnTppWvr06XP27NkdO3b8vQOrVStas6ZGS0oKbd1a/XHTpqRQ1N+NKi2lP/4gf3/dTw0gVYWFhWPGjKmoqJgzZ87rr79e67MqlWr58uWaAan09PTs7Ox6h6IsLS09PT01kxtat24tjEy5u7s3NMi2bt3aoUOHEydO5OTkODs7N+rbE5vBBt3NzKhnT7p6lSorycKixqfOnyfGqE8fIqJvv6UWLahfP0OVAWBEjLGJEyempqb26dNnyZIldV8gl8unTZum3VJRUXH37l3tQSjh47S0tJSUlJSUlFpHsLCwaNmyZd2pp61atZI/4oLG19d3+PDhCQkJGzdu/OCDD/T1zYrCkNMaNm2if/2Lli+nOXMevkaloqFD6dQpunWLXFyoXTvKyKAePSgigkaNor/fvBIwJUuXLp03b56Dg8PFixdbt27dmEOVlZWlp6cLfTHtW4RZWVn1vmflcrmHh4fQF2vduvXgwYP79u2r+ewPP/wwdOhQd3f31NRUi1odCL4w3XTpwnr2rN2YnMyI2JIl1X9VqdjgwczMjM2axS5cYKmp7MgRFhDAiNjKlYwxVlLCPvqINW/OiBgR69SJbdnCKip0LAlAVGfOnBHmsn/zzTeGO0t5eXlKSsrJkyfj4+OjoqJCQ0MDAgLatGlT6zpxieZtyBhjTK1W+/n5EdFXX31luNqMwJCBxRhTKtl77zE7u+pIImLe3mz79hpfVVLCoqOZp2f1C7y8WHQ0KynRsTAAMeTm5gpPNc+fP1+UAsrLy2/dunXkyJENGzYsXLjw9OnTtV6watUqInrhhRdEKU9fdL0kLC4mmYxsbWs0qtVUVERNmlCtWSeVlXTzJhUVkbMztW1b/wErK2nnTlq6lK5fJyJq2ZJmzKCwMGrRQpfyAIxIrVa/9NJLhw4dGjBgwNGjRx81liSu4uJiDw+PoqKiK1eudO7cWexydCV2YtakVrOEBObvX93bsrVl4eEsI0PssgAeZ9GiRUTk5OR09+5dsWt5nBkzZhDRtGnTxC5Ed7r2sAzt1ClaupQOHCDGyMKCxoyhefOoQwexywKo7cSJE4MGDWKMff/990OGDBG7nMe5ceNGx44dmzRpcvfuXQcHB7HL0YVUH5Ls14/27aOLF2nMGFKraetW6tyZRo78vdZ9SQBR5eTkBAcHq1SqhQsXSjytiOgf//jHiy++WFpaumXLFrFr0ZXYXbyncPs2Cw9nTZqc7dCBiPr27ZuQkKBWq8UuC/7uVCrV4MGDieiFF16oqqoSu5ynsnfvXiJq166dSqUSuxZd8BBYguzs7VFRzZo1E3K2e/fuu3bt4uWnBEzSwoULicjZ2TkzM1PsWp5WVVWVt7c3EX3//fdi16ILfgKLMcZYUVFRdHS0ZlVsb2/v6Ojo0tJSseuCv52jR4+am5ubmZkdPnxY7Foa5pNPPiGiESNGiF2ILjgLLEF5eXlcXJwwEY6InJycIiMjCwoKxK4L/i6ysrJcXFyIaPHixWLX0mB5eXkKhUImk928eVPsWhqMy8ASqFSqhISE3r17C7FlZ2cXHh4u8fvKYAIqKyv79+9PRIMGDeJ0UGLChAlENGfOHLELaTCOA0vj5MmTI0aMEGLL0tJy/PjxiYmJYhcFJuv9998nIg8Pj7y8PLFr0ZGwmJ+9vX0Jb4+UmEJgCc6ePTty5EhhLTRzc/ORI0fu2rVL7KLA1Bw4cEAmk8nl8pMnT4pdS6M8++yzRPTZZ5+JXUjDmE5gCZKTk8PDwxUKhRBbvP9UgaRkZGQIm27997//FbuWxtq2bRsRderUSexCGsbUAktw9+5dR0dHIpo7d67YtYCJqKioEBZsGT58uAlMAywvLxfuG/z0009i19IAUp3p3jju7u5TpkwhIs28LYBGev/990+fPu3p6RkXF2cCGwJaWloK75E1tdYNljbTDCwiEnpYeXl5YhcCpmDfvn2rVq2ysLDYtWtXC1NZQWTq1KkWFhZ79+69y8+OMCYbWE5OTkSUm5srdiHAvfT09AkTJjDGli9f/txzz4ldjt64ubm99tprVVVVn3/+udi1PC0EFsDjlJeXv/HGGwUFBa+88kpYWJjY5ejZzJkziWj9+vXl5eVi1/JUEFgAjzN79uwLFy60bdt2y5YtJjB0VcuAAQO6dOmSm5v71VdfiV3LU0FgATzS9u3bY2JirKysdu/ebao3cIRV/XgZepfqAn6NplKpLC0tZTJZeXm5bhtSwt/c0aNHBw8ezBhbt27d1KlTxS7HUEpLSz09PQsKCs6dO9ezZ0+xy3kCk+1hmZubN2/eXKVSFRQUiF0LNI5KRfHxNGUKvfIKBQfT0qV0754RTvvmm28yxlq1amXCaUVE1tbWwqOFMTExYtfyZCYbWISrQtOQlUW9e9Po0fTbb2RnR0VF9J//kI8P7dxp6DM/ePCAiObNm1erPSkpSfiUyZg+fbqZmdmOHTuk/2ZBYIGEMUaBgXTjBh04QOfO0fbttH8/3b5NXbtSSAhduGDQk3fo0IGIvvjiC+3GBQsW+Pn5bdq0yaCnNrK2bdsOGzasvLx88+bNYtfyBAgskLAjR+j0afrgA3rppYeNTk60ezcR0eLFBj35mjVrzMzMrl69mp+fr2ns3bs3Y2zt2rVqtdqgZzcyYeg9JiZGpVKJXcvjILBAwr7/nogoMLB2e6tW9NxzdPgwGfLd5e/v/89//lOpVG7cuFHTOGLECG9v75SUlIMHDxru1Mb3z3/+09fXNyMjY9++fWLX8jimHFh4Ood7yckkk5GXVz2f8vamkhLKyTHo+ev2O8zMzIQxeF7mATwlmUw2bdo0Ilq7dq3YtTyOKQcWeljcKysjhYIUino+1bw5EZFSadDzDxs2zNfXNz09ff/+/ZrGKVOmWFtbHzx4MCkpyaBnN7KJEyfa2toeOXLk2rVrYtfySAgskDAHB1IqqbCwnk8JMxuE2DIYmUwm9Ke0+x0ODg5jxoxhjK1fv96gZzeyZs2ajRs3joik/H0hsEDCunQhIkpMrOdTv/9OrVqR4bcvnjhxoo2NzZEjRxK1yhAeKty8efOff/5p6AKMKSwsTCaTxcXFSXbehikHlrNzHycnVX7+KbELAV0FBpJMRnVHi44fp2vXaMwYI5Rgb28/btw44c6gprFbt259+/a9f/++sG6nyejQoUOfPn1KSkqEwTspEnHxQEMrLGRErGlTseuAxggLY0Ts3XeZsI1bVRXbt485OjJ3d5afb5wSrl27JpPJ7OzsHjx4oGncsWMHEXXo0IHf1UePHTvm7++fmpqq3fjee+8RkaWlpTS3hjblwGKMWVkxIqZUil0H6Kyqis2ezSwsmFzOPDyYrS0jYr16sVu3jFnFwIEDieh///ufpqWiokLY0PfYsWPGrERfMjMznZ2dieiTTz7Rbv/666+Frsyff/4pVm2PYeKB5eHBiFh6uth1QCNlZrLt29ny5WzdOnb2LDN6p2bPnj1E5OPjo92fioyMJKJRo0YZuZjGU6lUAQEBRPTCCy9ob61YUlIiLErh4+MjYnmPYeKB9cwzjIidOyd2HaCb48fZnDns0CGx62CVlZUeHh5EpL0xfWZmpqWlpVwuz8jIELE2HXz44YdE5OzsnJmZqd0eEhJCRE5OTpLdctGUB92JyMmJiAj3CXl14gStWEEnTjxsSU6mHj1o5kwjFyKXy99++22qOV/U1dV15MiRVVVVsbGxRq6nMY4ePRoVFWVubr59+3ZXV1dN+4YNG+Li4mxsbI4dOybsZiZBCCyQsPR0Iqox0z0lhS5erH+ig4G9/fbbCoVi3759qampmkbhbtpnn31WVlZm/JJ0cPfu3bFjx6pUqv/85z+DBg3StF+9evWdd94hopiYGOGpb2lCYIGEpaUREbVu/bgWY3F0dBw1apRardbuT/Xr169Hjx55eXnCIJfEVVVVjR07Ni8vb9iwYREREZr2kpKSoKCg0tLSt99++6233hKxwicy8cBydCQiwtOEvKobT3X7XEYkbNnw2WeflZaWahq5eARP8MEHH5w6dcrDw2PLli1mZg/f+9OmTUtMTOzcufPKlStFLO9pmHhgoYfFMZWK7twhmYxatXrYKF4Pi4j69OnTq1evwsLC3cL6NkREFBwc3KJFi19//fXs2bOiVPWUDhw4sHz5crlcvmvXLu0hqpiYmG3bttna2sbHxzdp0kTECp8GAgukKjOTKivJxaXGw8+iBhb9NWi1evVqTUuTJk0mTZpE0u5k3blzJyQkhDEWFRXVt29fTfvly5eFmaKxsbF+fn7iFfjUxL5NaVjnzjEi9swzYtcBOvjpJ0bE/P1rNLq5MSIm3jSCsrIyYb7l6dOnNY1paWnm5uZWVlbZ2dliFfYYFRUVwv6vI0aM0J5HVlhY2KZNGyIKCwsTsbwGQQ8LpKpuZ6q8nLKzycKC3NzEKYnIysrqX//6F9XsT3l5eQ0fPry8vFx7qT/pmDt37s8//9yqVasvvvhCs7UiY2zy5Mm3b9/u2bPnf//7X3ErbACxE9OwlEpGxCwtjT81Ghpt0SJGxObPf9hy8yYjYm3aiFcTY4xlZGTI5XILC4u7d+9qGg8dOkRE7u7uFRUVItZWV0JCgkwms7Cw+Pnnn7XbhfF1e3v7lJQUsWrTgYn3sBQKatqUKipIqqtlwKPVvSEo9gCWwNPT85VXXqmsrNywYYOmcfDgwX5+fvfu3UtISBCxtlrS09MnTJjAGFuxYoW/v7+m/ezZsxERETKZbNOmTcJVIS9MPLCIyNmZCFeFPJJqYNFfQ++xsbGVlZVCiwSXGC4vL3/jjTcKCgpGjRolLOAlKCwsHDNmTEVFxezZs19//XURK9SB6QcWhrF4JbFJWNpefPHFzp07Z2Vl7d27V9M4ceLEpk2bHjt27OrVqyLWpjFr1qwLFy60a9dOuyfIGJs0aVJqamrv3r2XLFkiYnm6Mf3AWryYvv+eOncWuw5oELW6nklYkgksqm++qJ2d3fjx44lo3bp1opX1l/j4+HXr1llZWe3evVtYgEGwbNmyb775xsHBYffu3ZaWliJWqCOxB9EM5eJFFh/Pao0nFhez+HiWlCRSTfD07txhRMzFpUZj376MiB0/LlJNNRQXFwtBcP78eU3j9evXZTKZtbV1gbDcoEhu3brVtGlTIlq/fr12+5kzZywsLGQy2TfffCNWbY1ksoElLFTZpQurrHzYmJTEiFh0tHhlwVM6dYoRsT59ajS6uzMilpYmUk21CU8LT548WbtReKJ45cqVYlWlVCq7d+9ORKNHj9Zuz8/P9/LyIqL52jdeeWPKl4RmZvT77ySZMVBoiLoDWBUVlJVFcjm5u4tTUh0zZ840MzPbvn279tbQwvOGIm4NPXPmzEuXLvn4+Hz22WeaRrVaHRwcnJ6e7u/v//HHH4tSmF6YcmBZWtJbb9FHH1XvCAU8qRtYGRmkVpOHB8nl4pRUR7t27YYMGaJUKjdv3qxpfPnll729vZOTk3/44Qfjl7Rz586NGzcqFIr4+HjhqlCwePHiQ4cOOTk57dmzx8LCwviF6YspBxYRCbdBZs0Suw5ooG0lJdv697+pvTCTZOY0aBPmN6xZs0azNbS5uXloaCiJsTV0UlKSsMpgTExMt27dNO0nTpz4+OOPzczMtm7d6i6Z/qluTDywXFxo/nzas4e++07sUqAhtly4MP7kydvC8kBERLQtI2No69abe/QQsaq6hg8f7uPjk56e/p3WT9jkyZMVCsV3331nzK2h//zzz9dff724uDg4OHjixIma9pycnODgYJVKtXDhwiFDhhitHgMx8cAiotmzqX17mjmTtJYwAqlLS0sjotZa/ambqak/pKWl29qKVVK9ZDKZ0KnRnt/QsmXLMWPG2Nra/v7770arZMaMGdevX+/YsePnn3+uaVSr1ePHj8/MzHz++ecXLlxotGIMSOxRf0MJC2MKRfXHx48zmYxFRuIuIR/UarVCoSCikpISTaOwi/rmzZvFq6t+hYWFNjY2MpksMTFR05iZmam9iaGhCSFlY2Pz+++/a7cLIVV3swl+mX4Pi4gGDqTRo2nZMsrIELsUeApZWVllZWVOTk42Njaaxrp9Lomwt7cPDg5mjMXExGgaXV1dtce8DeratWv1Lsf+448/LlmyxMzMbNu2bdqbTXDtbxFYRLRiBVlYkKZTrFbT0qVUWChqTfAI9WaTZAOLiMLDw4lo8+bNRUVFRj61Zjn20NBQ7eXYs7Oz33zzTZVKtWjRImELQtPwdwksNzf697/pzJnqv27eTPPmUbt2tGoViTRdBh6pbjZVVlZmZWWZm5tL8yZXp06d+vfvX1xcvG3bNiOfevny5Tdu3OjWrduqVas0jVVVVUFBQdnZ2YMGDZo3b56RSzIoUwusw4epX7/6F5MJCyPNrd4BA2joUCoooHffpd69SdqLcT+SWq1evHixo6OjjY3NkCFDqqqqxK5IP+oGVkZGhkql8vDwkOwcImG+6KeffpqammrMf4gPP/xw3rx58fHxCq2FpBcsWHDy5EkPD4+dO3eam5sbrRhjEHsQTZ/Wr2dyOSNiK1eyb79lH35Y+wUXLrCICHbqVPVfExJYq1aMiJmZsfHj2R9/GLle3eXm5i5ZsqSV9oPBRAMGDLh3757YpemBMI9p7dq1mpYjR44Q0cCBA8Ur6glKSkrs7OxcXFyEfwsHB4cePXoEBgZGRETExsYePnz42rVrpaWlRqjkwIEDMplMLpefPHnSCKczMhMJLLWaRUYyIkbEwsMbsL5oSQmLjGSWloyItWjBoqOZSmXIQhvt/PnzoaGh1tbWwhvDy8vr5Zdf3rFjh9Afadmy5ffffy92jY0lTBc6cOCApkVYIEXYRkGahGFvBwcHd3d37R20tJmbm7dq1ap///5vvfXWRx99tHHjxqNHjyYnJ5eXl+urjIyMDGFHnGXLlunrmJJiCoFVVsbGjmVETC5nNZ9Of1qJiWzw4Oq869+fXb6s7xIbrby8PD4+XjN6amZmFhAQkJCQoNlTQNgdk4hkMllERERVVZW4BTeGr68vEWnfoRduz0dGRopX1OPUWoa4oqIiJSXl5MmT8fHxUVFRoaGhAQEBbdq0kT/6oaJaPbKEhITz589rz+p4GhUVFcKOOMOHD1eb6KLg3AdWfj7r358RMTs71si+RUIC8/CoDr7wcHb/vp5KbJzMzMyoqCjNYHOzZs3Cw8Nv375d95VqtTo6Olp4Vzz//POcTr2pdxKWsM7Upk2bRCzsUZKTk4V1ZlavXv34V1ZUVNy7d+/8+fO6BVl0dHR8fPz58+eLi4vrPf6sWbOIyNPT8w+ORjcaiO/ASk5m7dszIubuzi5d0sMBS0pYRET1QJiLC4uLE3P3ivPnz48fP14zzOzn5xcdHf3E37rHjx8XJt04OTn98MMPxilVjzIzM4nI0dFRu7F///5E9OOPP4pV1aOUlZX16NGDiEaNGqXzQSoqKm7fvn3s2LHNmzdHRkaGhIQMHDiwdevWjwoymUzm5ub23HPPBQcHz58/PzY29uDBg+vXrxd6edr7j5kejgPrzBnm6MiIWNeu7M4dfR758uXqpeKI2IAB7OpVfR78iZRKZVxcXNeuXTUDHyNGjDh8+PDTHyE3N1cYBjI3N4+MjFRJfFiupp9//pmIevXqpd3o6elJRPX2K8UlrDvarl27+4bpkBcUFNTqkXXo0KHe/ZmFbmm0qT/GwWtgffkla9KEEbGhQ1lRkf6Pr1azL75gTk6MiFlYsEWLthUZ4jQ1JScnR0REtGjRQvgRdHZ2joiIyNBp01C1Wh0VFSWM/r744ovS3OCzXjt27CCiwMBATUtFRYW5ubm5ubnUdtASNqy3srK6cOGCMc9bVVWVnp7+008/bdmyZdGiRZMmTRo0aJCdnR0R1drLy/RwGVjR0czMjBGxKVNqLCiqd4WFLDyc9euXRkSurq5xcXGGGMtUqVSHDx8ODAzUTJnp0aNHbGysUqls5JF//PFH4Ua7h4cHLze5hZ0R5s6dq2lJSUkholatWolYVV1JSUn1LkMsFmGC6Lhx48QuxLA4C6yqKjZtGiOqfpjZOC5evPTss88KUTJo0KAbN27o68gPHjyIjY3VPP9lZWUVGBio31+Sd+/eFQaA5HI5F5eHwuIHb7/9to+Pj1wu9/X1/frrr4lowIABYpf20KOWIRZRenq6ubm5paVlVlaW2LUYEE+BVVzMhg9nREyhYLt2GfXUarU6Li7OycmJiCwsLMLDwxt5hZiYmBgeHm7712Ipbm5ukZGReXl5+ipYW2VlpbBrJhFNmLAoP98QJ9GPnJwcHx+fWqMzwv+lt956S+zqHhJ2q/fx8THmkgxP9NprrxHRokWLxC7EgLgJrDt37rz2WqhCoXRyYr/8Ik4NBQUF4eHhwoWbm5tbXFxcQ4+gUqkSEhICAgKE+CCivn37xsfHVxr0ypYxxtj+/fvd3Nr4+pZ6ejIJDnQIE2I1w8lt2rSJioqKi4sThmaIaMSIEWLXWE0YZVMoFJf0cmdafw4fPiz8ZEptsE+P+Ais3377TZiINHLkXNHvFF24cEFzhfjCCy/UWoHoUXJycqKiorz+2lPPzs4uNDT0qnFvQGZkVDz7LCNilpZSWRRMmBArTHek+ibElpaWTp48Wfjs+PHj//zzT3ELTkxMFDJUmpPCOnXqRETx8fFiF2IoHATWDz/8IIxuPvfccwa6aGoo4QrR0dFRc4X4qLl8rE7fwcfHJyoqSqx96yorWUQEk8kYEXv1VSbi7nmZmZmRkZGOfy2C/JgJsYyxuLg44WmkDh06POVvCEMoKSkRBhyFBbAkSFhIXsoPXTaS1ANrw4YNwszJwMDAxt810y/hClGYOuDu7l7rCvGJfQcRffstc3BgRMzLS4Tr65MnTwYGBmpmRXbv3j02NvaJXSdh/V+hc7pz507jlFpLSEgIEXXs2FH0jt6jaLZ3vSzB58v0QbqBpVarIyMjhZ/p8PBwKbzP63X+/Pn1hkgAABS0SURBVPk+ffpo30NsUN9BLOnpTLg8tLIy0uVhcbEyJiZGCB0isrS0HDt2bIOmZRcVFY0dO1b48tDQ0LKyMsNVW9ejliGWmrCwMOH/j9iFGIREA6usrCw4OFi4GS+ReS6PUVVVtWbNGgcHB+EKUTOd6plnntm4caNxFhXRQVkZCw+vntA/cqQBn528dYtFRDA3t9LmzVsQkYuLS0RExB1dn06Ii4sTrq+feeaZ5ORk/Zb6KFeuXBGuSXW402JkSUlJMpnM2to6X8r3g3UlxcDKz88fMGCA0Pn/7rvvxC7naeXn5wcGBtrZ2QnTqRr0MI2I9u5l9vaMiPn6st9+0+eRVSq2bx8bOrR6yIyITZoUu2vXrsbfw7p48WK7du2IqGnTpkYYYC4uLvbz8xNmhxn6XHoxePBgIlqxYoXYheif5AIrOTm5ffv2wqiQ1G4bP9HixYuJaOrUqWIX0jBJSaxr1+oJbnq5PLx/n8XGMj+/6pyysmLjx+vn6XSNBw8eBAUFEZFMJgsPD9fjklJ1CRv2dO7cWbKd5Vq+/fZbImrbtq305wk3lLQC68yZM8LQT5cuXXS+ZBDRSy+9RES7jDyrVR+UyoeXh+PHswYuxPTQjRssPJzZ2FQfqk0bFhVlwKVcY2NjLS0tiahnz54GGiUUNhy0tbXV4xMOhqZSqby9vanmIoimQUKB9eWXXwpjE0OHDjXCk8Z6p1armzdvTkS6Pa4sBVu3MltbRsT8/NjVqyw6mgUEsFqDNunpLCCAJSTUaKyqYgkJLCCgOqdkMhYQwOLjmRGWETx37lybNm2IqEWLFvv379fvwX/77TfhZ3L79u36PbKhLV26lIiGDRsmdiF6JpXA0iwtMGXKFCNM+zaEq1evEpGXl5fYhTRKYiLr3JmZm7MjR9jUqYyINW3KtFeKv36dETHNeuvZ2SwqqnppfGEZxdBQdu2aUWu+f//+G2+8obk81Nc878LCQiEKw8LC9HJAYyooKLC2tpbJZDdv3hS7Fn2SRGAtXLhQJpOZmZl9+umnYteiu3Xr1hHRm2++KXYhjVVSwoSeytSpzMqKOTmxMWMeflYTWFeusLFjq5fDJ2IdO7KYGPbo+bOGJay2KkzZ69+//927dxt/QCEEe/bsaeT5E/oiPPA4a9YssQvRJ0kElnBP0M/PT+xCGkUYmo2JiRG7EL2ZOpXZ2rI1axgRO3iwulETWAkJ1RsOCVeIUpgn9+uvv+prM46VK1cSkb29fUpKir7KM7JLly4J38JjHsPgjiQCa/Xq1cJMQk5/lQmEYU5TmmEsBFZVFevcmbVrx4RbZJrAUqnYkiVMauN1etmM49dff7W0tJTJZHv37tV7hcYkPGixbt06sQvRG0kEFmNMmFbD3dCmxr1794RpQVxvV1OLEFiMsaNHGRFbsICxOmNYEqR9eajDZhwFBQXC7545c+YYqEKjERaW6NChg2QfFGkoqQRWbGwsEfn7+4tdiI6E1XJN7KaMJrAYY8HBzNKS3bjBQWAJjh8/7ubmRg3cjEOtVgurSvXu3dugc7uMo6KiQljm5NixY2LXoh9S2ap+3LhxzZs3P3PmzPnz58WuRRenT58mIs2jzqZnxQqytqawMLHreGoDBw787bffhgwZkpubO2zYsH//+99qtfqJX7Vs2bJvvvnGwcFh9+7dwgwvrllYWAiL8wizyUyB2In50OzZs4lo4sSJYheiC2GvJ5P5PSbQ7mExxqKjGRH79FM+elgCYTMO4enOF1988fHLB585c8bCwkImk33zzTdGq9DQMjMzLS0t5XI5v9MDtUkosJKTk83MzKysrHJycsSupWGKi4vlcrmFhYVkVx3RTa3Aqqxk3bqx5s15CiyBZjMOd3f3R23GkZ+fLyyvOH/+fCOXZ2hjxowhog8//FDsQvRAQoHFGBs+fDgRRUVFiV1IwwhL0/bp00fsQvSsVmAxxs6erd6viK/AYozl5OQEBATQIzbjUKlUQ4cOJSJ/f3/TW1/41KlTROTo6Ci1FeV0IJUxLMGMGTOIKCYmRqVSiV1LAwg/EP369RO7EIPr1YsmThS7CJ04OTkdPHgwMjJSrVZ//PHHr776akFBgeazixcvPnTokJOT0549ezRbbZuMvn379ujRIy8vb8+ePWLX0mhiJ2YNarXa19eXiL7++muxa2kA4Vc373N26srLY6mptRtLS1lKCpPSZjENc+TIEWdnZyLy9PQUlg88fvy4ubm5mZnZoUOHxK7OUDZs2EBEPXr0ELuQxpJWYLG/ZhgHBASIXcjTqqqqEnYlML394BYvZnWfolMq2ZgxbMsWMQrSkzt37gj3c+Vy+YIFC4TZD5FG2+dSDKWlpcKO4r/++qvYtTSK5ALr/v37wj50Rt5RRmcXLlwgIh8fH7EL0b9Bg1jdR7mLihgRe/ddEerRo4qKitmzZ2s2WxswYIApzfit19y5c0li2zvqQFpjWETUrFkz4aE8YSqp9P19BrBMiYWFxYoVKwIDA2UymUwmS0lJ4XQC4NObMWOGubn57t27c3JyxK5Fd5ILLCIKCwuTyWRxcXEPHjwQu5YnM/kpo6bqxx9//Oqrr2QymZ+f37179wYOHLhq1SqxizIgLy+v4cOHl5eXb9y4UexadCfFwOrQocPAgQOLi4u3bNkidi1P9vPPPxMCizfZ2dlvvvmmSqVatGjR5cuXIyIiysvL33333ZEjR96/f1/s6gxFcxe+srJS7Fp0JfY1af2+/PJLIvLx8ZH4Q5upqalE1LJlS4nXqZtBg5itLZs8ucZ/ISHcj2FVVlb279+fiAYNGqQZuvr666/t7e2JyNfX9zf97sYhGWq1WthN48svvxS7Fh1JsYdFRK+++qqnp+etW7eOHDkidi2PIwxg9e3bVzN8a2Kqquj27Rr/paWJXVOjLViw4OTJkx4eHjt37tTsyfbaa6+dPXu2W7duSUlJzz77rEleHspksunTpxPXjxaKnZiP9H//939E9Morr4hdyONMnTqViJYtWyZ2IQZhkncJDxw4IJPJ5HJ5vc/oKJXK8PBw4a0xbty4Ep1345CqoqKipk2bEtGVK1fErkUX0g2s3NxchUJhZmYmtT2TtXXu3JmIGrR9MUdML7AyMjJatmz5xN8x27ZtE+bW+Pn5cfrGfgxhJIu7zegE0g0sxtj48eOJ6P333xe7kPoVFhYKT2tzvVDqY5hYYFVUVAj3RoYPH/7EMcfExMQuXboQUZMmTT7//HPjVGgc169fF7aGLigoELuWBpN0YAlTYxwcHKS5CsKBAweIqH///mIXYigmFlizZs0iIk9Pzz+ebqNEpVIZGhoqXB6OHz9emj+Euhk4cCDxuWGKRAfdBT169Ojdu3dhYeGuXbvErqUemIHFkf379wvrJu/atUt4SOWJFApFbGzspk2brK2tt27d6u/vf+vWPUPXaRz+/v5EtGvXroiIiMOHD2s/By5xMsaY2DU8zpYtW0JCQrp16yZsASIpzz///IkTJ/bt2zdixAixazGIGzeorIy6d6/RqFbTr7+Smxt5eYlUVsOlp6c/88wzBQUF0dHR77zzTkO//MaNG0FBQRUVfoWF8atWycaONUSNRlVRUWFvb69UKjUtCoXCzc2tjRZXV1c3Nzdvb29J3QGXemCVl5d7eXnl5OScOnVKUn2ZyspK4Z/8jz/+EDZ8BmmqrKwcMGDAL7/88vLLL3/77be6vf1KSkref1+9bl1TIpo2jVauJCsrfRdqXCkpKcHBwenp6c2aNcvOzi4qKqr3Zba2tl5eXt7e3q1bt/by8tL86ejoaNx6q0k9sIjoww8/XLJkydixY4UtQCTil19+8ff379ix47Vr18SuBR5n5syZa9eubdu27YULF5o1a9aYQ23ZQtOmUWkpde9O8fHUrp2+ahSfUqnMysq6XUdhYWG9r7eysnJ3d6/VHWvTpk3r1q2FLdwNhIPAunfvnrDtUmpqqrAFiBSsWLHivffee/vtt9evXy92LfBIe/bsCQoKsrKyOn36tLDufiNdukRBQZScTE2b0uefU1BQ4w8pafUGWWZmZlZWVr2v1w4yTYrpMcjkjT+Eobm7u7/yyitfffXVhg0bIiMjxS6nGkbcpS85OXnKlClEtHLlSr2kFRF1704XL9KUKbR7N40eTUeP0v/+R/xvr/NITZo0ERKnVntRUVFaWlp6enpqaqrwgfBnfn6+EGq1Xq9QKLQvKn18fEaNGqVDPRz0sIjo2LFjL774oqura1pamhQ2X2KMubi45ObmpqSk1P23BCkoKyt77rnnLl26FBQUJOwaqV+ffUZhYVRRQT170u7dhJ8CQVlZWWZmZt3uWGpqqnbU/OMf/7h+/boOx+cjsIioS5cuV69e3blzp7AFiLiSkpLat2/v4uLyqI4xiC40NPTzzz/38fE5f/688DCK3l24QEFBdPs2NWtGGzfSG28Y4iQm4s8//0xLS0tNTRX6Ys2bN58/f74uBxJtBlgDxcTEEFG/fv3ELoQxxoQVhQIDA8UuBOq3c+dOIlIoFBcvXjToiR48YKNGMSImk7HwcGZyG+5IjqQnjmoLCQlxcHA4deqUsCSxuDCAJWVJSUnCDPU1a9Z0rzWLTN+aNqX4eIqOJgsLWr2a+vUzhdUspIybwLK2tg4JCSEiKdyVQ2BJllKpDAoKKi4uHjt27L/+9S8jnFEmo3feoVOnyNubzp6lXr3o+++prIyWLqXoaFKra7x4/36Kjq7+OC6ONm2qfbTiYvrkEzp1ygiF80nsLl4D3Lp1y8zMrEmTJk/5LJiB3Lt3TyaT2djYVFZWilgG1GvChAlE1L59+6KiIiOfOi+PDRvGiFjbtiwrixExIrZuXY3XjB/P7O2rP+7Zk3XpUvsgd+4wImbSO/g0Cjc9LCJq167dkCFDlErlprq/mIxozZo1jDEHBwe5nINJIX8rmzZt+uKLL2xsbPbu3SvsvWZMLVvSgQO0ZAnt3Fk90cHGhubPJ573fJAczt5yM2bMOHjw4Nq1a2fPnq1ZK9IQSkpKsrOzc3Nz//jjj9zc3Ozs7Ly8vD/++OPEiRPCnUFhLitIx7Vr18LCwoho7dq1HTp0EKUGmYyEe1/C08RTptDGjTR7Nm3fLko5JoizwBo+fLivr29SUtJ333338ssv63ycwsLCzMzMwsLCrKws4QPtj+/du/f4DXtsbW0XLVqk89lB70pKSoKCgkpLSydPniyMdUqBkxMtWEARETRxIgUEiF2NSeAssGQyWWho6HvvvTdv3rxHBVZ+fn5ubm5eXl5ubm5OTk5eXl5eXp7QRcrLy8vJyXnU41HabGxsnJycnJ2dHR0dHR0dXVxchA+USmXz5s179erl6emp728OdDd9+vQbN2507txZamuxv/subdxI06fTlSukUNT+bH4+rVlTo8V0t+zRD84Ci4jGjh07d+7c69evjxgxwtnZuWnTprWu2p64hZFcLhfSx9nZ2cnJydHR0cnJSYikli1buri4ODk5WVtbG+fbgcZbv3791q1bbW1t4+PjpfYPZ2lJ//sfDR1KUVH073/X/mx2Nn38cY2WWncVoRb+AsvNza19+/aJiYnCgp91KRQKBwcHNzc3V1dX7Q80Hzs7Oxt0/AuM6cqVK7NnzyaidevWCXtYSc2QIRQYSEuXUt1L1Y4d6fLlGi137xL67o/BX2AR0U8//TRjxoxLly61bdt2yJAhta7apPCwIRhHcXFxUFCQUqmcPn36uHHjxC7nkVaupIMHKSKinqtCaBAuA8vR0TE+Pl7sKkB8kyZNunnzZteuXZcvXy52LY/j7k6RkTR3Lvn6il0K53iahwWgbfXq1V9++aW9vf3evXubNGkidjlP8M471KUL3bzZsK968IBWr6Y5c2jrVlKpDFMZVxBYwKVz5869//77Mplsw4YNXKzwI5fTmjXUoPWZy8upb1+6cYOeeYbWr6f33jNYcfzg8pIQ/ubu378/evTo8vLyd9999w1JrupiY0OxsdS7d43Gfv1ozx4qLq7+6wcf1NNpcnCg9eupZ08iIktL2ryZevUiIvL2pjFjaOVKQxcuddyshwUgYIy98cYbX3/9de/evU+ePPk3ucfyww/03nt05YrYdYgNl4TAn4EDBzo6Ou7atetvklaVlRQVRVOmiF2HBKCHBVwqKioy0DqiUqNW06RJVFJCu3cTpg+ihwVc+pukVUEBDR9OZma0YwfSigg9LADJys4mf39ijDTbGCxcSDY2otYkNtwlBJAoKytatqxGC1ZgQw8LALiBMSwA4AYCCwC4gcACAG4gsACAGwgsAOAGAgsAuIHAAgBuILAAgBsILADgBgILALiBwAIAbiCwAIAbCCwA4AYCCwC4gcACAG4gsACAGwgsAOAGAgsAuIHAAgBuILAAgBsILADgBgILALiBwAIAbiCwAIAbCCwA4AYCCwC4gcACAG4gsACAGwgsAOAGAgsAuIHAAgBuILAAgBsILADgBgILALiBwAIAbiCwAIAbCCwA4AYCCwC4gcACAG4gsACAGwgsAOAGAgsAuIHAAgBuILAAgBsILADgBgILALiBwAIAbiCwAIAbCCwA4AYCCwC4gcACAG4gsACAGwgsAOAGAgsAuIHAAgBuILAAgBsILADgBgILALiBwAIAbiCwAIAbCCwA4AYCCwC4gcACAG4gsACAGwgsAOAGAgsAuIHAAgBuILAAgBsILADgBgILALiBwAIAbiCwAIAbCCwA4AYCCwC4gcACAG4gsACAGwgsAOAGAgsAuIHAAgBuILAAgBsILADgBgILALiBwAIAbiCwAIAbCCwA4AYCCwC4gcACAG4gsACAGwgsAOAGAgsAuIHAAgBuILAAgBsILADgBgILALiBwAIAbiCwAIAbCCwA4AYCCwC4gcACAG4gsACAGwgsAOAGAgsAuIHAAgBuILAAgBsILADgBgILALiBwAIAbiCwAIAbCCwA4AYCCwC4gcACAG4gsACAGwgsAOAGAgsAuIHAAgBuILAAgBsILADgBgILALiBwAIAbiCwAIAbCCwA4AYCCwC4gcACAG4gsACAGwgsAOAGAgsAuIHAAgBu/D/TQhx7hxbESAAAAat6VFh0cmRraXRQS0wgcmRraXQgMjAyMi4wOS4xAAB4nHu/b+09BiDgZYAARiAWA2JxIG5g5GBIAIkxsoFpJiZ2BgUgzQzjYqeZkZRngPhMQAENEIOFA0IDFYLMYWGHGA/Vx8jM5gBRxuYA1gc0CB8DqhbFbkZmbqAXGJkYmJiBcgwsrAysbAxs7AzsHAwcnAqcXBpMnNwM3DwM3LwM3HwMfPwZTPwCCQKCGUyCQglCwhlMwiIMIqIMbEwMwnwJIkysTMwsrGxs/AKCQsJ84kKMkOABA7HLqicP2DDIO4A4D9fMPVA28409iK0/YeaBJRZb7UBskWt7D4g+UtgPYq9SXX1AYynDARB77dKyA53XP4DFu14mHMjxv74PxH5ew3EgJU8drPfzvPz90ZtswWqM1J/YGe5RAKupLlS0lylcBbZL0eSSfcO9drAa6/WmDtVLf4PZfrds7LNbBMB29f1VclgSxwU2s8Tyt7206iGwXvMGc4cdy3XB7ndJ6nawv6AIZq8TmudgcXwSWM17hUaH/mSfvSB25MXJDkk228HmNxUfdgh+fQ7MFgMAladntzBlgLUAAAIaelRYdE1PTCByZGtpdCAyMDIyLjA5LjEAAHicfVRbbhsxDPz3KXQBC3yL/IztICiK2EDr9g797/1Rcg1nlUCodkloiZFEcYZ7aDV+XL7/+ds+Bl0Oh9bgP29EtN8MAIf3VpN2en37dm3n+8vpGTnffl3vPxtRI841+XzGvtxv788Itls7WidXt9Goiwt7NOiwjX0ptXM7Sg8arNyweyF5AeR2LeAId81wT3iIL4BSO2oPJnZuR+hGLtuSr0h9IFk833akDgjgK6QVkrsru1E7ZpqOOlanjwdSUUilThcCpRXSC0kdmazq2dFYYSyAUTeHvJABRs2GZJ6rGmGSlGERNaRColrY6nAsgrI0DMaeZWfO+6wOxyIIuwkRWt0cDGV5cyyGqDu7ExQyTJOsFVK2NAePAVY1IHVwWiGLIuoqNsiqRqxIyzRtSzOMLDAnijZ0CRzbjqlKAszJQGZbHl38SMpMh2jlQM6sK2BswOAYqR3smMnCCkiwAYGVBhQ7IBGwkhvhhjQMzp2ylJL08BJZ9FhHGNUViTQ0XV789Xr51KGPnj3drpe9Z+uhvTPzo/Hef5gme5dhmu6thGm29wumjb0pMM135WNa7PrGslnFVA5xUituEZpkiZvjSX6PiEwye0R0kpOUQ5t0I+VwTAKRcuiTEqQcxkS5lKOZWyxHOHGI5YgmrqoMHxln18u2UGeOZkbq+/kHzvnhH/rnFd2s1hKAAAABF3pUWHRTTUlMRVMgcmRraXQgMjAyMi4wOS4xAAB4nCVQOY4DMQz7ypYzgEfQfSBI5T55RL6Rx680cWXTJEVq7w995tA+9nm8zn083+drb9p7v2i//76HA2GkrYvAyc3XQ/tSQoOokMkgKMaxLgTUyqqbVVKRi4DUY95iFrYYjFN0PRjSg/sdJNICgnL2aoGRhw/BWikLgcSo7ZviyswzGZ001wMhJAJ9XQxsiXn7SuZNKreqIamaE08+Mi+/hS7oMvmkSzTSnyWOVEMLJcRu1rYk7DwhXAw7xCUdUNmGpozd5sbSJH2GZv7sDERTbJJhm/2gEu6ZrXROtYYUorLXi70eqanUUHG0sK00dUI4cFpG72qAWuf3H5l6WgcAFI7eAAAAAElFTkSuQmCC;clipPath=inset(25.67% 0% 27.67% 0%);" vertex="1" parent="1">
          <mxGeometry x="300" y="438.1" width="255.69" height="119.32" as="geometry" />
        </mxCell>
        <mxCell id="yoPPsw2FuR2WmIkUcgj8-34" value="" style="shape=image;verticalLabelPosition=bottom;labelBackgroundColor=default;verticalAlign=top;aspect=fixed;imageAspect=0;image=data:image/png,iVBORw0KGgoAAAANSUhEUgAAAZAAAAGQCAIAAAAP3aGbAAAABmJLR0QA/wD/AP+gvaeTAAAgAElEQVR4nO3de1xUZf4H8M8Mw028gKKCIKJ5T9uUMiuzVNIsrdbENfNWKq1pdLNw+7Vpm9uO6ZrmZmHm3VK0TN0uK6vZekltRM27KHJHlIsolxmYmef3x6FhRFSuc+YZPu9Xf8DDzJzvGPPhnO95znM0QggQEclAq3YBRERVxcAiImkwsIhIGgwsIpIGA4uIpMHAIiJpMLCISBoMLCKSBgOLiKTBwCIiaTCwiEgaDCwikgYDi4ikwcAiImkwsIhIGgwsIpIGA4uIpMHAIiJpMLCISBoMLCKSBgOLiKTBwCIiaTCwiEgaDCwikgYDi4ikwcAiImkwsIhIGgwsIpIGA4uIpMHAIiJpMLCISBoMLCKSBgOLiKTBwCIiaTCwiEgaDCwikgYDi4ikwcAiImkwsIhIGgwsIpIGA4uIpMHAIiJpMLCISBoMLCKSBgOLiKTBwCIiaTCwiEgaDCwikgYDi4ikwcAiImkwsIhIGgwsIpIGA4uIpMHAIiJpMLCISBoMLCKSBgOLiKTBwCIiaTCwiEgaDCwikgYDi4ikwcAiImkwsIhIGgwsIpIGA4uIpMHAIiJpMLCISBoMLCKSBgOLiKTBwCIiaTCwiEgaDCwikgYDi4ikwcAiImkwsIhIGgwsIpIGA4uIpMHAIiJpMLCISBoMLCKSBgOLiKTBwCIiaTCwiEgaDCwikgYDi4ikwcAiImkwsIhIGgwsIpIGA4uIpMHAIiJpMLCISBoMLCKSBgOLiKTBwCIiaTCwiEgaDCwikgYDi4ikwcAiImkwsIhIGgwsIpIGA4uIpMHAIiJpMLCISBoMLCKSBgOLiKTBwCIiaTCwiEgaDCwikgYDi4ikwcAiImkwsIhIGgwsIpIGA4uIpMHAIiJpMLCISBoMLCKSBgOLiKTBwCIiaTCwiEgaDCwikgYDi4ikwcAiImkwsIhIGgwsIpIGA4uIpMHAIiJpMLCISBoMLCKSBgOLiKTBwCIiaejULoCkYjZj3z4kJECjQdeuuO8+uLmpXRM1IAwsqrKDBzFmDM6fR0gIvLyQkICuXbF+Pe66S+3KqKHgISFVTWoqhgxBUBBSUpCcjDNncPYsPD0xeDAuX1a7OGooGFhUNf/8J0pKsHEj2rYtG+nYEV9/jZwc/OtfqlZGDYhGCKF2DVRzK1asmDNnTn5+flBQkLu7OwBfX1+NRuPm5ta0aVMAnp6ejRo1AuDj4+Ph4QHgrjZtxhQXQ6tFs2YA4OEBHx8A8PGBhwcANGsGrbb8AY0aISAAXbsiNBQ//lixgr59IQQOHHDUO6YGjT0sib3//vvvvvuu8nVOTk4VnzUkLGzMoUPV2MzAgdixA0lJGDCgkp+2b4+ffqrGqxHVAgNLSmaz+Z133pk7dy6A7t27r1y50sPDw2w2A8jLy1MecO3aNQBGo7G4uBhAQUFBaWkpgAAhEB4OiwVXrwKAyYSiIgAoLERJCQDk58NqhdWK/HwACA4GAKsVusp+Wzw8YLHU+xuuhcTExK1bt7q5uU2bNk2rZQ9EcoJkc+nSpQEDBgDw9PRcunSpg7YaEiKeeqqS8YcfFnfd5aAaqm/z5s3KkTIAPz8/vV5/8eJFtYuimmNgSebQoUMhISEAgoKC9u/f77gNjx0rWrUSRuN1g/n5onFj8fLLjiujOtavX6/07zw8PNx+ny/m7u4+YsSI77//3mKxqF0gVRsDS3zyySfPPvvsjBkz1C7k9lavXu3t7Q2gX79+mZmZDt32r78KNzcRFSVsn/PSUjF+vPDyEmfOOLSSKjCbzdHR0RqNBsATTzyRk5NTUlKyffv2iIgI2w5XmzZtoqOjExMT1S6WqqGhB9Y777xjOzpu37793r171a6ocqWlpdHR0UqdkZGRJSUlKhTx2WdCpxM9eohXXhEvvyw6dxaenuLLL8t+WlQkrFYVqrpBTk7O4MGDAeh0Or1eX+GnmZmZCxcu7NGjh/KPqdVqw8PDY2NjTSaTKtVStTTowFqxYoVOpwPQsmVL5QuNRjN27NiUlBS1S7vOpUuXHnnkEaVp9cUXX6hZypkz4q9/FaNGidGjxXvviQsXysZLSsSQIWLkSFFcrGZ5Qhw9erRDhw4A/P39d+zYcYtHGgyGyMhIH2VKB+Dn5xcZGfnbb785rFSqgYYbWHq9XqPRaDSat956SwhRUFAwa9YsLy8vAN7e3tHR0fn5+WrXKIQQBoNBaVoFBwcfOHBA7XJu4sgR0aSJAMTAgeLKFbWqWL9+vRJAvXr1SkpKqspTrly5EhMT06tXL9uOdlhYWExMTEFBQX1XSzXQEAPLarXOmDEDgJubW0xMjP2PUlJSxo0bp/Q+AgMDY2JizGazWnUKIWJiYpTZng899JCzn9767TcRHCwAceedIjnZwRu3b1qNHTu2qKjI/qdffPGFwWC49SsYDIaoqKjmzZsrsdW0adPIyMjbPoscrMEFltlsfuGFF5QzR7GxsZU+5uDBg/369VN+cbt37/799987uEghhNFojIyMVLlpVV1paeIPfxCACAwU8fEO22x2dvajjz5aadPKZDJNnToVQEhISFV2moqLi2NjY8PDw5XsU34B9Hp9dnZ2vZVP1dCwAstoNI4YMQJA48aN//Of/9zikVarNTY2tn379spvbXh4+LFjxxxWZ3p6+v333w/Ay8tr+fLlDttuHcjLEw8/LADRuLH44QcHbPDIkSPK/6aWLVvu3LnT/kf2E9aWLVtWrZc9ffp0dHR0y5YtlV8ALy+viIiIuLg4q3OcWGiwGlBg5eXlPfTQQwCaN2/+yy+/VOUpJpNp4cKFzZo1U+bvREZGZmVl1Xede/fuDQwMVJpWBw8erO/N1T2TSYwZIwDh4SHWrKnXTX311VfKTKvevXtXaFrVyYQ1k8kUGxs7bNgw2zSuzp076/V6B/waUKUaSmBlZmbefffdyqHB6dOnq/Xc7OzsqKgo5TSiMlvaWGH+ZN2xNa369+/v7E2rW7BaxaxZAhAajZg1qz62oDStlBC5sWlV5xPWUlNT9Xp9u3btlC16eHgMGzYsNja2tLS09i9OVdcgAisxMbFTp04AunXrVuMpC6dOnXriiSeU39eOHTvGxsbW7dGB0WicMmWKZE2rW/v8c6HTCUC88IKo0w92dnZ2eHh4pU2rep2wZrFY4uLi7GefBgUFcfapI7l+YB0/fjwoKAjAvffee+nSpVq+WlxcXM+ePZVf1r59++7bt69OikxPT+/bt6/SK1mxYkWdvKZT+PZb0aiRAMTgweLq1Tp5ycOHD9+iaeWYCWuZmZl6vb5jx472s0/XrFlTWFhYfxsl4fKBtX///hYtWgAYOHDg1Tr6wJSWlsbExLRu3VqZaBoREVHFKT83s2fPHqVp1bZtWymbVre2b5/w9xeAtW/f7Fq3fr788ktb0yr5+skTjp+wZrVad+zYMWbMGGX6npJc48aNc8CmGyxXDqxt27YpjYynn366uK5nYF+7ds020bRRo0bR0dE1C0T7ppXLtnLPnROdO8f279++ffvqNhBt7JtW48aNq9C0WrVqlfL/QpUJa8rsU+XkDACX2kd2Mi4bWGvXrlUaDX/+85/r77p8+4mmbdq0qdZEU6PROHnyZJdqWt1cQVbWvffeC8Df378Gx9G3aFqZTCbnmbAWHBwM4LnnnlOxBtfmmoG1ePFiZam26OhoB2zuwIEDDz74oPKZ6d27908//XTbp6SlpdmaVitXrqz/GtVXUFAwfPhwpcG0YcOGqj/RvmlV4d/W2SasKZNUIyMj1S7EZblgYOn1eqW7NH/+fIdt9MaJpsePH7/Zg/fs2RMQEKA0rX799VeHFak6s9n80ksvAXBzc1u8eHFVnmJrWoWFhVVoWjnhhLVvvvkGwBNPPKF2IS7LpQLLbDa/+OKLyoGDKn9vi4qK9Hq9cvcHZaLpjeclbU2rhx9+2GWbVre0cOFCZf83KirqFkfr9hMUbmxaOcmEtU2bNs2aNcvWvjxx4gSATp06qVWPy3OdwDKZTKNGjVJa4N99952KlVy+fDkqKkqZG20/0dRoNE6aNMnWbWnIcw5jY2OVHvkzzzxTIYkUly9fHjRokDJFs8IF6k41Ye2uu+4CYLtG2mQy6XQ6nU7H1bXqiYsEVkFBwZAhQwD4+vru3r1b7XKEEOLkyZOPP/648rnq1KnTZ599dt999yndllWrVqldnfp27typnFa7//77L1++bP+j+Pj40NBQ5TxGhQ69s01YGzlyJIB169bZRu644w4Ap06dUrEqF+YKgZWTk6N0XgMCAo4cOaJ2OdfZtm1b165dlaNUAB06dDh69KjaRTmL48ePKzOnunfvbpvLtm7dOqVp9cADD2RkZNg/3jZhzXmaVv/3f/8HYJbd5UdDhw4F8O2336pXlCuTPrDS09OVqeft27dPSEhQu5xKlJSUTJkyRaPR9OjRIycnR+1ynEt6erpyjWdgYODBgwftr6qpcFTlJE2rClavXg1g9OjRtpFXX30VwNy5c1WsyoXJHVinTp1S/kT36NEjPT1d7XJuSvk7/Pbbb6tdiDO6cuXKwIEDbTuhnp6en3/+uf0DnHnC2v79+wH06tXLNvLpp58CmDRpkopVuTCJA+vXX39Vlivq37//FfWW5a0Kpb/29ddfq12IkzKZTE899VRoaGizZs0qrPxjP2HNGZpWFSi3rfXx8bFdCb9z504A/fr1U7cwVyVrYO3cuVOZPTBs2LBKTzM5FSVYkx2+cLBETp06BSA0NNR+UIoJa61atQKQmpqqfJuWlqbMcVW3qspduiT+8hdx772iQwfRq5d45RXHL2ZdS1IG1ubNm5WT4mPHjnWqA4RKJSUlKZekqF2IUyspKXF3d9dqtfZXfa5du9b5J6wpq0La7tBjtVqbNGkCwOn6lefPi6AgERwsZs4Uq1cLvV507Cj8/MShQ2pXVg3yBdb48eOrMu3QeWzatAnAY489pnYhzq5z584AKixFvWXLFnXvA3JbSn9tyZIltpHevXsDqOKqto4zcKAICRH2M5nz88Wdd4pu3YQMnyOFFlL5+OOPV69ebbVa33jjjUWLFinJ5eQOHToE4J577lG7EGfXpUsXAGfPnrUffPLJJ23LEzsnJWfPnDljG6n0jajs/Hns3IkZM/D7KvUA0LQp3n0Xp05h7171KqseCT7w9n766SeNRtOtW7f58+erXUtVKYEVFhamdiHOTvmc23/ypXBj2TdGmPoMBgC4++6K48qvpfJTGUgWWK+99hqAlJSUnJwctWupEiEEA6uKnPFzXgU37k85Y/Lm5QFAYGDF8aAgAMjNdXQ9NSVZYPXv3z88PLywsHDp0qVq11IlSUlJOTk5LVu2bNu2rdq1ODtnPJKqgg4dOri7uyclJRmNRmXEGd9Io0ZAZcGk/OH38XF0PTUlWWABePPNNwEsWrTI9vvhzAwGAwBl7Tq6NWfcMakCd3f39u3bW63W8+fPKyNdunTRaDQJCQkWi0Xd2sp16wYAv1dYTknV7t0dXU9NyRdYjz76aK9evbKystatW6d2LbfHjnvVtW7d2tfXNzc3Nzs7W+1aqqfCwayPj0+bNm2MRmNqaqqqddnp3RuhoVi2DEJcN750Kfz8MGiQSmVVm3yBBeCNN94AMG/ePKvVqnYtt8EGVrUod2OTbidLgr67mxsWLcKuXRg3rmyvKjkZ06dj/Xp8+CEPCevXn/70p3bt2p05c+bf//632rXcihAiPj4eDKwqk/SoUI6++5NPYvNmHDiALl2g0SA0FN9+i9Wr8ft1mlKQMrB0Op1yTfy8efPUruVWEhMTc3NzW7durdwYkW7LGdvVVeDUU7HMZgwdiiVLYDbjySeRkICEBOzfj9OnkZqKcePUrq96pAwsAFOmTGnRosWePXt++eUXtWu5KeV4kB33qnPGHZMqcOpDwu+/x48/YvFi2ObfduyI++4r28+SjayB5ePjoyzf7swzSNnAqi4n+pxXR0BAQIXTBU6UvMuWAcCUKeXx9PHHmD8fsp3ZKKP2tUE1l5WV5eXlpdVqT548qXYtlVOWedq6davahUijqKhIq9V6eHhIt+C9sh+9d+9e5Vuz2ezl5aXRaAoKCtQsKzNT6HTCw6P8EsLSUhEYKADhbJc6Vo2se1gAWrVqNXbsWKvVumjRIrVrqYT4vePOOQ1V5+3tHRwcXFJSoixxIZEKu1Rubm4dOnQQQpw7d07Nsr74AmYznn66/BLCbduQmYkePdC3r5qF1ZTEgQVgxowZWq125cqVFy9eVLuWis6dO3flypU2bdoE3ng9BN2cE7Wrq+NmfXc1jwqFwIoVAK47D6gcIUp1ZtCe3IHVpUuX4cOHm0ymZcucbhIpp4zWjPqf8xq5MWfV78ft2IHz5xEaWj4vNC0N//kPPDzw3HOqVVU7cgcWgLfemtWnz5ZFi14rLFS7lOux414z6n/Oa+TGnFU/eb/4AgAmTYJtFably2Gx4Jln4O+vWlW1I31gPfBAL53uyexs7fLlapdyPeUqQgZWdcl7SKjVas+dO2c2m5URld9ITg6+/RZubpgwoWzEaq3kCFE20gcWgBkzAGDBAvz+q6I+IcSRI0fAwKo+9XdMasR2uiA5OVkZUe5HqdobWb0aRiOGDoVtmZC4OCQloX17PPKIOiXVBVcIrKeeQrduSErCpk1ql/K7hISEK1euBAcHK/dQoKpr27att7d3RkbG1atX1a6leioczDZv3rxFixZXr15V54yQ7XiwwsjkyZBhnd6bkbh0G60Wr74KAHp9xWvR1cLjwRrTarUdO3YEkJCQoHYt1eM8890Lr/1yKbKZ+Y8DMGxY2VB2NrZuhU6HiRMdXEzdcoXAAjBhAgICcPQofvpJ7VIAsONeO5IeFTrPJdDZuctSH9yXtbgvdLqyoZUrYTLhiSfQpo2Di6lbLhJYnp6YNg0AnORqaM5pqA1J++5dunRp06aNt7e3/Qgc/kas1oK8vI2Axt//edvgpZA9pY/1wRSJ2+0K3e0fIolp0zB3Ln78EUeOVLLWviNZrdbDhw+De1g1Jeke1uDBg9PT0+1HVDkkzM390mK51qTJAE/PTspIQcGe1Du2XJwb2LPnY/Jd7nw9F9nDAuDnhxdeAIAFC1Su5OzZs1evXg0JCVHuCUzVJelUrBuFhoYCOHDggHKRlmNkZy8D4O8/2W7kCwD+/pM0Gul3UFwnsAC89hp0Oqxfj5QUNctgx72WbEdSwknOodRIWlraiy++6O7unpOTExYWduedd86dO7e+7/ZUXHyssPBXNzdfX98/KiMWS75yhNiixcR63bRjuFRghYYiIgKlpVD3amh23GvJ19e3VatWhYWFFY6wJLJz585evXoZDIagoKCxY8f6+/ufPHly5syZISEhEyZM2L17dz1tNzv7cwAtWozXastaabm5X1qthU2bDvL0vKOeNupQ6i4WUeeOHBEajWjSROTlqVbDQw89BODHH39UrQL5Kf+GO3bsULuQmoiJiXF3dwcwdOjQ3NxcIYTJZIqNjR02bJjtLtadO3fW6/UXL16sw+1aLMVHjjQ3GFBYeNg2ePJkmMGAnJyv6nBDKnK1wBJCDBokAKHXq7N1i8XSpEkTAJdsKxBR9U2ePBnAkiVL1C6keoqLiydOnAhAo9FER0dbLJYKD0hNTdXr9UpvC4Cbm1t4eHhsbGydrP+Vk7PWYMCpU/fZRoqKjhoMOHKkhcVSXPvXdwYuGFg//igAERIibvhtcYQTJ04AaNeunQrbdiEffvghgFdeeUXtQqohJSVFWcavcePGGzduvMUjLRZLXFxcRESEsiMGICgoKDo6OjExsTYFnDnziMGAy5eX2kaSk6cZDEhJebU2L+tUXDCwrFbxwQciKUmdra9evRrAM888o87mXcWWLVuUQyr7waNHj44ePfq///3vjXsuqvv555+Vk8IdO3Y8duxYFZ+VkZHxj3/8Q5nZD0Cr1c6fPyk3d5PVWlLdAozG8waDJj7ex2zOV0YslqLDh/0MBhQVHa3uqzktl2q6KzQa+Pri66+vuxa6oABz5+LUqfraaHFx8enTp+Pi4pTAYse9liqdirVs2bL169eHh4e3a9du5syZtsuMVbd06dLw8PBLly4NHTr04MGDPXr0qOITAwMDZ86cmZCQYDAYIiMjvby8wsJOJiaOPHq0dXLyi8XFx6peg5tb48DAd1u3ftXNrakykpe30WLJ8/G539v7rmq/JWelETKfOb6Z0FAkJ2PBArz2WtlIZibatMFXX2H06Fq9cl5eXmJiYmJiYkZGRmZmpu2LCxcu2P4lQ0NDJ0yYMHv27FptqWErLS318fGxWCyFhYVeXl7KYGZm5urVq5cuXZqYmAhAq9UOHDgwMjLy6aefth1bOZjRaPzzn/+8atUqjUbz1ltvffDBB9paXFqcl5dnNH6Zl7e0uPg3AICmceOH/P0n+/mNtJ31q7ozZx4uKPhfu3bL/P0n3f7RknDZwCopQUEBTp5EcDBQzcDKy0NqKlJSkJKCnJxrZ85MTU5OTk1NTU9PN99kCRsvL6+2bdu2bdu2pKRkz549QUFBZ8+ebdSoUZ2+rYalc+fOCQkJx48fv/POO+3HrVbrvn371qxZs2bNmuLiYgABAQETJkyYPHmy7djKMVJTU0eMGGEwGBo3brxy5cpnnnmmrl65qOhQTs7q3Ny1ZnMuADe3pn5+o1u2fLFRo943f5IoLc0Qwuzu3kajcQdEVtY/c3PXd+myS6ttXFeFqc5lA2vkSGzbhh498PXXQGWBVVKC7GxkZiIxEYmJyMgo+/r8eVy5Uv5STZuKq1fL/2b6+fl16NAhMDCwTZs2HTp0sH0dGhqq/Gm1Wq19+vQ5dOiQXq+Pjo524Jt2NeHh4Tt27Jg4ceKHH37Y0nYPBTtXrlyJjY1dsmTJ0aNHlZGwsLDIyMixY8c64E/Fzz//PGrUqEuXLnXq1Gnz5s0VUrVOWK3G/Pxt2dlLr17dAQgAXl7dW7QY7+8/Radrbv/IS5cWZ2TMsljyALi5NQkMfLd16xl1Xo9TULWDVl/atRMzZ4rt2wUglJtsZWQIQHz1lYiNFffeKwICBHDT/5o2FXfeKR5/XLz4opgzR6xZs27Xrl3nz583mUxV2frOnTsB+Pr6Zmdn1+/7dF3Xrl1r3bp1s2bNAHh4eAwbNiw2NtZsNlf6YKUB1Lhx2X6Er69vZGTk4cOHK31wnYiJidHpdAAef/zxvPqf8ldcfCotLfrIkZYGAwwGxMd7nT8fkZ8fJ4RVCHHlyncGA1JTXzcaz5tMKXl531y9urO+S1KLKweWEGL4cBEaKgoLywNr5cqyVHJ3F4GBIixMRESI6GixcKGIjRUGg0hPr4MCBg8eDOC1116rg9dqkN544w0AnTp1Gj58uO73NVJCQ0P/9re/paamVvqU/Pz8VatWhYeH2/4Yh4WFxcTEXL16tQ4LKy4uHj9+PG4+06r+WK3GnJyvzpwZZDBoleQ6frxbaWl2Ssr0w4f9HFaGulw8sBIThbe3+MtfygMrK0v88otIT6/fWVpHjx5Vbgh67ty5etyMizp+/Li7u7tWqz1w4IAQIiMjQ6/X33FH2ZUlWq1WmWxZUlL5uf8TJ05ER0f7/36fBW9v74iIiLi4uNoXlpycrJz/bdKkyddff137F6wZkyk1M1P/22/tTpy4SwiRkhJ16JDOfna7C3PxwBJCvP++8PISe/aUBZbDjBs3DsCYMWMct0mXYLVaH3nkEQAvv/xyhR8ph362/lRAQEBUVNTNJj0ZjcbY2Njw8HDN77do79q1q16vv3z5cs0K++mnn5RWWqdOnY4fP16zF6lDVqvZZEoWQhQVHYmPbxQf752U9MK1a7vVrqt+uX5gGY2ic2fRv7+jAys1NdXb21uj0RgMBsdtVX7Lly8H0Lp165v1hvLy8mJiYu62W/NMOfS72U3hz549O2vWrLa/34vB09NT2eGyWq1VLMlqtS5cuFA5Mn3iiScc0LSqruLi0ykpUUqT68SJnsXFp9WuqL64fmAJIeLiyvpWjgwsIcSbb74J4JFHHnHoVmWWk5OjzBdfu3btbR+s7HApV24CaNasWWRkZHx8fKUPNpvNytUwto5Y27Zto6Ojk5OTb72Va9euRUREqNK0qi6rtTQ3d8Phw36nTt0rhMjOXpGWFm00nlW7rrrUIAJLCDFqlAqBlZeX16JFCwA//PCDQzcsrcjISAD9+/ev+u5PUVGRcuhnv8O1cOHCnJycSh+fkpLy3nvvtWvXTnmwTqd76qmnTp+ufJfk3LlzPXv2VJpW33zzTQ3flWOlp//VYNBYLMUnTvxB6c2fPBl2+XKMxVL5HqhcXDOw/v1v8dtv141kZYnYWJGS4uhK5s2bB6Bnz543OyVPNgcPHlTOVJw8ebIGTz958qR9r93Ly+sWh37K5cfjxo3z9vbWarWV7mf98MMPfn5+ADp37nzixIkalOQo173BCxeeP3zYVwhrYaEhKSny8OEmSmwdPtwsKSmysLDyPVBZuGBg/d//iTVrRJX/Qtcvk8nUoUMHACtWrFC7FqdmNpt79eoF4O23367N69zYa+/SpYter7/Zaj9ZWVk3rqxgtVr1er2ydtWwYcOuXLlSm5Lq24UL48+d++OlS0tyctYlJ08zGLTJydNsP7VYinJzY8+eDVdiS9nhyspaWFpa+R6ok3O1wDpyRLi5CQ8PUbuFOurSmjVrAAQFBRUWFqpdi/NatGgRgJCQkJv1zqsrJSVFr9eHhIQoseXh4REREbF169bb7upeu3Zt5MiRzt+0siVOfv72CxcmnDzZ67ffgk+ffuDSpU+s1kpW1youPpmWFn3kiH+ls09l4WqB9eijAhCvv652HXYsFosyeUev1qKCTi8zM9PX1xfAli1b6vaVbStP2XrtwcHB0dHRSTdZfighIUFZa6FJkyabN2+u22LqkNmcHx/f+K2VBwwAABLnSURBVMyZQVZrla6+sLFYinNy1p05M8Bg0CjJFRV1/qOPhCwXZbhUYG3ZIgDh5+d0//q8WOfWnn32Wdyw+lXdqsrsU/umVc36aA5z6dKnBgPOnBlkG6luchmNCWlpM3fvHuDuLgDh4SEiIsTWrcLJe62uE1ilpaJ7dwGIRYvULqUyvFjnZnbt2qXRaLy9vWu53mZVWCyW3bt3R0ZG2m53GhAQ8Pzzz2/fvn3IkCHK5evO37QSla3UfuHChFOn7iss/LVar2M2i7g4EREhdLqyqT/BwSI6uvL1L3fvFv/733UjJpOIixPKwvTnz4uDBys+pdLB2nCdwFq0SACiSxdxkws2VMaLdSplMpm6desG4IMPPnDkdi9fvrxgwYLu3bvjerNnz676jAq13LhSu9l8JT6+kcGgMRpr+NuVkSH0enHHHWWxpdWK8HARG3vdpyk0tHw1AUVmZvlsoZdeEsHBFV92+nQRGFiziirnIoGVmyv8/Sv+azobXqxzozlz5iiHYEajUZUCDh482KVLF61W6+npOXv2bFVqqK4bV2q/dOkTgwFnzz5ay1e2WMTu3SIyUnh7lyVXQICIjhYJCUIIERoqvLzKVhNQMLBq6LXXBCAGDFC7jlvixToVJCcn+/j4wAlu51VQUOD8O1YKu5Xaj9gGT57sbTAgN3dDXW3l8mWxYEFZj0VZ2uTyZREaKqZMEX5+5bOyHR9YrrCme2IiliyBVot589Qu5ZaCg4OnT58uhJgxw0UXV6um6dOnFxYWPvfccwMHDlS3Eh8fH9u8LSeXl7fJYsnz8enr7f0HZaSo6FBRUbxO18LX96m62oq/P157DSdOYO9ePP88RoyAMiG3RQvMmoX58/H7momOplNns3VqxgyYTJg0Cc5/54e33357+fLlu3bt+uGHH4YOHap2OWr69ttvt23b1rRpU+WOXlRF2dnLAPj7T7Yb+QJAixYTNBrPOt/cAw/ggQeuG3npJXz+OaZPx//+V/HBubmYOPG6kQMH6rge6fewfv4ZmzejcWO8/77apVSBr6/vzJkzASgzEtUuRzVFRUWvv/46gL///e9t2rRRuxxpGI1nCwp2a7WN/fxGKSNWa3Fu7lcAWrR4wTE1uLtjyRLs3YuVKyv+SKOBp+d1//1+o+u6U5fHlw5nsYh77hGA+Nvf1C6lynixjhBCSe3evXvzEstqSUt7y2BAUtIU20h29gqDAadPP+iArYeGlnevxo0TrVqJ06fZw6qONWtgMCAoCK+/rnYpVebh4fHee+8BeOedd4qKitQuRwVnz5796KOPtFrtJ5984lb3f4JdV2lpQdJWAPa37VKOBx1/I69581BSAr3ewZuV+ZCwqKhow4ZkAP/4B3x81K6mOsaMGRMWFpaenr548WK1a1HB1KlTTSZTZGRk37591a5FKtu2dRl0oceXET4+9ykDRuOZgoK9bm5N/PwiHFxL69aYMwerV1fvWbm5OHYMxcU1367EgTV//vwffgiNiPjouefULqWatFqtsuyMXq/PyclRuxyHWrNmzc6dO1u0aPG+FE1Hp7JsGUwmz3b9bAN56SsB0bz5GFXuPDh1Ku65pxqPX7AADz0EvR49etTiJGNdHl86UHp6ujKF538VLhaQRwO8WCc/Pz8wMBDAypUr1a5FNqmpws1NeHoK25r0JpMICCh97N7iy4ccU8Jf/iIqLGJ46JCIjCy7+GbdOvHWWxWf8uWXYsaMsq8//1woNzBatEhMmlTDGmQNrIkTJwIYOXKk2oXUXAO8WGfatGkA+vXrJ8ssTScye7YAhP1lErGxAhB33aVeTTW0dKmIjKzhc6UMrMOHDysf9bNn5V6vWrnDXQO5WMdgMLi5uel0uiNHjtz+0WTPYhHt2glA7LS7Q+rgwQIQ//qXemXVREGB+MMfxO6a3txHysBSFvCeYdvXlFZaWloDuVjHYrEoLfY333xT7Vok9MMPAhAdOpQvpJuSItzchLe3yM1VtbLqMRrFsGFizpyav4J8gbV582YAzZs3v9ldBuTSQO6s88knnwBo27bttWvX1K5FQiNHCkDYL2jx7rsCEOPGqVdTtSUni/vvF4sX1+pFJAuskpKSzp07A/iXbHvCN2O7s87333+vdi31JSsrS1kYT8W7JUvs8mXh6Sl0OpGeXjZisYiQEAGIXbtUrax6/P2Fn58ICxNhYWL06Bq+iGSBtWDBAgBdu3a92W3KZaTX6wH4+Pi40puyp7TqBg8erHYhcvrwQwGIp58uH/nuOwGIzp2d5VYrDiTTPKy8vLy///3vAObPn+/u7q52OXVm6tSpOp2usLAwLCzs8OHDapdTx7Zt26bchiM4OFjtWuS0YgUATLKby/7FF2UjkqwwUZfUTsxqeOWVVwAMHDhQ7ULq3uzZs23Lm3Tv3l2ZUKp2UXWgqKjIy8sLgHIJDqdfVduZM8LLSwQFla+1fvGicHcXOp3IyFC1MnVIE1jnzp3z8PDQarWHDjlompyDbdmyJSoqSulnAWjUqNHEiRP37Nmjdl01dPz48VmzZilvx93dff78+QC8vb1d/nxo3cvNFfv3l3+r1wtAjBihXkFqkiawnnrqKQBTpky5/UNlptwHdNiwYbargpX7gGZlZaldWpUcP3783Xff7dq1q20X3tvbe8OGDUKIyZMnA2jXrt1l21xtqgFlfZLvvlO7DnVohBA1OJDcvn17fn6+/UheXl6FxxQUFJSWltqPmEymCusTWCyWq1evVnhifn6+1Wq1fZuenn7q1Km8vLzGjRsnJCQEBATUoGDppKWlrVu37tNPP01OTgbg4eExePDg8ePHjxgxwglXOLhw4cLWrVvXrFlz6NAhZUSr1Vqt1unTp8+bN085KjSZTP379z948OCgQYN+/PFH240C6ab278d//oOMDDRtivvvx5NPQqdDYSE2b8azz9bDWlMyqFnO9ezZ0/Gljho1qk7DWgK2+4DaTjIEBQVFR0dfuHBB7dKEEOLChQsLFy588MEHbf+P/Pz8xo0bt3Xr1pUrVwJwd3ffbTepOSMjQ1muj9NHb6OkRIwbV3blzZgxYsgQ4ekp7rpLpKaqXZnKariH9dZbbyUlJdmP+Pr6VlgVu3HjxhXO5Xl6ejZq1Mh+RKvVNmvWrMKLN23a1H4nIjMzMzc3t0+fPo8//ngNSnUNGRkZK1euXL58+fnz5wEEBPwhLOzwpEmaYcPg+POlycnJ33777caNG/fu3auM+Pr6Dh8+PCIiYsiQIR4eHspgVFTU4sWLAwICDAZDUFCQMrhv374BAwaUlJR89dVXo0ePdnTpspg9G3PmYONG/PGPZSOnT2PQILRrh717G+LJQRu1E5OqwWq17tix49lnnx00aLvtLkxRUeLYMUdsPTFRzJ0rhg5NtP3y+Pr6Tpgw4bvvvjOZKrntcGlp6SOPPALg/vvvt3+AsgqYt7e3q54/qS2jUfj6iuefrzi+dq0AxM8/q1GTs2BgSSkvT8TEiLvvLrsLEyDCwkRMTPkN4+pQSopYuFA8+KDQaMq21bv3Q2PHjt26dettbyaYnZ3dvn17AFOnTrUfnzRpEoDQ0FA24Cuxf78AxJo1FcezsiRbDrweMLDkZjCIyEjRpElZlDRrJiIjRXx8JY/ctk1s2XLdSGGhiI29aVckNbViTnl7i2HDxKpVoqCgGhXGx8crfYDPP//cNlhcXNynTx8A4eHhXNa9os2bK9+TslpFo0biz39WoyZnwcByBUVFIjZWhIdft8O1cKGwn3waFCQAERtbPpKSIgCxadN1L3X5soiJEQ8+KLTaijlV48uWlZnuNzbglcX8ZtpubECKbdsEIOLiKo5bLMLDQ7z8sho1OQsGlks5eVJERwt//7Ks8fISEREiLk5YrSIoSDRtKtq0Efn5ZQ+2D6zsbLFqlRg2TOh05c+tZU7Zmz59OoDAwMB02xW8Quzatcvd3V2j0ZyosO/XwB09KgCxbFnFceV/2Pz5atTkLBhYLqi4WKxdKwYMKDua8/YWeXkiKEhERYmWLcv/QtsC6913y/envLzEH/8ovvqqesd9t1VaWvrwww8DeOCBB+wb8J8uXpzQr59o3Fj89ltdbk9qZrMIChJPPllx/OOPBeCgMyzOioHlyhISxMyZQlk1PihI/PWvYulSodWWXelhC6wNG4SnZ9n+lG3/q85dvHixbdu2AKZNm3bdD154QQAiNFSwAW/z6acCEP/8p7BYykZ27RK+vkLmNcHrBAOroVACy2IRYWHinnuE2VweWEajuHLFETXEx8d7e3tXaMCL4mJx770CEI8+KtiAV1itYtYs4e4ugoJEeLjo2VMAYvjwevx7IgmZlpeh2tNqsWQJ4uPx2Wflg56euGH2br3o1auXsvRoy/XrcfBg2aiXF77+Gq1aIS4Of/2rI+pwfhoNZs/GuXOYNQv9++OFF2AwYOtWNG2qdmVqUzsxyUGUPSzFiy8KPz8RH1/JWUIHSFCW9w0OFhcvlo/u3i08PIRGIzZscHRBJA/uYTVE//gH3N0xZ446W+/4zjt4+GGkpWHECJSUlI3264e5cyEEJk3C8ePqVEZOj4HVEPn5Qa/HN9+otHl3d2zYgOBg7NuHN94oH3/1VTz/PAoKMHw4GtgNsamKGFgN1MSJePhh9TbfujW2bIG3N/71r7IFfxVLluCee5CUhGefhcWiXn3kpNxmz56tdg3kCEYj+vbFHXeUfavRoE8fNGmCgQPRqpUaBQUGIiQEmzdj+3YMHgxlOQedDo89hnXrcOwYLBYMHKhGZeS8uIfVIFit8PNDhaUPu3VDu3aq7seMG4epU2E04umnkZlZNhgSgvXrodPhgw+wcaN6xZEzYmA1CGYzXnoJ//3vdYNWK156Cdu3q1STYtEi9O+PzExERJQ34AcOLGvAv/ACG/Bkj4FFqnJ3R2wsgoOxdy/efLN8/PXXMWYMCgowdap6xZHTYWCR2lq3xsaN8PTExx9j+fLy8c8/x/PP48sv1auMnA4Di5xA375YuhQApk3Dr7+WDTZqhOXL0batinWRs+GdSxqQjz7CunVqF3Ez48dj3z7ExOCZZ2AwqHTmkpwdA6sB6dMHAwaUfysE4uPVq+ZGH3+MY8dw/jzS0soDq7AQa9di3z4UFcHfH0OHYvjwBn0XhoaNgdWAPPggpk8v/9ZiQVSUetXcyMMDmzbBYkFwcNnI2bMYPBj5+Rg0CO3b48wZjBiBQYOweTOuv/0SNRAMLHImgYHlX1utGDUKnp44dap8CtnOnXjsMbzzDhYsUKVAUheb7uSsfvoJR4/iww+vm/A6cCAmT0ZMDK6/hTg1EAwsclZ79gCA3W2ly/Tvj6IiHD7s+IpIdTwkbBB0urIp5fa0WixahH79VKrpti5dgrc3/P0rjoeEAEBWluMrItUxsBoErbaS/rpG42RN9wrc3VFSgtJSuLtfN64cDHp6qlIUqYuHhOSsOnSAxYK0tIrjFy6U/ZQaHgYWOavHHoNGU8mCDevXo2NHdO2qRk2kMgYWOavOnTFhAt57D5s2QQgAMBrx1lvYuRNz5nDuaMPEHhY5sc8+g1aLP/0JLVogMBCJidBosGQJ/vQntSsjdWiE8reLyGklJ2PfPly7hsBA9O/voFuSkVNiYBGRNNjDIiJpMLCISBoMLCKSBgOLiKTBwCIiaTCwiEgaDCwikgYDi4ikwcAiImkwsIhIGgwsIpIGA4uIpMHAIiJpMLCISBoMLCKSBgOLiKTBwCIiaTCwiEgaDCwikgYDi4ikwcAiImkwsIhIGgwsIpIGA4uIpMHAIiJpMLCISBoMLCKSBgOLiKTBwCIiaTCwiEgaDCwikgYDi4ikwcAiImkwsIhIGgwsIpIGA4uIpMHAIiJpMLCISBoMLCKSBgOLiKTBwCIiaTCwiEgaDCwikgYDi4ikwcAiImkwsIhIGgwsIpIGA4uIpMHAIiJpMLCISBoMLCKSBgOLiKTBwCIiaTCwiEgaDCwikgYDi4ikwcAiImkwsIhIGgwsIpIGA4uIpMHAIiJpMLCISBoMLCKSBgOLiKTBwCIiaTCwiEgaDCwikgYDi4ikwcAiImkwsIhIGgwsIpIGA4uIpMHAIiJpMLCISBoMLCKSBgOLiKTBwCIiaTCwiEgaDCwikgYDi4ikwcAiImkwsIhIGgwsIpIGA4uIpMHAIiJpMLCISBoMLCKSBgOLiKTBwCIiaTCwiEgaDCwikgYDi4ikwcAiImkwsIhIGgwsIpIGA4uIpMHAIiJpMLCISBoMLCKSBgOLiKTBwCIiaTCwiEgaDCwikgYDi4ikwcAiImkwsIhIGgwsIpIGA4uIpMHAIiJpMLCISBoMLCKSBgOLiKTBwCIiaTCwiEgaDCwikgYDi4ikwcAiImkwsIhIGgwsIpIGA4uIpMHAIiJpMLCISBoMLCKSBgOLiKTBwCIiaTCwiEgaDCwikgYDi4ikwcAiImkwsIhIGv8PuJlzIHKEaDEAAAHGelRYdHJka2l0UEtMIHJka2l0IDIwMjIuMDkuMQAAeJx7v2/tPQYg4GWAAEYgFgdiSSBuYGRjSACJMUNoJiZ2BgUgDeei0syMqDRIeQaIzwQU0AAxWDggNBObA4TP5gBWANQBFRAAW8DGDrGXCaYeoQ+uHk0jXAXUam6gTxiZGJiYgXIMLKwMrGwgU9k5GDg4FTi5NJg4uRW4eTKYeHgTePkY+PgZ+AQ4mPgEOZh4hTKYhIQThEUymEREFUTFGNiYGMRYGUS4E0SYWZmYWVjZONnZWMVERbg5Odh4eIWERbjF5Rgh4QYG4jWCdw58unVuP4hjILTmAOvZM2B2RsuUA6Vs0/aB2OZNKw7U8nTag9hf9FoPuLeyOoDYJjvMDuRcXgMWD13jecAn8NteEFt4s/SBkE/bweacm9ey3//bXzA7KPKoneG6A2A2u8ZKe7so7QMgdk7oVPvPJmlgu5L4VByMprqC1XQI5jsct9CwA7FnWS1xaP98GKym4M0Fh52MeWA1c3ZOcrA+8hjMnrl7q0P5qUawexg3Jjgcu3MJ4jZfdoeEAh6wm/dqFNrz8S8Eiwscsd638z8/WFwm6/r+/iAhMFsMALh/bEJXu6/LAAACOHpUWHRNT0wgcmRraXQgMjAyMi4wOS4xAAB4nH1UW24bMQz89yl4AQt8SuRnHAdFUcQGmrR36H/vj5IyklUAoVpLkOgRl+QM9wQ1fl5//PkLn4OvpxMA/ucXEfBbEPH0CrWBy8u37zd4fn+6fFie779u72/AAmx5J5+v2Kf3++uHheAZzr35GCQKZ2qdOtoAbDjHcZcLaU3GYMaJrP93SIEbnLV1JeoCZ2wcguQbpD58cjcPA2o4sIdugFZAbdQpnIEbeueOG2AvIDc3jZD0KIaMvAGOAkojI9IZJCVu7JD+cKnCjlaJqwx02SCjEs8spGP02oUrjtggKVlKs2ScOgppaEJ9hyS4Vx5MVgRx62PI9u1UDFHWKEfMsrN6Xt8gJZHcrIsML2Sy77gjiIohaUMyztRSOlfeJ2TwBtao4tRyKc6DdurILG/Qm7Enh4UMjkE70vP6HbSZG9ks0hihvC2SJ9KyNEGGpSOSiG3mMfMxQkdNYNchfUc64yxRigNTmbkJFdslzjSZzMCQPT2y+V5GzBlj6cxFernklOiWSC56qsGcI9NNZFbKdy9/uV2/dPOjvy/32/Xo73r4aOI8gBydSjn1aEfKaUfTUc5+tBblHEcDUU4/uoRyxtEKVHMVPNdCtAibpoUXAWstJItQtRbSRZA0F1uUR3Ppi8J4WsaipIfFF8Xo9BOLNOqYzC8a0FqYFrKpFuaF1TomZwt7VZjjXBGn8TO8/Cjr9MQrjStpdf74oOf+9A9RQyRGV/m41wAAASZ6VFh0U01JTEVTIHJka2l0IDIwMjIuMDkuMQAAeJwlkDtuAzEMRK+S0gZkgn9SWKTa3i5yhL1GDp/hBlAhjYaPHJ7nW87z1PNz2XVdj5/H+/n4/jxxrsvOub7xLV+/j1dSV4mtl1BKcq7jFWRVqrfEzALJKV0k14tJt7H0bdOMvYS4OPdtkpTdS4k7dUhKHb7HY8EKAcQGABaFZYqYpM0yRoIVYKbtytqo0mitdSiJOG9YZLsBbBTCY0iv/3dZeCzA0rXADRJTiRnYwBBQkkK77wxbd4mvwyk6JpZQFdBTl7VRh1RimBy9I816qrCnRtdD0CWz7mWot8jMbEjqNaTgMB3XDIDFKpBlfadnSxnPbh8S/tyQFIpb3YqRBNIOXLCF0vX8/QOk415HZDVACQAAAABJRU5ErkJggg==;clipPath=inset(26.33% 2.67% 27.67% 2%);" vertex="1" parent="1">
          <mxGeometry x="9.1" y="245" width="251.8" height="121.5" as="geometry" />
        </mxCell>
        <mxCell id="yoPPsw2FuR2WmIkUcgj8-36" value="" style="rounded=1;whiteSpace=wrap;html=1;arcSize=6;fillColor=#FAFAFA;strokeColor=#3C6FC7;strokeWidth=2;" vertex="1" parent="1">
          <mxGeometry x="140" y="630" width="270" height="160" as="geometry" />
        </mxCell>
        <mxCell id="yoPPsw2FuR2WmIkUcgj8-37" value="" style="rounded=1;whiteSpace=wrap;html=1;arcSize=6;fillColor=#FAFAFA;strokeColor=#3C6FC7;strokeWidth=2;" vertex="1" parent="1">
          <mxGeometry x="440" y="630" width="270" height="160" as="geometry" />
        </mxCell>
        <mxCell id="yoPPsw2FuR2WmIkUcgj8-35" value="" style="shape=image;verticalLabelPosition=bottom;labelBackgroundColor=default;verticalAlign=top;aspect=fixed;imageAspect=0;image=data:image/png,iVBORw0KGgoAAAANSUhEUgAAAZAAAAGQCAIAAAAP3aGbAAAABmJLR0QA/wD/AP+gvaeTAAAgAElEQVR4nO3deVxU5f4H8O8MuyyKioqCbO7lAriEmoKAJpmipeKCFhqKaVpZem9q3mvXLLuZCy5oaSIKuFxNjQgV18Ari/7cQWGAYVMQWWRnzu+P0x0RsBRm5pkHPu+Xf8jhwPnQ2IfnnDnneSSCIBAAAA+krAMAALwoFBYAcAOFBQDcQGEBADdQWADADRQWAHADhQUA3EBhAQA3UFgAwA0UFgBwA4UFANxAYQEAN1BYAMANFBYAcAOFBQDcQGEBADdQWADADRQWAHADhQUA3EBhAQA3UFgAwA0UFgBwA4UFANxAYQEAN1BYAMANFBYAcAOFBQDcQGEBADdQWADADRQWAHADhQUA3EBhAQA3UFgAwA0UFgBwA4UFANxAYQEAN1BYAMANFBYAcAOFBQDcQGEBADdQWADADRQWAHADhQUA3EBhAQA3UFgAwA0UFgBwA4UFANxAYQEAN1BYAMANFBYAcAOFBQDcQGEBADdQWADADRQWAHADhQUA3EBhAQA3UFgAwA0UFgBwA4UFANxAYQEAN1BYAMANFBYAcAOFBQDcQGEBADdQWADADRQWAHADhQUA3EBhAQA3UFgAwA0UFgBwA4UFANxAYQEAN1BYAMANFBYAcAOFBQDcQGEBADdQWADADRQWAHADhQUA3EBhAQA3UFgAwA0UFgBwA4UFANxAYQEAN1BYAMANFBYAcAOFBQDcQGEBADdQWADADRQWAHADhQUA3EBhAQA3UFgAwA0UFgBwA4UFANxAYQEAN1BYAMANFBYAcAOFBQDcQGEBADdQWADADRQWAHADhQUA3EBhAQA3UFgAwA0UFgBwA4UFANxAYQEAN1BYAMANFBYAcEOXdQAAZqqrqzMyMmQymUwmi4iISEhIGDZs2Jdffmltbc06GjRMIggC6wwAaldQUJBST3p6enV1dZ09O3funJGRIZXi5EMbobCg+aipqcnMzBRHTKmpqbL/kcvl9YuJiKRSaefOnW1tbe3s7AwMDB49evSf//xHEIRvv/32k08+0Xx++EsoLOBS/RFTVlZWampqWVlZg/ubm5vb12Jpadm5c+fevXu3atWq9m579uzx8/PT1dWNjo4eNmyYRn4UeAkoLNB2YWFh0dHR7du3z8nJEUdM6enpVVVV9feUSCSWlpZ2dna2tdjY2NjY2Ojr67/g4T755JPvvvvO2to6ISGhffv2qvxJoMlQWKDVZsyYsX///vrba4+YxOGSvb19r169jI2Nm3jE6upqV1fXS5cujR079sSJE7iYpVVQWKC9Hj161L59e0EQOnXq9Oabbw4aNEg5aDI0NFTfceVyuaOjY15e3tq1a//2t7+p70DwslBYoL2CgoLmzZvXoUOH3NxcDR86IiJi3LhxEokkMjLS3d1dw0eH58FwF7RXUFAQEf373//W/KHHjh27fPnympqaGTNmZGdnaz4ANAgjLNBSly5dGj58uIWFRXp6ulpPAJ9HoVCMGTPm1KlTbm5uUVFROjo6ms8AdWCEBVoqMDCQiPz9/Zm0FRFJpdJ9+/ZZWlpGR0evWbOGSQaoAyMs0EY5OTk2NjY1NTX379+3sbFhmOTs2bMeHh6CIPzyyy9jxoxhmAQIIyzQTkFBQZWVld7e3mzbiohcXV1XrVqlUCh8fX0zMzPZhgGMsEDrVFdX29nZyeXyM2fOuLm5sY5DCoXCy8srMjLytddeO3/+vJ6eHutELRdGWKB1jhw5IpfL+/Tp4+rqyjoLEZFUKg0ODu7SpUtsbOzKlStZx2nRUFigdcTL7QsXLpRIJKyz/MHCwuLQoUN6enrffPPN0aNHWcdpuXBKCNrl5s2bffv2NTExkcvlZmZmrOM845tvvlm2bJm5uXl8fLydnR3rOC0RRligXTZt2iQIwnvvvadtbUVEn376qbe3d0FBwdSpUysrK1nHaYkwwgIt8vjxYysrq9LS0lu3bvXq1Yt1nAYUFBQ4OzunpqYuXrz4+++/Zx2nxcEIC7TI7t27nzx54unpqZ1tRUTm5uZhYWEGBgYbN248dOgQ6zgtDgoLtIUgCNu3byeiDz74gHWWPzNo0KBvvvmGiPz8/O7evcs6TsuCU0LQFhEREV5eXjY2Nvfv39f+B/fEibr69esXGxtrZGTEOk5LgREWaAvxboYFCxZof1sR0Y4dO3r16vV///d/H330EessLYiaC2vDBpo1q+5Gd3cKD3/64c2b5OdHr7xC3bqRhwft3Ek1NepNBdpHJpP9+uuvBgYG7777LussL8TExCQ8PNzIyGjHjh179+5lHaelUHNhpabStWt1N16+TMoJhs6coUGDKCuLliyh9etp8GD6+GPy8SGcqLYwW7ZsqampmT59eocOHVhneVF9+/YV3yhcsGDBrVu3WMdpGQS1WrRI6Nev7kZjY+H77wVBEKqqBBsbYdIkQaF4+tnTpwWJRDhwQL3BQJuUlpa2bduWiK5cucI6y0ubNWsWEfXs2bOoqIh1luaP6TWsixcpLY0+/ZRqP4ExahQNHkwhIexigaaFhIQ8evTIxcVl4MCBrLO8tK1bt/bp0+fu3bvz5s1jnaX5U/9S9Xl5tGnTM1uUCzSJo+gePep+Se/edP682oOB1uDibobnMTY2PnLkyKBBgw4cOODu7j5nzhzWiZoz9RdWURGdOPHMFuU19bIykkiodeu6X2JuTs9ZDhOan4sXL8bHx1tYWLzzzjusszRSz549d+zYMX36dH9//1atWk2bNo11omZL/aeE9vb022/P/FHOeNu+PQkC1Z/hXy4nCwu1BwPtIN7NMG/ePAMDA9ZZGm/atGl9+/ZVKBQLFy5knaU5Y3oN67XXiIhiY5/ZWFND//0vDR3KJBFoWHZ29pEjR3R1dbm7AJSbm3vs2LGaWrfgiDdkFRcXswvV/DEtrJ49acwY+vxzqr3q3Jo1lJVFCxawiwWas2PHDnEqZCsrK9ZZXk5QUJC3t3dAQIByizhP1quvvsouVPOn/mtYf273bho7lnr1Ijc3at+eLl+mu3cpKIj69mUcDNSvurp6165dxOHl9urqanHNROXlqsePH58+fVoikeAmUrVSc2F5e1P9N6rXrqXhw//4u6UlXblCR4/S5ctUVkazZtE77xDrdQdAMw4fPpyZmdmnT5+RI0eyzvJyxEmce/furZzEedeuXU+ePHnjjTcwwlIv1jeCPYdCIXz3nRATwzoHqNHrr79ORNu2bWMd5KWNGDGCiAIDA8UPFQpF9+7diej48eNsgzV72jpbw48/0pw51LUrJSRQu3as04Dq3bhxo2/fvqamppmZmaampqzjvIT6kzifPHly3LhxvMwzwTVtna3B15eGDaP0dJo1ixQK1mlA9TZt2kREfn5+fLUVEW3evFl4dhJn5aoZaCt109YRFhFlZJCTE+Xl0Vdf0fLlrNOAKslkMgcHB0EQbt++3bNnT9ZxXkL9SZzv37/fo0cPAwODjIyMdjgbUDNtHWERkbU17d1LUimtXIkndZqZdevWKRQKMzMzvtqK/jeJs4eHh3IS58DAQIVCMX36dLSVBmhxYRHR2LG0bBlVV9OUKZSTwzoNqIy4AH1xcfGdO3dYZ3kJQr1JnEtLS3/66Sciqn1DFqgR00v+L6C6WnB3F4gENzehupp1GlCNyspKcT4ZV1fXan5e1oiICCLq2rWrMrPYX8OGDWMbrOXQ7hEWEenoUEgIWVpSdDR9+SXrNKAaenp6169ft7S0PHv27Jo1a1jHeVH1J3HeunUrcXjjK7+0+KJ7bdHR5OlJgkARETR6NOs0oBrR0dGenp6CIERERIzW+pc1LS3NwcFBV1c3PT1dnBb1/PnzI0eO7NSpU1pamr6+PuuALYLWj7BEbm60YgUpFOTrS5mZrNOAari5ua1cuVKhUPj6+mZq/ctafxJn5TwTaCuN4WSERUQKBY0dS7/9RiNG0OnTpMv6KUhQBYVC4eXlFRkZ6eLicu7cOT09PdaJGlZWVmZtbZ2fn3/lyhVxWtTs7GwbGxtBEGQyWZcuXVgHbCk4GWERkVRKwcHUpcuDW7f2fPst6zSgGlKpNDg4uEuXLjExMatWrWId57lCQkLy8/Nfe+015STO27dvr6qqmjRpEtpKo5he8n9pTy5e7Nqli0QiOXHiBOssoDIxMTF6enoSieTo0aOsszTM2dmZiIKDg8UPKysrO3fuTETnzp1jG6yl4aywBEH46quviMjc3Dw1NZV1FlCZdevWiS9rSkoK6yx1Xbx4kYgsLCzKysrELSEhIUT0yiuvKGov+ATqx19hKRSKCRMmENHgwYMrKipYxwHVUCgU3t7e2vmyipNerVixQrll6NChRLRjxw6GqVom/gpLEIRHjx7Z2dkR0ZIlS1hnAZXRzpc1OztbX19fV1c3IyND3JKYmEhEbdq0KSkpYZutBeLnonst5ubmoaGh+vr633///eHDh1nHAdUwNzcPCwvTtpdVnMR5woQJykmct2zZQkR+fn7GxsZMo7VIrBuz8cRVwk1NTe/cucM6C6iMVr2sVVVV4puAZ86cEbc8evSoVatWEonk7t27bLO1TBwXliAI4kp2/fr1Ky0tZZ0FVEZ7XtbQ0FAi6tOnj/Li+jfffENEY8eOZRusxeK7sIqKisT5SebPn886C6iM9rys4iTOW7duFT+sqamxt7cnItxVwwrfhSUIwrVr14yMjIho7969rLOAymjDy3rjxg2JRGJqalpYWChu+fnnn4nIwcGhpqaGVaoWjsuL7rX169dvw4YNRBQQEHDjxg3WcUA1ar+st27dYpJh06ZNgiD4+fnVmQo5ICBAKuX+fxxesW5M1ZgxYwYRWVlZsQ4CqjRr1iwieuWVV548eaLhQxcUFBgbG0skEuW1/+TkZKlUamRklJ+fr+EwoNRMflH4+PgQ0ePHj1kHAVXaunVrnz59bt68+f7772v40D/++OOTJ088PT2VkziLUyHPnDlTnHoQmGgmcx4cOHCAiBYuXMg6CKiSsbFxeHj4kCFD9u/f7+7u7ufnp7FDz5o1q7q6WnyEkGpNhTx//nyNZYD6+Jle5vkePHggzlp7//59G6wa3ewcOHBg+vTphoaGv//+u6OjI5MM27dvDwgIGD58+IULF5gEAFFzOCXcvn17RUXFhAkT0FbN0rRp0+bMmVNeXj516tSioiImGbZt20aYClkLcD/Cqq6utrOzk8vlp0+fHjVqFOs4oBbl5eVDhw5NTEycMmVKWFiYho9+9uxZNzc3S0tLmUyGyUXZ4v4a1pEjR+Ryee/evd3c3FhnAXUxNDQMDw93dnYODw8fOXLkggUL1H3Ehw8fpqWlyWQymUwWFBRERP7+/mgr5rgvLOUq4RKJhHUWUKNu3brt3Llz6tSpH3/88ZAhQ5SXw5uooKAgKysrOzs7pZZ79+4VFhbW3s3Y2Fhrp29uUfg+Jbx582bfvn1NTEzkcrny7j5oxhYuXBgYGGhjY5OQkPBStxc8evRI9qzU1FSZTFZSUtLg/m3atLH9n8ePH+/Zs0dPT+/cuXMuLi4q+lGgMfgeYW3evFkQhPfeew9t1UJs2LAhISEhJiZm9uzZP//8c/1hdVlZWZ3hUkpKyv379593j56hoWHnzp3t6zE3N6+9m6mp6ebNm318fBISErAkPUMcj7AeP35sZWVVWlp669atXr16sY4DGpKenu7k5JSfn//pp58OHTo0LS1NHCuJ6pzKKZmZmSlHTHZ2dra2tjY2Nra2tnWK6XmqqqpGjhwZExMzbty4BosSNIPjwtqwYcPHH3/s6en522+/sc4CGnXs2LGJEye2bt26/ripwRGTpaWluGZEUyiLcv369UuXLm3id4PG4bWwBEHo1atXUlLS0aNHxSneoeVITk7u1auXvr7+qFGj7O3tbWtR6/nayZMn33rrLR0dnejo6OHDh6vvQPBc7B5jbJKIiAgiEm9wZ50FNG3JkiVE9P7772v+0J9++ikRWVlZPXjwQPNHB15HWHPnPrp799iECU+WLsXzgy1LaWmplZVVQUFBfHy8k5OTho9eXV09atSoCxcuuLu7R0ZG6ujoaDhAC8dlYaWlkYMD6epSejp16MA6DWgW88f6cnJyHB0dc3Jy1qxZs2LFCiYZWiwunyXcsoVqamjaNLRVS8T8sb5OnTqFhITo6Oh88cUXUVFRrGK0TPyNsMrKyNqa8vPpv/+lQYNYpwHNOnfunKurqzY81rdq1ao1a9Z07NgxISGh6W9Bwgvib4S1fz/l59Nrr6GtWiLxSSxteKxv9erVnp6eubm506dPr6mpYRum5eBvhDVwIMXHU3AwzZzJOgpoVlZWlq2tLRGlpqaKywWy9eDBA0dHx6ysrBUrVqxZs4Z1nBaBsxHWpUsUH08WFvTOO6yjgMZt3769qqpq0qRJ2tBWRNShQ4f9+/fr6uquXbv2119/ZR2nReCssAIDiYj8/cnQkHUU0KzKysqdO3eSls2iN3LkyNWrVysUihkzZqSlpbGO0/zxdEqYk0M2NlRTQ/fvE+YWbWlCQkJmzpzZv3//q1evss7yDEEQvL29f/755yFDhpw/f575xbXmjacRVlAQVVaStzfaqiUSL7dr1fBKJJFIdu/ebWtre/ny5c8//5x1nGaOmxFWdTXZ2ZFcTmfOEOYWbWmuXr3q6OjYpk0buVxubGzMOk4DLl++PGLEiKqqqsOHD0+cOJF1nGaLm/mwjhwhuZx69yZXV9ZRQOM2b95MRHPmzNHOtiKiIUOGrF27dunSpX5+fv3797e3t9fMcZ88eVJ7VsKcnJzg4GDNHJoJbkZYI0fS+fMUGEjqn84btEtBQYGVlVVZWdmdO3d69OjBOs5zCYLwzjvvHDlyZODAgRcvXjQwMFDhN6+oqMjMzFROSaic1jk1NbXO/8KPHj16wUm+eMTHCOvhQ7p+nczMyNeXdRTQuJ07d5aWlnp5eWlzWxGRRCL54Ycfrl69GhcXt3TpUnFU+LLKyspkDXnw4EGD+xsaGoozESqptii1DTcjrNJSunqVhg5lnQM0S6FQdOvWLTU19eTJk15eXqzj/LVr1665uLiUlZXt27dvxowZz9utsrJSLpfXGS6lpKTIZDKFQlF/f319fSsrK+VkhMq5CW1tbaVSnt46ayItLazZs+nxY9q/n5SXLA4epEOHSONL0gFjx48fHz9+vIODQ1JSEi//ZwYGBi5cuNDExOTKlSt1Ju/+/PPPo6OjZTJZdnZ2g19rYGDQtWtX5XBJHD3Z2dlZWlpiXmbS2lPC33+ne/fon/+kr7/+Y4tMRlgkvAUS72ZYsGABL21FRB988EFsbOy+ffumTJkSGxvbqlUr5adu374dExNDRHp6etbW1nWGS/b29jY2No2eY0sul0dFRZWUlMydO9fIyEg1P4yW0dIRVvfuZG9PZ85QXBz1709EtH49bdhAWVmsk4EG3bt3r2fPnoaGhhkZGS+1qBdzJSUlgwcPvn379ty5c8Ub9EXx8fFlZWW2tradO3dudAUXFBTUOZFMSUlJTk4uKioSdzA1NU1JSWnfvr0KfhIto6UjLCJydSU9PVqwgC5cIH5+uYIqbdmyRaFQzJw5k6+2IiITE5Pw8PAhQ4bs2rVr+PDhs2fPFre/1PqveXl5MplMuQC1ci3FJ0+eNLh/27Zty8vLy8vLi4uLJ0+eHB0drYKfRMto7wjLz4/efpv69aPNm+n99zHCanFKSkqsrKwKCwuZTIWsEj/88IN4dhYTE9NfPFNoyAuuPq3U4MpADg4Obdq0IaKjR4/6+PhUVFTs3r373XffVdOPxgrLEVZBAaWkUFYWZWdTSsoff8rL6caNP3bo0YOWLqXly8nbm2FMYCM4OLiwsPD111/ntK2IaM6cORcvXtyzZ8/rr7+elJRkZGSUn5+v8kVe6/D29v7xxx9nzJgREBAwYMCAAQMGqOeHY0MTI6z8/CqZTE8mI+Wf1FSSyajBga2ODpWW0iuvkJ8f/e1vVFZGr7xCo0eTgwNGWC1Lv379rl+/HhoaOnXqVNZZGq+0tNTCwqK0tPRP9qm/yKv4/mBT7v/08/PbvXt39+7d4+LimtO66KocYTW4Svi9e/ccHT88e/af9fc3NKTOncne/pk/Dg5U+3F3IyPauJEmTqTp01WYFLTd2bNnr1+/bmlpOWnSJNZZmqRVq1YHDx708fEpLi6WSqW2trbqWOS1vq1btyYmJl69etXf3z80NFTl35+VRhbWtWvXxJvcalO+SVGHVJrVvz/Z2JCdHdnaPv3Tps0LHeutt8jLi0JCqGPHxoUF/oh3M8ybN09PT491lqby8vLKy8tLS0vr3r27xg5qaGgYHh4+cODAsLAwV1fX+fPna+zQatXIU8Ju3brdv3+/zkYVrhIuXnT/29/++DA9nfr0ITMznBK2CNo2FTK/wsPDp06damBgcOnSpZd6g1JrNXKENWrUqD59+tg+S4XvPX/6KfXr9/TDrl3pwAFKT1fVtwettm3btqqqKh8fH7RVE02ZMuXs2bPbtm2bOnVqfHx869atWSdqKi29reF57tyhzz6jvXtf9HQSuFNZWdm1a9fc3NwLFy4MHz6cdRzuVVRUDBs2LD4+/q233jp27Bjvz/dwdkfmggV0/Di99x5xVbPwEsLDw3Nzc/v374+2UgkDA4PDhw+3bdv2+PHjGzduZB2nqTgrrD17qF07OnqUNmxgHQXUQ7zcvnDhQtZBmg8bG5s9e/ZIJJLPPvvs0qVLrOM0CWenhER04gSNH086OnT2LA0bxjoNqNSBAwemT59uYmKSk5OjtZOLcurjjz/esGGDtbV1QkICv48Z8ldYRLR0Kf3732RlRYmJxO1/eaCKioraD8pFRETcuHGjurra2dk5Li6Odbrmpqqqys3N7dKlS15eXsePH+do9ovauCys6mpyc6OLF8ndnSIjqbGzcYCGiJPV1X9cLi0trf4i76amphEREcMweFaDjIwMJyenvLy8r776avny5azjNAaXhUVEcjk5OdHDh/Tll4SllbREZWVlenp6/dkFsrOzG5xFU5wTSvkkir6+vqmp6cSJE9Vx5zeIIiIixo0bJ5FIIiMj3d3dWcd5abwWFhGdPk1jxpAgUGQkeXiwTtOSVFVVPXz4sP5jWA2OmETm5ub1H+Lt2rWrrq72TnDUXP3973//6quvOnbsmJiYaGlpyTrOy+G4sIho5Ur68kvq2JESEgi/ldWkqqpq+fLlcXFx1tbW6enpMpksKyurwWLS1dXt0qVL/ed4u3TpgmLSHjU1NWPGjDl9+rSbm1tUVFSjJzhlgu/CUijojTcoKopcXenUKVzMUgsnJ6fExMQ6GzFi4lpubq6jo2N2dvYXX3yxevVq1nFeAt+FRUS5ueTkRFlZtHIl/bOBKSGgScTH+qqrqwcPHjxlypQBAwbY2tpaW1s3g2eSW7jo6GhPT09BECIiIkaPHs06zgsT+HfmjKCjIzg6no2MPMU6S3OzYsUKIvLx8WEdBFRPHFt16NBBLpezzvKiuB9hibZsufTRR67m5uYJCQlWVlas4zQTeKyveVMoFF5eXpGRkS4uLufOneNi1MzlzWP1LVjg4uHh8fDhw8mTJ1dWVrKO00zgsb7mTSqVBgcHd+nSJSYmZtWqVazjvJBmUlhSqTQkJMTGxiY2NlY8i4Gmw2N9zZ6FhcWhQ4f09PS+/vrrY8eOsY7z15rJKaHo8uXLI0aMqKqqOnz48MSJE1nH4VtiYqKTk1ObNm3kcjke62vevv766+XLl5ubm8fHx9vZ2bGO82eayQhLNGTIkH/961+CIPj5+aWmprKOw7fNmzcT0dy5c9FWzd5nn33m7e1dUFDg4+Oj5VdUmtUIi4gEQXj77bf/85//DBo06MKFCwYGBpo5bnp6elRUVEVFhZ+fn6GhoWYOqj4FBQVWVlZlZWV3797V5EzkwEpBQYGzs3NqauqSJUs2aPHkTc2tsIjo8ePHzs7OKSkpixYt2rRpk2q/eYOrhCclJRUXF4s7tGnTJi0tjfeFlcRzhDfffPPEiROss4CGXLlyZfjw4ZWVlYcOHXr77bdZx2lYMywsIoqLixs+fHhFRcW+fftmzJjRiO/w8OFD5RO84tO84nO8z1tgTrlKuPhW8cmTJ5v2E7CkUCi6deuWmpr6yy+/jB07lnUc0JxNmzYtXrzYzMzsxx9/1M7Oap6FRURbtmxZtGiRiYnJlStXevXq9bzdGlwlPDk5+XlLljW4MlC3bt3E6f1DQ0Nnz55dWVnZ6KLUBseOHfP29nZwcEhKSuJ01iRotNGjR9+6dSszM7Nnz54BAQHadhGz2RYWEc2cOTMkJKRv376xsbHFxcV5eXl1iunevXuFhYUNfm2DxeTg4NDmr1a/CAwMXLhw4V8WpTYbPXp0VFTUd99999FHH7HOApoWGho6bdo0Q0PD8vJyImrTps17770XEBCgJZcym3NhFRcXDxw4MCkp6U/2ad26df3ZBWxtbZuyIJKvr+++ffvEomzVqlWjvw8TyckP+vWz0dHRycjIaMpS6cCp2NhYFxcXZ2fnZcuWBQUFnTp1iogkEom7u7u/v/+kSZPYzu7QnAuLiE6cODFt2rSSkhIdHR0bGxvNrBJeUlIyePDg27dvz507d+fOnSr//mq1eDHt3/8gICDun//0Yp0FGMjJybG0tGzfvv3Dhw+JKDExcfv27SEhIU+ePCEie3t7f3//uXPntmvXjk0+Rs8wak5ZWdm9e/c0fNDr16+LY6s9e/Zo+NBNUVwstG4tEAnXrrGOAowoFArxn25RUZFy4+PHj3fs2NG7d2+xNAwMDHx9fRMTEzUfr/kXFiu7du0iIiMjo6tXr7LO8qICAwUiYcQI1jmAKfHa6/Xr1+tsr6mpiYqKmjx5svKs0NnZeceOHWVlZRrLhsJSo3fffZeIevToUfuXlTbr21cgEsLCWOcApt544w0iOn78+PN2uPrTXoQAAA1ZSURBVHfv3rJly9q2bSvWVseOHZctW5aWlqaBbCgsNSotLe3fvz9xMp/U6dMCkWBpKVRWso4CTAUEBBDRpk2b/ny3srKyn376SfwXTkQ6Ojrjxo2LiopSKBTqy4a7bNTIyMgoPDzczMwsNDQ0KCiIdZy/EBhIRDR/PvEwLRKokY2NDRGlpaXV3ijWUO0thoaGs2bNunr1alxcnK+vr1QqPXHihKenZ58+fTZu3ChepFc99XUhiEJDQ8VXNz4+nnWW58rMFPT0BD09ITOTdRRgTfwX+/bbbyu3uLq66uvr//mbV9nZ2evWrVNOn2lmZubv73/z5k3VZsMIS+2mTp06b9688vLyqVOnPu8+Vea2bqWqKpo8GYsPAdna2hKRTCZTblEoFJWVlXXGXHV06tRp2bJl9+/fDw8P9/DwKCoqCgoK6tu3r6en58GDB5+3/ttLU23/QYPKy8udnJyIaPz48Wo9w2+cigqhY0eBSLh0iXUU0AI5OTlE1K5dO+WW2bNnE9GuXbte/JskJCT4+/srH+uxt7dft25dXl5eE7NhhKUJBgYG4eHhrVu3/vnnn8V5prRKWBjl5tKAATR0KOsooAU6duxobGycn5+vnINEHHP9+QirDkdHxx07dmRmZn7//ff29vYpKSnLly/v0qXLrFmzYmNjG50NhaUhDg4Oe/fulUgkS5cu/f3331nHeYZ4uR0zIYNS165dqdZZoXgZvvZJ4gtq3br14sWLk5OTjx8/PmbMmMrKyuDgYBcXFzMzs5s3bzYiGApLc8aPH//hhx9WVVX5+Pjk5+ezjvOHxES6fJnMzWnaNNZRQGuIEyUrp+2tf1XrpUil0nHjxv36669JSUm+vr5EVFxcfO3atcZ8q8YlgMZZv3790KFDMzIyZs+eLWjHU5ziFIdz5xJvj2mDGtVpKPHDF5x2PDo6esyYMWVlZfU/dffu3V9++YWIdHR0Gje/AApLo/T09EJDQ9u3b3/y5Mn169ezjkNENGwYvfoqzZ/POgdokzq3YllbW+vq6mZlZVVUVPzJV9XU1HzxxRceHh6//fab+Gha7U+tXr16/Pjx+fn5b7zxxt27d998883GJGviRXtohJMnT0okEl1d3fPnz2v40BkZQlycUFHxdEt5uRAXJ5SUCIIgJCUJddYALisTrl4VSks1GhKYCwsLI6JJkyYpt4iDrOTk5Od9yYMHD8aMGUNEEolk2bJlNTU1yk/l5uZ6eHgQka6u7hdffFH7Uy8LhcXGsmXLiKhTp07Z2dmaPO7SpQKRsHr10y1JSQKRcPmyIAiCk5MQEPDM/levCkTClSuazAjsXb58mYicnJyUW1xdXYkoKiqqwf3PnTsnztRkYWERGRlZ+1PR0dGdOnUiog4dOpw6daqJwXBKyMaXX375+uuv5+TkzJgxQ2X31L0YY2Nat46SkzV5TOBM/YtWz7vuLgjCxo0bPTw8srKyRowYcfXq1dGjRys/9fXXX3t4eOTk5Li5uV27ds3d3b2JwVBYbOjq6oaHh1taWp45c+Zf//qXJg/96qs0ciQtWKDJYwJnOnToYGJiUlBQoHw2o8EHDPPz88eNG7dkyZLq6uoPP/zw1KlTyhkx8/Lyxo4du3z5coVCsWzZsqioKHGc1UQoLGY6deoUEhKio6Pzj3/8IyoqSpOH3rCBzp2j/fs1eUzgTJ17r+rc6EBEcXFxgwYN+uWXX9q1a3fixImNGzfq/e+5+QsXLvTv3z8yMtLCwiIiImLdunWqmlgZhcWSm5vbihUrFArFzJkzMzMz1XSUnByKjaWwMCoo+GNL7960cCF98gk9flx359BQ6tPn6Z9Jk9QUCrRdg3c2KD8MCgoaNmxYamrqoEGDrly54uX1x4Ta4hmiu7u78gxRvBKvKroq/F7QCKtWrYqJifntt9+mT59++vRpXd3GvyIFBZSSQikplJVF2dl//D0pif73fAVFRz/d+R//oLAwWrmSPvzwmW8yZAi9//7TD9PS6OOPG50IOPa8wioqKpo7d+7BgwclEsmHH364fv16fX19cZ/CwkI/P78jR46In/r222/1VD1XEQqLMalUGhwc7OTkdP78+VWrVq1du/Yvv+TBgwfi8q65ufq3b0+QyUgmo9RUauhOPSKidu3I1pZsbZ+5NdTUlL77jmbOpDqXQe3snhlVNepuZGgO6ly0srKy0tPTy8rKcnR0TElJMTMz27Vr1+TJk5X7x8XFTZkyJTU1tV27dnv37lWOuVQLhcVehw4dDh48OHLkyHXr1g0ZMmTChAni9oKCgpSUlDrrvNZe5LVLl6GZmROU38fcnCwtqXNnsrd/+qdbN6p9R/HBg0//PnUq7dpFf/+7Bn5E4E+dEZaOjk7Hjh3lcnlKSoqzs3N4eLi9vb1y56CgoEWLFlVWVg4cODA8PFy84KUOKCyt4OLismbNmuXLl8+cOdPFxSUrK0smkz1vzkZzc3Nx8UR7++5du5Kd3R8DKFPTlz7u1q3Ut29Tw0OzVP/OhqCgoK1bt5qamv7www9GRkbixqKiovfffz88PJyI/P39N2/erDxDVAcUlrb47LPPfvjhh/LycuU7ho1effrFde9On3xCL3AaCi1O/bcFx44dO2bMGKn06Tt1iYmJU6ZMuXfvnpmZ2c6dO6dMmaLuVM18IVWO5OXlWVtbV1ZWbtu2bciQIU1cffp5ysqouvqZsVhNDRUVkakp6epSWRlJpWRg8PSzCgWVllKrViTF+8ktj5mZWXFxcUFBQYO/I/fu3RsQEFBaWuro6BgeHt6tWzcNRMI/Q22xa9eu8vJyLy8vf3///v37q6OtiMjIqO6Zo44OmZuT+OakkdEzbUVEUimZmKCtWqjnTYNVUlIyY8aM2bNnl5aW+vr6Xrp0STNtRSgsLVFTUyMuq/PBBx+wzgLwhwYfx7lz546Li8v+/ftNTEz279+/d+9e5fUsDUBhaYUTJ06kpqZ269ZN+RwWAHP1Cys4OHjgwIE3btzo1atXTEzMNI3P+ojC0gqBgYFE9MEHH0hx9gVao/atWOXl5YsXL541a9aTJ098fX3j4uJeffVVzUfCu4TsJScnnzp1qlWrVuLaJABaQvlGYVJS0pQpU65du2ZoaLhu3brFixezioTCYm/z5s2CIPj6+pqbm7POAvBU27ZtiejMmTODBw8uLCzs0aPHwYMH+/XrxzASbmtgrKSkxMrKqrCw8Nq1a2z/KQDUkZyc3KNHD/HvPj4+QUFBpo24O1mlcMWEsb179xYWFo4cORJtBdqme/fuo0eP1tXVnTx58oEDB5i3FWGExVy/fv2uX78eHh5e+zlSAO1RU1Ojqtmsmg6FxdKZM2fc3d07d+4sk8lUPhEHQPODU0KWxLsZ5s+fj7YCeBEYYTGTkZFhb28vkUhkMplyJmwA+BMYYTGzffv26urqyZMno60AXhBGWGxUVlZ27do1Nzf30qVLQ4cOZR0HgA8YYbERFhaWm5s7YMAAtBXAi0NhsSFebl+0aBHrIAA8wSkhAwkJCc7Ozubm5nK5vFXtlSEA4E9hhMXApk2biGju3LloK4CXghGWpimnQk5OTq697ggA/CWMsDRNnAr5zTffRFsBvCwUlkZhKmSApkBhadTx48fFqZA9PT1ZZwHgDwpLozAVMkBT4KK75iQnJ/fs2dPIyEgul2NyUYBGwO95zdm0aZMgCLNmzUJbATQORlgagqmQAZoOIywN+emnnwoLC11dXdFWAI2GwtKQ7du3E+5mAGganBJqwunTpz08PDAVMkATYYSlCZgKGUAlMMJSO3EqZKlUmpaW1qlTJ9ZxADiGlZ/VrqioyM3NzcLCAm0F0EQYYWlIdXW1ri5+PQA0CQoLALiBi+4AwA0UFgBwA4UFANxAYQEAN1BYAMANFBYAcAOFBQDcQGEBADdQWADADRQWAHADhQUA3EBhAQA3UFgAwA0UFgBwA4UFANxAYQEAN1BYAMANFBYAcAOFBQDcQGEBADdQWADADRQWAHADhQUA3EBhAQA3UFgAwA0UFgBwA4UFANxAYQEAN1BYAMANFBYAcAOFBQDcQGEBADdQWADADRQWAHADhQUA3EBhAQA3UFgAwA0UFgBwA4UFANxAYQEAN1BYAMANFBYAcAOFBQDcQGEBADdQWADADRQWAHADhQUA3EBhAQA3UFgAwA0UFgBwA4UFANxAYQEAN1BYAMANFBYAcAOFBQDcQGEBADdQWADADRQWAHADhQUA3EBhAQA3UFgAwA0UFgBwA4UFANxAYQEAN1BYAMANFBYAcAOFBQDcQGEBADdQWADADRQWAHADhQUA3EBhAQA3UFgAwA0UFgBwA4UFANxAYQEAN1BYAMANFBYAcAOFBQDcQGEBADdQWADADRQWAHADhQUA3EBhAQA3UFgAwA0UFgBwA4UFANxAYQEAN1BYAMANFBYAcAOFBQDcQGEBADdQWADADRQWAHADhQUA3EBhAQA3UFgAwA0UFgBwA4UFANxAYQEAN1BYAMANFBYAcAOFBQDcQGEBADdQWADADRQWAHADhQUA3EBhAQA3UFgAwA0UFgBw4/8Bw6PYQC/AMisAAAGbelRYdHJka2l0UEtMIHJka2l0IDIwMjIuMDkuMQAAeJx7v2/tPQYg4GWAAEYgFgNicSBuYORgSACJMbKBaSYmdgYFIM0M4TIyw4RRaWZGmDw7RJwRvzp0cRCdAZIHKdAAMViQBHDLgASYWLiBXmBkYmBiBrIZWFgZWNkY2NgZ2DgYODgZOLkYuLgZuHkYeHgZePkY+PgZuAUYBAQVBIU0mISEFYRFFERENZj4BTSYhIG0CBMbtwA/Hy8Ps4iwqLgQIyRwwEAsMPT0gc0mig4gTn74ugPnk1fag9iXfx44ELGkcC+ILTHrw4Hvh6v3gdgffy8+sHPSgv0gdvj2jAOxyzvA7Cm79Q5UXhM4AGJHM4Qc+OSXCWYLfZu3//QDFjCb46bGfs+FhmD1ypoh9hNPMYLZCvO22AeLJ4DtNfZltF/QwQJ2j4ZBt70kYyyYPf+GisPxbxlgdtKVOIc/xTJg9ux+Swe27+1gvXHdxQ7NJRxgd35NXelQOjPaFsS+lnzM4ZTGJLBdwgs+OURuugNmr4074/AhRAPsNjEAAeJns9EHLmsAAAIjelRYdE1PTCByZGtpdCAyMDIyLjA5LjEAAHicfVTLbhsxDLz7K/gDFvgQKerQQ2ynQVFkDbRu/qH3/j9KynBWQYSsLUJajIYSZ7gHyOfX5efff/D+8OVwAMAv/r13eBNEPLxCTuD0/PJjg/Pt6fR4c77+2W6/gRlYYk/8PmKfbtfXxxuCKxytiFYyBS5K7pUAC45n38pwhqOWWp2aABVhEfUFUGBLRhSs3eAYAPXedYGsSdlGSsJEclW3FVLvySkAqHCkwlprW2W3REoxMeqYSLRm2BbIlkguTZCipDFjE4w9n5F+5xRijZome430dYHsefc4XY0raXJiM+YVZ1z4nFc27Wo8Zl3cVgclCigWZ28qiVS03pfIFIlKJYq8uSU2qK2AMiijmOgV8pjo0lfAOhjRW40iSqkq1HkFTInCPk0bE2SJEG0JTIWCKGwUp+AwVNW2TN0GY3hHQpUUkpmXl/HB6KjilPUhEdZlfXogtXAX64NJwyayMnuqYyWMYd5SUQpF20pHTnHCw85Yh99aiN+XnDw4Q2SNw4U3wm7kKxc9b5cPPXrv2tN1u+xdmz/eezMWIHsHhgJQ9zbLpe69RDFsbxiK0fauoBi+Wz+Xffc35ZhdTCPQZFYagSdT0ggyuY9GqJPNaASd/EQj2GScO0+bHEIj+GQFzpBCf3/5xpPwlIFnhSkD06Qkj8CTYjzSvmeM7ymPXTxrNSuT68e3OOaH/07UF9eH6WXSAAABFHpUWHRTTUlMRVMgcmRraXQgMjAyMi4wOS4xAAB4nB2QSY5DMQhEr9LLRHIQM0ZfWXmfXCiH7+IvLKNHMdU5j3M+j/M83+fnnCN4543vjfg90d/v8TIy0dCFID3c1/VSKmMQJU3jBkHOUnq9hDgrBShI1GOIomqDJLExCBPH7vYEKwrZWwZCvTPuSuillpCpWd6VFi659FbPCujqCGcHrlQFYsroSJ1e2baz1sW0dVfYsODsBhNyEd4LOWQiRxUcjL7TbH5oeJfLMvIw3HVhckXpGhOYUYMMdhSUuGPxUeAm6zUOqNooNoftGS1mGhgdpG21xgDYZbApSbrzNk5wUA3B6tgKl8FcQWd4tJV9NIWrez1//3dyWV6lNA5HAAAAAElFTkSuQmCC;clipPath=inset(25% 3.33% 24.67% 2%);" vertex="1" parent="1">
          <mxGeometry x="143.33999999999997" y="640" width="263.31" height="140" as="geometry" />
        </mxCell>
        <mxCell id="yoPPsw2FuR2WmIkUcgj8-38" value="&lt;font style=&quot;font-size: 20px;&quot;&gt;&lt;i&gt;d = 5.74&lt;/i&gt;&lt;/font&gt;" style="text;html=1;strokeColor=none;fillColor=none;align=center;verticalAlign=middle;whiteSpace=wrap;rounded=0;fontColor=#000000;" vertex="1" parent="1">
          <mxGeometry x="232.49999999999997" y="790" width="85" height="30" as="geometry" />
        </mxCell>
        <mxCell id="yoPPsw2FuR2WmIkUcgj8-39" value="&lt;font style=&quot;font-size: 20px;&quot;&gt;&lt;i&gt;d = 11.99&lt;/i&gt;&lt;/font&gt;" style="text;html=1;strokeColor=none;fillColor=none;align=center;verticalAlign=middle;whiteSpace=wrap;rounded=0;fontColor=#000000;" vertex="1" parent="1">
          <mxGeometry x="532.5" y="790" width="85" height="30" as="geometry" />
        </mxCell>
        <mxCell id="yoPPsw2FuR2WmIkUcgj8-41" value="" style="shape=image;verticalLabelPosition=bottom;labelBackgroundColor=default;verticalAlign=top;aspect=fixed;imageAspect=0;image=data:image/png,iVBORw0KGgoAAAANSUhEUgAAAZAAAAGQCAIAAAAP3aGbAAAABmJLR0QA/wD/AP+gvaeTAAAgAElEQVR4nO3deXxU5b3H8W9WAiFAAiEgZCGgkLApYBEBK7eIUIKgXqpFA1IVpJYIVI1eb4148RIR+goIFagXCd5FYgsKoihL1YgggkACiEgCSdhD2LKRbX73jznNMhzIBGbmmWfm+37xh8yZ5ZcIH848c86Jj4iAiEgHvqoHICKyF4NFRNpgsIhIGwwWEWmDwSIibTBYRKQNBouItMFgEZE2GCwi0gaDRUTaYLCISBsMFhFpg8EiIm0wWESkDQaLiLTBYBGRNhgsItIGg0VE2mCwiEgbDBYRaYPBIiJtMFhEpA0Gi4i0wWARkTYYLCLSBoNFRNpgsIhIGwwWEWmDwSIibTBYRKQNBouItMFgEZE2GCwi0gaDRUTaYLCISBsMFhFpg8EiIm0wWESkDQaLiLTBYBGRNhgsItIGg0VE2mCwiEgbDBYRaYPBIiJtMFhEpA0Gi4i0wWARkTYYLCLSBoNFRNpgsIhIGwwWEWmDwSIibTBYRKQNBouItMFgEZE2GCwi0gaDRUTaYLCISBsMFhFpg8EiIm0wWESkDQaLiLTBYBGRNhgsItIGg0VE2mCwiEgbDBYRaYPBIiJtMFhEpA0Gi4i0wWARkTYYLCLSBoNFRNpgsIhIGwwWEWmDwSIibTBYRKQNBouItMFgEZE2GCwi0gaDRUTaYLCISBsMFhFpg8EiIm0wWESkDQaLiLTBYBGRNhgsItIGg0VE2mCwiEgbDBYRaYPBIiJtMFhEpA0Gi4i0wWARkTYYLCLSBoNFRNpgsIhIGwwWEWmDwSIibTBYRKQNBouItMFgEZE2GCwi0gaDRUTaYLCISBsMFhFpg8EiIm0wWESkDQaLiLTBYBGRNhgsItIGg0VE2mCwiEgbDBYRaYPBIiJtMFhEpA0Gi4i0wWARkTYYLCLSBoNFRNpgsIhIGwwWEWmDwSIibTBYRKQNBouItOGvegBH2rsXWVm4+25062a76dAh7NyJfv3QqxcArF+PU6fQqxfuvtv2nitWIDAQjz/uioGJqEk8ag/rb3/DpEn46iuTTV98gUmTsG6d8dsFCzB1KsaMQWGh7T2nT8eLLzp3TiK6MR4VrKY6fx7JyaqHICK7eXWwBg/GypXme2RE5Ia8OlipqfDzw7RpqKxUPQoR2cGrgxUfj2nT8OOPmD9f9ShEZAeP+pTQKjMTIrY3bt9ufufXXsP//R/mzMGjjyI21tmjXc+nn+Ljj9GmDebOhW/Df0feeQd79+LVV9GpE4qL8cor6NzZ/JOBpCS0bo3/+A/XjEzkcuJBXnlFgOv9euMN456//KUAUlQkIvLuuwLI/fcbm1q0kI4dRUT27ZMlS2T9esnOlosXnT78nDnGkEuX2m4aN04AycoSETl1SgDp29fkGSwWAaRDB6ePSqSKB+5hvfoqxo61vfGDD/DWW+b3/93vsGIFPv8ca9fiwQfrbv/sM7z0Ut1vg4Jwyy2IjUVsLDp2rPvvqCj4O+676OODl1/GuHGIiHDYcxJ5DA8MVlQU+vWzvfGbb655fx8fLF2Kfv3w/PMYNaru9ttvx5QpKChAXh7y8lBaitxc5ObaPtzPD7fcguhoREUhKgqRkYiKMn7bunWTh//Nb7B6NZ5/Hu+/3+THEnk8DwzWDejdG88+i4ULsWhR3Y3334/776/7bXk5Tp0ymnXyZN1/5+WhoAAFBSZPewM7ZePG4eRJ/Pd/44kn8KtfOfSLJNIfg2V4/XVkZGDuXFRVmd+heXMjNzaqqnDiBPLzkZeH/Hzk5xs7Zfn5KCm53k6ZdUcsMhIxMXjmmbqtixZhwABMm4asLAQFOe4rJNIfg2Vo1Qrz5+Oxx5r8wIAAxMQgJsZk07V2yqxRKyjAtm0AcMstDYJ1++146iksW4Y330RKivmLHj/e4CFEXoLBqjNhAv7rv7B1q8Oe0M6dsqvfHv7nf2LNGqSmYsIE3HqryTMXFWH5cofNSaQLjwpWfDzGjTPf2enaFePGoXt347f33ov27REYaHu3JUvw6qsIDXXqmNfbKbMKC0NqKp58EjNn4pNPTO7Qty/27rW9UcT2AC4iD+NRwZowARMmmG8aPRqjR9f99k9/gp+fyd169EBGhlNma6rJk7FiBTZswGefqR6FyG146b/If/gDRo7E/v2q57g268EWAQGYNQvV1aqnIXIPHrWHZaezZ5GejitXzHey3EevXnj2WaSl4dgx1aMQuQdv3MNatAjl5Rg7FnFxqkdpzOuvo1MnXLmieg4i9+B1wSotxdKlAPDCC6pHsUNIyDXPKCLyQl73lnD5chQVYcgQk6u5q/Uv/4LUVPTta3v7b3+L8+dRUoIOHQAgJARz5hj/bcPHB3PmICTE6aMSqeIjV1+KxXNVV6NbN+Tl4eOP8cADqqexT3W1I0+uJtKad70l/OAD5OWhe3ckJKgexQ5ff42uXfHoo6rnIHIb3vVv95//DAAvvqjHAZbt2iE3FxaL6jmI3IYXvSXcuBGjRiEiAseO6XFSscWC1q1RUoLCQrRrp3oaIjegw56Gg1g/bps5U49aAfD1Ndbg9+xRPQqRe/CWYO3bh61bERKCqVNVj9IUAwYAwO7dqucgcg/eEqy5cwHgmWfQpo3qUZqif3+AwSL6J69Ywzp6FLfdBh8f5OQgMlL1NE1x8CB69kRMDI4eVT0KkRvwij2sBQtQXY3HHtOsVgB69EDLljh2DEVFqkchcgOeH6yiIqxcCR8f/PGPqkdputp19x9+UD0KkRvw/GC9/TZKSzF6NHr1Uj3KDeEyFoATJ7BhAw4dMtlUWIgNG5CV5fKZSAUPD1ZZGf7yF0CTU51NMVgAtmxBQgLee89k0+7dSEgwDgkmj+fhwVqxAoWFuPNO3HOP6lFuFINFVMuTg1VTU7N27UODBq1+6SWNT2/p0QPBwVx3JwI8O1gffvjh1q1rz5z5t7FjNT50w88PfftChMe7E3l0sObPnw/gxRdf9HPzayE3hu8Kiaw89moNW7Zs2b17d/v27SdOnKh6lpvFYFkdPow1a2xvvPrHnZEH89hgvfXWWwCSkpKaN2+uepabZT2jcNcu1XOo9tFH+Ogj1UOQUp4ZrKysrC+++CI4OPgZj/iB7vXX3du2VT2NOo88gqeesr1x1y68/LKKaVxr3jxs2oSYGCxfDh+fBpt+9zsUFOCzz7ziyrSe+SXOmzdPRJ5++um2HvH327ru/u232LMHw4ernkad6GiTL99LfmjjgQPYvBkAhg6FzSLH9u04dMhbLvTogYvux48fz8jI8Pf3nzFjhupZHIbLWASgWTM8/zzOn1c9hzoeGKwFCxZUVVU9+uij0dHRqmdxGAaLAPz+9ygsxEsvqZ5DHU8L1oULF959910As2bNUj2LIzFYBOCxx9C/P959F9u2qR5FEU8L1pIlS0pKSu6///477rhD9SyOFBeH4GAcPerVbwfI1xdvvw0AU6eiqkr1NCp4VLAqKiqWLFkC4AV9z3W+Bj8/9Onjvce7R0Rg6FDExppsCgvD0KHo3t3lMykyaBASE3HgwDXP9168GEuWoKzMtWO5jHiQpUuXAujbt6/FYlE9i+P94Q8CyJtvqp6DVJg4UQD54QcRkdOnpU0badFCjh0TEenRQwCpqBARKSmRtm0FkHbtJDlZTp5UObMzeM4elsViWbBgAYCXX37Zx+ZIFY/gzctY+/eja1d07YrMTNtN//M/6NoVf/2rirEUiYjAnDkoKzO5aFLz5njvPdx9N86dw5tvoksXTJyIn35SMaVzeE6w1q5d+/PPP3fp0uXhhx9WPYtTePPx7hUVyM1Fbi6mTbNdu7l8Gbm5uHhR0WSKPPMM+vfHhx/i668b3O7rizFjsG0bMjMxfjyqqvD++4iPx5gx2LFD0awO5TnBsu5ezZo1y99DD/jluntwMA4cwIIFqudwA35+WLoUvr6YMcP8kNEhQ5CRgZ9+QlISAgPxyScYNAhDhmD9emj9Y2c8JFhff/319u3bw8LCJk+erHoWZ/HydXcAY8eiWze8/jpyc1WP4ir79mH7dvNNAwbg6aexZw+OHLnmw7t1w8KFOHYMKSkIDcW2bXjgAfTti1WrdP2Q0ROCVV5ePnv2bADTp08PDg5WPY4TefMyFoDAQMydi/JyPPus6lGcTwQLF2LgQPzmN9fcp547F+Hhxh7WdfabIiLw2mvIy0NaGjp3RnY2Jk1CVBRee02/t9JaBquqqurAgQOrVq167rnnhgwZEhoamp2dHRAQMGzYMNWjOZeXBwvAv/4rRozAxo0m15nxJKdPY/RozJiBigoMG4ZmzczvFhqK1FTjv8eOxcSJOHjwms8ZEoLnnkNODtLT0bMnTp/G7NmIjsZzz+HECcd/Cc6i+mNKu5SWlm7btm3RokVPPPFE7969bVap/P3927dvDyAsLGzHjh2qh3WinBz593+XTZtUz+Fyu3YJIE88ISKyf78EBEjnznL5sojIX/4igMybp3ZAR/r7341DE8LDZd0648b9+2XTJuNLrs9ikc2b5f33xc9PAPH1lbFjZdu2Rl7CYpF162T4cAEEkMBASUyUgwcd/7U4nJsGq7Kycv/+/enp6UlJSYMHDw4MDLQpVHx8fGJiYlpaWmZmZmlp6ZUrV6wfDgYHB3/22WeqxycHqx8sEXn+eQFk5kwRzwrW5csyZYoRkREjmnYUVU6OJCVJixbGw/v3l/R0qa5u5FG7d0tiYl3sEhIaj51a7hKsioqKJhXq6meorq5+6qmnAAQGBn7wwQeu/xKcatQoCQ2VceNMNkVESM+eLh/ItWyCVVoq0dHi7y/Z2Z4TrO++k1tvFUCCgiQtTW7s2OezZyUlxdhBA6RrV0lLk7KyRh515IgkJUnz5sajBg+WjIzGY6eEsmA1qVBljX7LRUTEYrFYT8rx8/NbunSps78EVxoyxPjD9OGHtpsCA6VzZxUzuZBNsETkww8FkJEjGwRryxY5fVrVjDeuqkpSUyUgQADp1Uv27bvZJywpkWXLjPwB0r69pKRIUVEjjzpzRlJSJCzMeFS3bpKWJuXlNzuMY7kuWCUlJZmZmWlpaYmJif3793dIoUylpqZaj3RPTk524PxqWYPVurV06iSXLjXY5J3BEpFf/1oAefBBI1ilpRIertNyjNWxYzJ0qADi4yNJSXLlisOeuaZG1q2TO+80AtSypSQlSX5+I48qLpa0NImKMh4VESEpKXL+vMOmuklODFZxcXFtoeLj421+dI0DC3W1lStXWhfmp0+fXlNT48BnVsUarLlzBZCkpAabPDhYFy/KW2+JxWIerMOHpVkz4+/VvHly4oQ8+KD4+hrLMQ89JNu3K5rbbhkZ0qaNABIZKVu3OutVMjMlIUF8fASQgABJTJTs7EYeUlkpGRkyYIDx7Q0JkaQkKShw1oT2c2SwFBbqamvXrg0KCgLw+OOPV1ZWOvW1XMAarHPnpHdv8fWV776r2+SpwcrMlJgYAWThQvNgicif/lQXLCtdlmMuXpTHHjOGfPjhxt+v3by9eyUxUfz9674ztR9BXovFIp9+KsOG1X2YaP+595WV1/y2V1ZKVVUTJq/vpoLlVoW62tatW0NCQgAkJCS4/tUdyxqsixdlyxYBZMCAuj8NnhesqipJSTE+uhowQH766ZrBKiuT2FiTRXc3X47ZskU6dzb2XJYtc+lLHz0qSUkSHGx8Z+64Q9LTG8/Hnj1G7MaMMS4FUVhoe5/BgwWQU6dERLKyBJDhw02e6swZAaRPnxuc/waDNXny5Li4OF/fBsedBgYG9u/ff8qUKcuWLdu1a1eF9YIXSn3//fft2rUDcM8991y8eFH1ODeuNlgi8vDDAsjbbxubPCxYubnGH31fX0lKMq6aUloqu3bJ0aMm9z9+XHbtMl9rd8PlmMpKSUkx3rcOHCg//6xmjIsXJS1NOnY0vjOxsZKWJmafvTeQkyPPPWc8ZOpU261uHSzr9TyV70PZ4+DBg5GRkQB69ep14sQJ1ePcoPrBys+Xli2ldWvjD4cnBSs9XVq2FECiouTLLx3znKbLMY2uPTvDwYPSr58A4u8vycmifKHiyhVJT5fu3Y3vTHi4pKTIuXPXe8iMGUb6fX1tj9hy62B99dVXbrIPZY9jx451794dQGxs7JEjR1SPcyPqB0tE3nxTAJk8WcRTgnXhgjz6qPE3Z/x4p+wHWdee6x/bvX+/41/FlMUiy5YZb8RiYiQz00Wvaw/rh4l33WV8Z4KDZcoUOXzY/M7WYC1aJH5+0qdPg/eSbh0s7RQVFQ0cOBBAx44d9938gS4uZxOsykrp2VN8feX77+uClZ8vq1e74wJzozZtkk6dBJBWrWTVKue+Vu1yjPVIguHDG197vklnzhhLP4AkJkpxsXNf7obV/zDRetR7/c92rKzB2rxZfv97AeStt+o2MVgOVlxcfN999wEIDQ3d5uYnIIiISHGxvPKKbNggclWwROTLL8XHR+69ty5Y1j9MXbrYtR7hJsrLJTnZWNMZNEhctvubm9vgRJZ+/ew6keUGbNxoLBW1aSP/+7+Of36Hy8qSxETjKNbaDxNrD7uvDda5cxIWJsHBxmWaxSxYw4ZJcbHtr6NHGSy76XLKYXW1LF8uHToIID16SE2NSbBE5PHHjT9V1mCtXCndutWtR7z2mslHOW7lwAG5/XZjTSclRcG+YWGhpKRIu3YN1p4dtRJbViZJScYOy69+JcePO+ZpXSMvT2bONNYTUe8nCdQGS0TeeUcAGTXK2HR1sK7zi8GyV3V19ZNPPmn9THP16tWqxzGxebP07Wv8f/3FL4z1DtNgWX8YQW2w5J/rEYMGGQ9v1kwSE+XQIVd/CY2yrulYd3C6dFF8wq117fm224xv2nVOZKmpkfPn5fx5ufpg5IoKOX++LnZZWdK7t/G/IDXV5P5auHRJ0tIkOlry8oxb6gerpkZ+8QsB5OOPRcyCFR0tL7xg++vZZxmsJnLbUw4PHZLx442/NpGRkp5etytuGiwRefvtBsGqdfV6hPtcd+f0aRk92u3WdKytHzjQGMx6IkvtX1Sr3FzbPY5aH3wggLz8slgskpYmgYECSHy88XNutFZ/z7d+sERk1y7x85PYWLlyhWtYTuZWpxyeOydJScZKcMuWkpJie5TjiROSk2PyD3V1teTk2P69qnX4sCQlSVCQ+XqEEmvWGG/BwsPlo49UTnItV7d+505jU22wWrSQ3NwGj6oNVna2BAQYJwa6z6GqjmITLBFj9X3ePAbL+dzhlMOKCklLk9atjaWcKVMcf72BU6ckJcV482j9s5KeruAgIOuajnWG++4TNz8kbs8emTCh7sPEkSPlu++MYEVGio+PJCQ0uH9tsERk8WLZuFHJ1E53dbAuXJD27aVNG+PHIzJYzqX2lMN164wzS6z/d7OynPhaly9LWppxRgggHTtKSorJe0wn2bnTWCQKCtJpTefYMUlONv45ycgwgvXAA/LQQwLImjV196wfLA92dbBEZOXKutV0BsvplJxyuHNn3SWu4uONYxdcoKJC0tMlPt546VatJCnJuTs7NTV1azo9e8revU58LScpKpI//1mqq+uClZMjQUESGVm3AOfNwbJY5N57XRQsLX8IhWMNGzZs69at7dq1++STT0aOHHnp0iWnvlxBASZOxMCB+OYbdOyIZcuQlYVf/9qpr1knMBATJ2L/fqxbh+HDcfkyFi0yfj7wjz86/uXy8jBsGGbMQFUVkpKwezf69nX8qzhbWBhmzkT9U/tjYzFrFgoK8Oqr6sZyGz4+WLwYAQEuebEbDJ3HccEph8XFkpJiLIG3aCHJybaX4nO9XbuceEnvjAwJDRVAIiLk008d9rQK1e5hiUhpqcTEiJ+f8Tmgl+xh2clikfLya66TlpfLDZ/Ux2DVcd4ph1VVVUuWLImLq7J2YdIk9zqM0PQaUqbLTEeOyK5d5mcO79tX9xH+pUt1B7U+9FAj59NqpH6wRGTNGgFk0CCxWBgsF2GwGnDGKYebNm3q3bs3gKFD0++6S7791iHP6nj2XEPqgQeMBfurV+s7dJAWLUREvv3W+CShRQtJS3PR8K5hEywR44CyVasYLBdhsGwVFxcPHz4cjjjlcO/evdanAnDbbbd99NHHjhrSea5/DSlrsACZMcP2gbXBGjtWALnrLtedGOgyVwfryBEJCpJOnWTFCgbLFRgsEzd/ymFhYWFSUpL1EqyhoaGpqalXHPjTBZyvslLS06VXLyNPrVtLcrLU1BjBuvVW8fOT3bsbPKQ2WGfPyty5N34NXHd2dbBEZPZsAYyzqRgsZ2OwzN3wKYelpaWpqamtWrUCEBAQMGXKlLNnzzpvTmervYbUffeJ/HMPa/Vq8fGRO+9ssM5VGywPZhqsK1fqroHHYDkbg3VNTT3l0GKxZGRkxMTEWN8DJiQk/KzqCriOtnOnsT9lDVZurkyaJIAsXlx3H68Nloh8/jmD5SIMViPsPOVw+/btgwYNsqaqf//+Xzrq+r5upjZYJ09KSIi0bl3349S9IVjHjkloqEyYYLJpwgQJDZXZs10+k5dhsBr33nvvXeeUw8OHD48fP96aqk6dOi1btswzfhKiqdpgiciCBQLIb39rbPKGYJFyDJZdTE85PH/+fHJycrNmzazL88nJycVucqkUp6kfrKoq6dOn7kQNbwiW9Yzod9812ZSTIxMmyIIFLp/JyzBY9qo95XDMmDGXLl1atmxZeHg4AF9f38TExFPWc6g8Xf1gicg334iPj8THS1WVVwRr/XoB5KmnTDZ9950AMmaMy2fyMv5OP/fHUwwbNmzTpk2jR49ev359p06dSkpKAIwYMWL+/PnW40K90ODBmDQJK1fir39VPQp5B5783AQDBw7MzMwMCwsLDQ2NjY3NyMj4/PPPvbZWVvPmISwMs2fjyhXVo5AX4B5W08TFxbVr1+7w4cPZ2dm9evVSPY564eF44w1MmwYALVqonoY8HfewmkZECgoKANQeb0VTpmDgQNVDkHfgHlbTFBYWlpeXt23btmXLlqpnUSAiArGxtlc+8vXF4sV45BE0b65oLNfasgX/PI6lzoULKkbxPgxW0+Tn5wOIiopSPYgay5eb3z5gAHJyXDuKOqdO4csvbW+srlYwiRfiW8Km8fJgTZ6MkSNRUWGyaeZMjByJM2dcPpPLPf44Cgttf33+ueqxvAP3sJrGy4P11Vc4ehQ1NSabduzAjh0oK3P5TORNuIfVNNYVd+vFlInIxRispvHyPSwitRispmGwiBRisJqGwSJSiIvuTVBRUXHmzJmAgIAOHTqonkWlUaPge9W/dAcPqhjFtfr0wTvvID7eZFOXLnjnHfBoYmdjsJqgoKBARDp37uxX/4dqep8zZ+DjY3tjVZWKUVwrKgrPPGO+KTz8mpvIgRisJsjLywPfDwI//GBy2uCgQdixQ8U05E24htUE1gWs6Oho1YMQeSkGqwm44k6kFoPVBDxqlEgtBqsJuIdFpBaD1QQMFpFa/JSwCfiWcMkSlJSgWTOTTW+8gaIiRES4fCbyJj4ionoGPRReLhwyYUhlfuXRrKOqZyHyUtzDsle+f/7h1w/f3vx21YMQeS+uYdkrvzIfQFQgF7CIlGGw7MVgESnHYNmLwSJSjsGyF4NFpByDZa/8KgaLSDEGy17cwyJSjsGyS4VUnKk6E+AT0MHfqy/dR6QWg2WXgsoCgXQO6Ozn49WX7iNSi8GyC98PErkDBssuDBaRO2Cw7JJXmQcgOpDXGiVSicGyS0FlAYDIQO+9TgORO2Cw7MKDsIjcAYNlF65hEbkDBssuxlvCAL4lJFKJwWpcYXVhmaUszD8sxC9E9SxEXo3BapzxfjCA7weJFGOwGmc9poELWETKMViNs+5h8SAsIuV4TffGjW0ztkNAh9jAWNWDEHk7/tScGzS9YPr6S+s337q5W7Nuqmch8hZ8S3hN5ZbytLNpg34aFLI3xOcHn7ZZbR/Kfejb0m+tW89Wn82rzKuUSrVDEnkVviU0d7Lq5MgjI7PLs4N9g38Z8sv2/u3zK/PXX1r/8cWPF0cunhY+TfWARN6IwTJhgeWRo49kl2ePbDVyVcyqcP9w6+0/XvlxfO54Ho1FpAqDZWLjpY3flHwTHRj9t9i/BfsG194eFxSXFZ/ly/fRRIrw756Jv1/8O4Cp7abWr5UVa0WkEP/6mfih7AcAQ1sOVT0IETXAYJkorC4E0Cmwk+pBiKgBBsuEBRbw3R+R++HfSRNt/NoAKKouUj0IETXAYJmIC4oDsKd8j+pBiKgBBsvEiFYjAKwqWqV6ECJqgMEyMSF0QkRAxNclXy88u9BmU6VUWle4iMj1GCwTIX4hq6JXBfkGzTg+IyEn4f3z7/+j+B+rL6z+4/E/RmZHfnH5C9UDEnkpHulubkSrEf+49R8zj8/ccGnDhksbam+PC4rz9+E3jUgNXl6mEXmVefvL95dZyjoGdIxpFtM5oHPt7RdqLsQFxTXzaaZ2QiLvwWARkTa4hkVE2mCwiEgbDBYRaYPBIiJtMFhEpA0Gi4i0wWARkTYYLCLSBoNFRNpgsIhIGwwWEWmDwSIibTBYRKQNBouItMFgEZE2GCwi0gaDRUTaYLCISBsMFhFpg8EiIm0wWESkDQaLiLTBYBGRNhgsItIGg0VE2mCwiEgbDBYRaYPBIiJtMFhEpA0Gi4i0wWARkTYYLCLSBoNFRNpgsIhIGwwWEWmDwSIibTBYRKQNBouItMFgEZE2GCwi0gaDRUTaYLCISBsMFhFpg8EiIm0wWESkDQaLiLTBYBGRNhgsItIGg0VE2mCwiEgbDBYRaYPBIiJtMFhEpA0Gi4i0wWARkTYYLCLSBoNFRNpgsIhIGwwWEWmDwSIibTBYRKQNBouItMFgEZE2GCwi0gaDRUTaYLCISBsMFhFpg8EiIm0wWESkDQaLiLTBYBGRNhgsItIGg0VE2mCwiEgbDBYRabLO57cAAAD3SURBVIPBIiJtMFhEpA0Gi4i0wWARkTYYLCLSBoNFRNpgsIhIGwwWEWmDwSIibTBYRKQNBouItMFgEZE2GCwi0gaDRUTaYLCISBsMFhFpg8EiIm0wWESkDQaLiLTBYBGRNhgsItIGg0VE2mCwiEgbDBYRaYPBIiJtMFhEpA0Gi4i0wWARkTYYLCLSBoNFRNpgsIhIGwwWEWmDwSIibTBYRKQNBouItMFgEZE2GCwi0gaDRUTaYLCISBsMFhFpg8EiIm0wWESkDQaLiLTBYBGRNhgsItIGg0VE2mCwiEgbDBYRaYPBIiJtMFhEpA0Gi4i0wWARkTb+H/6M3OIKyqdDAAABB3pUWHRyZGtpdFBLTCByZGtpdCAyMDIyLjA5LjEAAHice79v7T0GIOBlgABGIOaB4gZGdgULIM3MyMzOoAFiMCMJJAAZTIwIWgEkgS7MBqaZoTQjM4wvCFbOyM3AqMHEyKTAxMzAzMLAwsrAysbAxs7AzsHAwcnAwcXAxc3AxcogwsjKysbOwSU+C+pAMODxWbLL4do8sX0gTjFnv8Pj3V/tQGzm7f4OuZ+PgsUXMn20P6RfBhbfMVXDfoe3wn4QW8jRZL/B3nQrELsyr37/5dQ99iC2u7H8gd9XLoHZG0PcD4QvmwjW279n0oFVfWJ7QOzIUwwHfBZbg815y8hzoMaB7wCILQYAOdo4jSTjAHwAAAFielRYdE1PTCByZGtpdCAyMDIyLjA5LjEAAHicfZNdasMwDMffcwpfoEaSJVt6XJMyxmgKW7c7DPa4+zMppXMKZo7/wZF+/pDkTCna2/L69ZP+Gi3TlBL8080sfRYAmM4pBul4en5Z03x9Ot4t8+Vjvb4npOgQzyP7dL2c7xZMa5KshURqOkBGbmA+I8PW+lRykDNXMyju5mbGNuCKcyUTi7DEgkVrpTIA2UHMqqQWbmJgbANOnINcRaVwLFiposgArA66v/k6qDe/Kg/AdgPNWmvmZ+CGKqOtNUDKrE1AHKxO0mhrS3M6lIzIwrEjKXOjAYgQJGePRvyQhyAMdZRIxEApA1IR2CIrZHVUGy/z/B0saquxLGUiqloH7GldHi7A7UocL+vSrwSFeuHDUHp90cW9iuiSXix01V4SdLWeeHRpTy+6rCcRQ/tcbQbcZQS3F+0C3yx1H90+lvi+/xo+nn4BsFyltHqj3pEAAAC7elRYdFNNSUxFUyByZGtpdCAyMDIyLjA5LjEAAHicHY/LDcNACERbydGWMAKWr1Y5+b6VpAQXH9YHJPQYmOG+ea11dK3vOm++f5/nuBQtzQQuQqLiLCmY10BmNQVCSdWQRoKaYcDoGrwBYVVEVKMm6S8KUuaEfYwylVhhEnp7DN0eLs5mMBkzJWsbaK8EzNGd9ahFI91lwFRUr63RqNLOZZhDzLeGNajeWMQy3rUYUv4izvB+SVBEvOB8/gFUM4OwrVG4AAAAAElFTkSuQmCC;clipPath=inset(27.33% 2.67% 28% 0.33%);" vertex="1" parent="1">
          <mxGeometry x="443.89" y="650.37" width="259.78" height="119.63" as="geometry" />
        </mxCell>
      </root>
    </mxGraphModel>
  </diagram>
</mxfile>
